<?xml version="1.0" encoding="UTF-8"?>
<svg width="100%" height="100%" viewBox="0 0 20 20" version="1.1" xmlns="http://www.w3.org/2000/svg" xmlns:xlink="http://www.w3.org/1999/xlink">
                <path d="M16.4090909,5.73755591 C16.735441,5.73755591 17,6.00652126 17,6.33830685 L17,9.09174865 C17,12.5390556 14.403581,15.3698362 11.0904116,15.673115 L11.09,17.6265559 L13.9862452,17.6274182 C14.3125953,17.6274182 14.5771543,17.8963836 14.5771543,18.2281692 C14.5771543,18.5599548 14.3125953,18.8289201 13.9862452,18.8289201 L7.02871293,18.8289201 C6.70236285,18.8289201 6.43780384,18.5599548 6.43780384,18.2281692 C6.43780384,17.8963836 6.70236285,17.6274182 7.02871293,17.6274182 L9.909,17.6265559 L9.90958841,15.673115 C6.596419,15.3698362 4,12.5390556 4,9.09174865 L4,6.33830685 C4,6.00652126 4.26455901,5.73755591 4.59090909,5.73755591 C4.91725917,5.73755591 5.18181818,6.00652126 5.18181818,6.33830685 L5.18181818,9.09174865 C5.18181818,12.0778189 7.56284928,14.4985071 10.5,14.4985071 C13.4371507,14.4985071 15.8181818,12.0778189 15.8181818,9.09174865 L15.8181818,6.33830685 C15.8181818,6.00652126 16.0827408,5.73755591 16.4090909,5.73755591 Z M10.5,1 C12.8497206,1 14.7545455,2.93655057 14.7545455,5.32540676 L14.7545455,9.27072237 C14.7545455,11.6595786 12.8497206,13.5961291 10.5,13.5961291 C8.15027943,13.5961291 6.24545455,11.6595786 6.24545455,9.27072237 L6.24545455,5.32540676 C6.24545455,2.93655057 8.15027943,1 10.5,1 Z"></path>
</svg>
