<?xml version="1.0" encoding="UTF-8"?>
<svg width="100%" height="100%" viewBox="0 0 20 20" version="1.1" xmlns="http://www.w3.org/2000/svg" xmlns:xlink="http://www.w3.org/1999/xlink">
                    <path d="M11.2724685,0.562128576 L18.5307613,5.16941061 C19.4456954,5.75017522 20,6.75857226 20,7.84226595 L20,15.2504466 C20,17.8731336 17.873892,19.9992416 15.251205,19.9992416 L4.74879504,19.9992416 C2.12610796,19.9992416 3.21186534e-16,17.8731336 0,15.2504466 L0,7.84226595 C7.55464219e-16,6.75857226 0.554304587,5.75017522 1.46923872,5.16941061 L8.72753152,0.562128576 C9.50421429,0.0691205547 10.4957857,0.0691205547 11.2724685,0.562128576 Z M15,12.6643915 C16.2886644,12.6643915 17.3333333,11.6197225 17.3333333,10.3310581 C17.3333333,9.0423937 16.2886644,7.99772479 15,7.99772479 C13.7113356,7.99772479 12.6666667,9.0423937 12.6666667,10.3310581 C12.6666667,11.6197225 13.7113356,12.6643915 15,12.6643915 Z"></path>
</svg>
