<svg width="10px" height="10px" viewBox="0 0 10 10" version="1.1" xmlns="http://www.w3.org/2000/svg" xmlns:xlink="http://www.w3.org/1999/xlink">
    <g id="3_主播" stroke="none" stroke-width="1" fill="none" fill-rule="evenodd">
        <g id="3.1.1主播首頁-依主播" transform="translate(-315, -452)" fill="#4C9EEA">
            <g id="主播/card/1" transform="translate(12, 377)">
                <g id="label/1" transform="translate(299, 70.5)">
                    <g id="Group" transform="translate(4, 0)">
                        <g id="history_n" transform="translate(0, 4.5)">
                            <path d="M7,0.5 C8.657,0.5 10,1.843 10,3.5 L10,6.5 C10,8.1565 8.657,9.5 7,9.5 L3,9.5 C1.3435,9.5 0,8.1565 0,6.5 L0,3.5 C0,1.843 1.3435,0.5 3,0.5 L7,0.5 Z M4.666,5.78685 L2.666,5.78685 C2.391,5.78685 2.166,6.01185 2.166,6.28685 C2.166,6.56185 2.391,6.78685 2.666,6.78685 L4.666,6.78685 C4.941,6.78685 5.166,6.56185 5.166,6.28685 C5.166,6.01185 4.941,5.78685 4.666,5.78685 Z M7.5,3.25 L2.5,3.25 C2.225,3.25 2,3.475 2,3.75 C2,4.025 2.225,4.25 2.5,4.25 L7.5,4.25 C7.7755,4.25 8,4.025 8,3.75 C8,3.475 7.7755,3.25 7.5,3.25 Z" id="tab_shop-list_n"></path>
                        </g>
                    </g>
                </g>
            </g>
        </g>
    </g>
</svg>