<?xml version="1.0" encoding="UTF-8"?>
<svg width="60px" height="60px" viewBox="0 0 60 60" fill="#4c9eea" version="1.1" xmlns="http://www.w3.org/2000/svg" xmlns:xlink="http://www.w3.org/1999/xlink">
  <path d="M30,51 C18.4020203,51 9,41.5979797 9,30 C9,18.4020203 18.4020203,9 30,9 C41.5979797,9 51,18.4020203 51,30 C50.9862854,41.5922942 41.5922942,50.9862854 30,51 Z M30,37.4231111 C29.4023405,37.4011176 28.8196864,37.6131948 28.376,38.0142222 C27.9360404,38.3953736 27.6832714,38.9487885 27.6832714,39.5308889 C27.6832714,40.1129892 27.9360404,40.6664041 28.376,41.0475556 C28.8148009,41.4598887 29.3980193,41.683344 30,41.6697778 C30.6147308,41.6810644 31.2130896,41.4713076 31.6862222,41.0786667 C32.1202553,40.6793755 32.3616445,40.1127343 32.3488889,39.5231111 C32.356855,38.9461377 32.1152901,38.3938272 31.6862222,38.008 C31.2117624,37.6076172 30.6047972,37.3990076 29.9844444,37.4231111 L30,37.4231111 Z M27.6666667,18.3333333 L29.3155556,33.1826667 L30.6813333,33.1826667 L32.3333333,18.3333333 L27.6666667,18.3333333 Z"></path>
</svg>
