<?xml version="1.0" encoding="UTF-8" standalone="no"?>
<!DOCTYPE svg PUBLIC "-//W3C//DTD SVG 1.1//EN" "http://www.w3.org/Graphics/SVG/1.1/DTD/svg11.dtd">
<svg width="100%" height="100%" viewBox="0 0 20 20" version="1.1" xmlns="http://www.w3.org/2000/svg">
    <g transform="matrix(1.18108,0,0,1.18108,-2.05178,-1.81892)">
        <path d="M10.204,18.474C14.836,18.474 18.671,14.639 18.671,10.007C18.671,5.383 14.828,1.54 10.196,1.54C5.572,1.54 1.737,5.383 1.737,10.007C1.737,14.639 5.58,18.474 10.204,18.474Z" style="fill:rgb(51,51,51);"/>
        <path d="M13.176,13.692C12.976,13.692 12.802,13.609 12.678,13.485L10.196,10.995L7.722,13.485C7.598,13.618 7.423,13.692 7.224,13.692C6.842,13.692 6.527,13.377 6.527,12.987C6.527,12.796 6.601,12.63 6.734,12.505L9.216,10.015L6.734,7.525C6.601,7.409 6.527,7.234 6.527,7.043C6.527,6.662 6.842,6.354 7.224,6.354C7.423,6.354 7.581,6.429 7.705,6.562L10.196,9.044L12.703,6.554C12.844,6.404 13.001,6.338 13.184,6.338C13.574,6.338 13.881,6.653 13.881,7.035C13.881,7.226 13.823,7.384 13.674,7.517L11.183,10.015L13.665,12.489C13.798,12.622 13.873,12.788 13.873,12.987C13.873,13.377 13.566,13.692 13.176,13.692Z" style="fill:white;"/>
    </g>
</svg>
