<?xml version="1.0" encoding="UTF-8"?>
<svg width="100%" height="100%" viewBox="0 0 18 18" version="1.1" xmlns="http://www.w3.org/2000/svg" xmlns:xlink="http://www.w3.org/1999/xlink">
                    <path d="M8.20787852,7.10542736e-15 C12.7409647,7.10542736e-15 16.415757,3.63526184 16.415757,8.11958457 C16.412636,10.1356768 15.6680178,11.9796948 14.4372281,13.3990593 L17.7772876,16.7038576 C18.0742375,17.0024779 18.0742375,17.4814984 17.7772876,17.7801187 C17.6203183,17.9193655 17.4175823,17.9974997 17.2067586,18 C17.004509,18 16.810442,17.9209922 16.6668258,17.7801187 L13.3292731,14.458608 C11.9255887,15.5703784 10.1453354,16.236234 8.20787852,16.2391691 C3.67479239,16.2391691 0,12.6039073 0,8.11958457 C0,3.63526184 3.67479239,7.10542736e-15 8.20787852,7.10542736e-15 Z M8.20787852,1.51243644 C4.52188152,1.52572601 1.54339632,4.4900809 1.55230639,8.13644025 C1.56125652,11.7827996 4.55422635,14.7328431 8.24024505,14.728443 C11.9262638,14.7240331 14.9120442,11.7668448 14.9120442,8.12047478 C14.9106174,6.3641864 14.2030525,4.68058848 12.9453873,3.44096118 C11.6877221,2.20133388 9.9832586,1.50749773 8.20787852,1.51243644 Z"></path>
</svg>
