<?xml version="1.0" encoding="UTF-8"?>
<svg width="100%" height="100%" viewBox="0 0 20 20" version="1.1" xmlns="http://www.w3.org/2000/svg" xmlns:xlink="http://www.w3.org/1999/xlink">
                <path d="M19.4144838,15.7190189 L0.92449923,15.7190189 C-0.30816641,15.7190189 -0.30816641,13.8697225 0.92449923,13.8697225 C1.94567288,13.8697225 2.77349769,13.0417643 2.77349769,12.0204262 L2.77349769,7.39718529 C2.77349775,3.31183264 6.08479696,0 10.1694915,0 C14.2541861,0 17.5654853,3.31183264 17.5654854,7.3971853 L17.5654854,12.0204262 C17.5654854,13.0417643 18.3933102,13.8697225 19.4144838,13.8697225 C20.6471495,13.8697225 20.6471495,15.7190189 19.4144838,15.7190189 Z M12.568567,18.9569258 C12.0723914,19.8124163 11.1583386,20.3389831 10.1694915,20.3389831 C9.18064446,20.3389831 8.26659166,19.8124163 7.77041602,18.9569258 C7.41289291,18.3404957 7.85758661,17.5683152 8.57010786,17.5683152 L11.7688752,17.5683152 C12.4813964,17.5683152 12.9260901,18.3404957 12.568567,18.9569258 Z"></path>
</svg>
