<?xml version="1.0" encoding="UTF-8"?>
<svg width="100%" height="100%" viewBox="0 0 20 20" version="1.1" xmlns="http://www.w3.org/2000/svg" xmlns:xlink="http://www.w3.org/1999/xlink">
                    <path d="M3.87452659,2 C4.52166344,2 5.05113903,2.52211748 5.05113901,3.16026107 L5.05113901,13.6026106 L7.15727528,13.6026106 C7.68675088,13.6026106 7.94560563,14.2291516 7.56908963,14.5888325 L4.28634093,17.8259608 C4.05101845,18.0580131 3.68626859,18.0580131 3.45094611,17.8259608 L0.168197417,14.5888325 C0.00193738018,14.4215786 -0.0460273659,14.1721467 0.046599361,13.956484 C0.139226088,13.7408214 0.354273521,13.6012348 0.591777894,13.6026106 L2.69791414,13.6026106 L2.69791414,3.16026107 C2.69791414,2.52211748 3.22738974,2 3.87452659,2 L3.87452659,2 Z M18.8233876,13.6026106 C19.4705244,13.6026106 20,14.1247281 20,14.7628717 C20,15.4010152 19.4705244,15.9231327 18.8233876,15.9231327 L11.763713,15.9231327 C11.1165761,15.9231327 10.5871005,15.4010152 10.5871005,14.7628717 C10.5871005,14.1247281 11.1165761,13.6026106 11.763713,13.6026106 L18.8233876,13.6026106 Z M18.8233876,8.96156635 C19.4705244,8.96156635 20,9.48368382 20,10.1218274 C20,10.759971 19.4705244,11.2820885 18.8233876,11.2820885 L8.23387566,11.2820885 C7.58673881,11.2820885 7.05726322,10.759971 7.05726322,10.1218274 C7.05726322,9.48368382 7.58673881,8.96156635 8.23387566,8.96156635 L18.8233876,8.96156635 Z M18.8233876,4.32052213 C19.4705244,4.32052213 20,4.84263961 20,5.48078317 C20,6.11892674 19.4705244,6.64104424 18.8233876,6.64104424 L8.23387566,6.64104424 C7.58673881,6.64104424 7.05726322,6.11892676 7.05726322,5.48078317 C7.05726322,4.84263958 7.58673881,4.32052213 8.23387566,4.32052213 L18.8233876,4.32052213 Z"></path>
</svg>
