<?xml version="1.0" encoding="UTF-8" standalone="no"?>
<!DOCTYPE svg PUBLIC "-//W3C//DTD SVG 1.1//EN" "http://www.w3.org/Graphics/SVG/1.1/DTD/svg11.dtd">
<svg width="100%" height="100%" viewBox="0 0 13 16" version="1.1" xmlns="http://www.w3.org/2000/svg" xmlns:xlink="http://www.w3.org/1999/xlink" xml:space="preserve" xmlns:serif="http://www.serif.com/" style="fill-rule:evenodd;clip-rule:evenodd;stroke-linejoin:round;stroke-miterlimit:2;">
    <g id="Mask" transform="matrix(1,0,0,1,-3.5,-2)">
        <path d="M10.65,14.911C10.63,15.23 10.346,15.481 10,15.487C9.654,15.481 9.37,15.23 9.35,14.911L9.35,13.501C8.946,13.276 8.7,12.872 8.703,12.437C8.703,11.746 9.284,11.187 10.003,11.187C10.72,11.187 11.302,11.747 11.302,12.437C11.303,12.872 11.058,13.276 10.654,13.501L10.65,14.911ZM16.5,9.966L16.5,16.144C16.493,17.173 15.623,18.002 14.553,18L5.452,18C4.38,18.005 3.507,17.174 3.5,16.144L3.5,9.966C3.501,9.475 3.707,9.004 4.075,8.65C4.435,8.304 4.932,8.109 5.452,8.11L14.548,8.11C15.62,8.106 16.493,8.936 16.5,9.966ZM7.274,6.668L7.274,7.308L5.233,7.308L5.233,6.668C5.233,3.832 7.108,2 10.003,2C12.897,2 14.767,3.832 14.767,6.668L14.767,7.308L12.726,7.308L12.726,6.668C12.726,5.583 12.371,3.767 10.003,3.767C7.541,3.767 7.274,5.794 7.274,6.668Z" />
    </g>
</svg>
