<?xml version="1.0" encoding="UTF-8"?>
<svg width="100%" height="100%" viewBox="0 0 20 20" version="1.1" xmlns="http://www.w3.org/2000/svg" xmlns:xlink="http://www.w3.org/1999/xlink">
                <path d="M17.1232123,3.08645463 L15.38718,3.08645463 L15.38718,2.86768394 C15.38718,2.38845649 14.9969907,2 14.5156721,2 L5.40020021,2 C4.91886358,2 4.52867425,2.38847453 4.52867425,2.86768394 L4.52867425,3.08645463 L2.87682389,3.08645463 C1.84196369,3.08645463 1,3.92468761 1,4.95501942 L1,7.11720937 C1,9.25839388 2.72255373,11.0065383 4.86048083,11.0601888 C5.48856136,12.5986215 6.95026521,13.6756742 8.73992203,13.6756742 L9.16857487,13.6756742 C9.17014888,13.6756742 9.1714334,13.6769374 9.1714334,13.6785254 L9.17143338,16.2674112 C9.17143338,16.2689812 9.17016695,16.2702625 9.16857486,16.2702625 L6.54609078,16.2702625 C6.08409445,16.2702625 5.70637048,16.6293041 5.67899734,17.082401 C5.64878377,17.582634 6.06111766,18 6.56445412,18 L13.4955569,18 C13.957499,18 14.3352772,17.6409584 14.3626323,17.1878614 C14.3928458,16.6876285 13.9804938,16.2702625 13.4771574,16.2702625 L10.9116268,16.2702625 C10.9100528,16.2702625 10.9087683,16.2689993 10.9087683,16.2674112 L10.9087863,13.6784533 C10.9087863,13.6769013 10.9100347,13.6756381 10.9115906,13.6756381 C12.6991488,13.6744832 14.308881,12.5981343 15.0123869,11.0611272 C15.021053,11.0612174 15.0296648,11.061452 15.0383308,11.061452 C17.2228085,11.061452 19,9.29208564 19,7.11720939 L19,4.95501942 C19,3.92468761 18.1581267,3.08645463 17.1232123,3.08645463 L17.1232123,3.08645463 Z M2.06074978,7.11720939 L2.06074978,4.95503747 C2.06074978,4.50701142 2.42685871,4.14253797 2.87682389,4.14253797 L4.52867425,4.14253797 L4.52867425,9.34847914 C4.52867425,9.56273834 4.54345538,9.77326206 4.57169693,9.97916599 C3.15589239,9.7889259 2.06074978,8.5780627 2.06074978,7.11720939 L2.06074978,7.11720939 Z M13.0764023,5.8826519 L11.6624613,7.34814302 C11.6621718,7.34897313 11.6619547,7.34967692 11.6616833,7.35050703 L11.9184083,9.34624143 C11.9187158,9.34846108 11.9164543,9.35010326 11.914428,9.34918291 L10.0412949,8.49562894 C10.0404808,8.49562894 10.039739,8.49562894 10.0389429,8.49562894 L8.1658279,9.34918291 C8.1638016,9.35010326 8.16154009,9.34844302 8.16182957,9.34624143 L8.41857259,7.35050703 C8.41828311,7.34967692 8.418066,7.34897313 8.41779463,7.34814302 L7.00381739,5.8826519 C7.00226148,5.88102775 7.00314799,5.87830283 7.00539139,5.87786973 L9.03682919,5.49854449 C9.03751669,5.4980753 9.03809562,5.4976422 9.03878312,5.49717301 L10.0401551,3.72970146 L11.0415271,5.49717301 C11.0422146,5.4976422 11.0428116,5.4980753 11.0434991,5.49854449 L13.0749369,5.87786973 C13.0770898,5.87830283 13.0779763,5.88102777 13.0764023,5.8826519 L13.0764023,5.8826519 Z M17.9392864,7.11720939 C17.9392864,8.60944457 16.7966705,9.84097034 15.3367577,9.99017401 C15.3698117,9.78168949 15.38718,9.56838671 15.38718,9.35131235 L15.38718,4.14253795 L17.1232123,4.14253795 C17.5732136,4.14253795 17.9392864,4.5070114 17.9392864,4.95500138 L17.9392864,7.11720939 L17.9392864,7.11720939 Z"></path>
</svg>
