<?xml version="1.0" encoding="UTF-8"?>
<svg width="100%" height="100%" viewBox="0 0 20 20" version="1.1" xmlns="http://www.w3.org/2000/svg"
  xmlns:xlink="http://www.w3.org/1999/xlink">
  <path
    d="M9.08790323,9.0875 C8.58387097,9.59153226 8.58387097,10.4084677 9.08790323,10.9120968 C9.59153226,11.416129 10.408871,11.416129 10.9125,10.9120968 C11.4165323,10.4080645 11.4165323,9.59112903 10.9125,9.0875 C10.4084677,8.58387097 9.59153226,8.58387097 9.08790323,9.0875 Z M10,0 C4.47701613,0 0,4.47701613 0,10 C0,15.5229839 4.47701613,20 10,20 C15.5229839,20 20,15.5229839 20,10 C20,4.47701613 15.5229839,0 10,0 Z M15.0862903,5.96975806 L12.4262097,11.7903226 C12.2975441,12.0718091 12.0718091,12.2975441 11.7903226,12.4262097 L5.97016129,15.0862903 C5.29879032,15.3931452 4.60685484,14.7012097 4.91370968,14.0298387 L7.57419355,8.20927419 C7.70285912,7.92778767 7.92859412,7.70205267 8.21008065,7.5733871 L14.0302419,4.91330645 C14.7016129,4.60685484 15.3931452,5.2983871 15.0862903,5.96975806 L15.0862903,5.96975806 Z"></path>
</svg>