<?xml version="1.0" encoding="UTF-8"?>
<svg width="100%" height="100%" viewBox="0 0 60 60" version="1.1" xmlns="http://www.w3.org/2000/svg" xmlns:xlink="http://www.w3.org/1999/xlink">
    <title>FA5DA85B-DE96-4BEE-9120-7D962FA2A80A</title>
    <g id="Page-1" stroke="none" stroke-width="1" fill="none" fill-rule="evenodd" opacity="0.150319417">
        <g id="UiKit_Icons" transform="translate(-735.000000, -3076.000000)" fill="#4C9EEA">
            <g id="Group" transform="translate(735.000000, 3076.000000)">
                <path d="M30,0 C36.6114687,0 42.7234166,2.13870271 47.6817487,5.76201317 C47.656769,5.90986276 47.6332064,6.07215282 47.6117336,6.23792137 L47.5834786,6.46848141 C47.5761579,6.53179917 47.5692245,6.59489902 47.562749,6.65718809 L47.5447669,6.84103009 C47.4624309,7.74214979 47.4990085,8.3274501 47.8927741,6.59602253 L47.922,6.46 L47.9077387,6.50918422 C47.8568909,6.65418839 47.925697,6.0486991 47.9402678,6.22293031 L47.94268,6.28361783 L47.942,6.3 L47.9450112,6.15736158 C47.945616,6.0838047 47.9458569,6.01459382 47.9457538,5.94956468 C50.6290723,7.96332189 52.9649864,10.4076485 54.8477202,13.1842359 C54.4847511,12.8365624 54.0152997,12.3922222 53.4195561,11.8344625 L53.274,11.698 L53.3193243,11.7378976 C54.1800211,12.4958058 54.056965,11.7644003 53.3082881,11.653733 L53.234,11.645 L53.2927567,11.6518166 C53.2999548,11.6421562 53.3048035,11.6330595 53.3074793,11.6247487 L53.3091644,11.6023959 C53.341781,11.5415896 53.3746526,11.4701458 53.406801,11.3869022 L53.403,11.394 L53.403,11.393 L53.404,11.392 L53.404,11.391 C53.3759208,11.4020579 53.3468882,11.4174147 53.3196269,11.4328823 L53.2430808,11.4795267 L53.2303524,11.4884553 C53.1747807,11.371842 53.1392118,11.3527038 53.1190516,11.3855028 C53.1045257,11.3701474 53.1013099,11.3879418 53.105072,11.4247174 C53.1002588,11.447377 53.0974817,11.4759554 53.09646,11.507876 L53.095632,11.5522459 C53.0864206,11.5566176 53.0782964,11.5618836 53.0741989,11.568349 C52.8476691,11.5267404 52.3078026,11.5356211 51.8863279,11.7090918 L51.8181818,11.7391088 C52.4565473,11.7391698 52.8323512,11.7121161 53.0215555,11.6780942 C52.8876837,11.8587687 52.9793263,11.9771538 53.1337307,11.8409625 C53.1572434,11.9218853 53.18885,11.9521346 53.220141,11.8528032 C53.2496033,11.9259139 53.2693659,11.9384663 53.2545648,11.8017251 C53.4244825,12.0295022 53.8694627,12.4716518 54.3475999,12.9192851 L54.627466,13.1785465 C54.6741463,13.2213534 54.7206979,13.263832 54.7669011,13.3057925 L54.9042452,13.4299297 L55.0381792,13.549819 C55.0811641,13.588106 55.1233944,13.6255333 55.1646639,13.6619232 C58.2233658,18.36316 60,23.9741024 60,30 C60,32.2996853 59.7412435,34.5389347 59.251257,36.6902217 C58.6944145,36.9066262 58.3796016,37.3763627 58.9052697,38.0533784 C55.3877608,50.7110094 43.7786604,60 30,60 C19.0435841,60 9.45898053,54.1265734 4.22300864,45.3565395 C4.24291189,44.6314177 4.25192357,44.1137558 4.25355592,43.7596648 L4.25358393,43.5468166 C4.24908779,42.6943153 4.18438903,43.2341723 4.14847702,43.9755158 L4.1410066,44.1430915 C4.12590626,44.5136621 4.11911487,44.9108361 4.130761,45.1990713 C1.50520344,40.7414746 0,35.5465168 0,30 C0,24.4140342 1.52669073,19.1846462 4.18557695,14.7063312 C3.68810019,17.2573665 3.94822661,17.9903409 4.24679505,14.6047007 C9.48804445,5.85563175 19.0601942,0 30,0 Z M41.7457684,49.9901205 L42.2727273,50.979021 L42.2140909,50.9535265 C42.1063954,51.0772089 42.5190348,51.0748825 42.2636526,50.9164422 L42.263,50.928 L42.2610314,50.9181728 L42.2431973,50.8174792 C42.2313978,50.7579148 42.2188112,50.6995886 42.2052429,50.6441043 C42.2556874,50.7474559 42.2979968,50.8238678 42.3314124,50.8754197 C42.2446872,50.8821839 42.2442661,50.9065042 42.3981631,50.9590434 C42.4209466,50.9794996 42.4383603,50.9835862 42.449564,50.9735943 C42.5103869,50.9919961 42.5884707,51.013319 42.6861827,51.0378689 L42.6623408,51.0315074 C38.9653952,53.2620939 34.6325701,54.5454545 30,54.5454545 C27.1646515,54.5454545 24.4415876,54.0647064 21.9078753,53.1802768 C21.9033114,52.9234426 21.8905478,52.5355512 21.8679823,51.9829568 L21.8650909,51.9445265 L21.8651548,51.9928997 C21.8608163,51.9991191 21.841159,51.6954712 21.8493897,51.7152749 L21.8530909,51.7385265 L21.8506352,51.7088883 C24.3858492,52.6610384 27.1321073,53.1818182 30,53.1818182 C33.9998087,53.1818182 37.7630201,52.1688245 41.0470781,50.3853932 C41.32208,50.5423984 41.6439028,50.7042033 42.015069,50.8681955 L42.2150909,50.9535265 L41.726723,50.0013231 C41.7330734,49.9975919 41.7394219,49.9938577 41.7457684,49.9901205 Z M13.8590906,11.507065 C14.1411358,11.5519099 14.7136363,11.6293391 15.7024467,11.7503862 C13.8654543,13.1922009 12.2508953,14.9055361 10.9199958,16.8300258 C10.6036162,16.9027552 10.2221745,16.9953321 9.77086365,17.1115547 L9.60309091,17.1545265 L9.56809091,17.1635265 L9.55809091,17.1665265 L9.54545455,17.1700573 C9.97946625,17.1497492 10.4019366,17.1001268 10.7796835,17.038281 C9.67221237,18.6743458 8.76996646,20.459652 8.10751654,22.3574372 C6.34891648,21.4562357 6.63904427,23.5040627 7.50341663,24.3810283 C7.36235762,24.9491656 7.24167015,25.5266117 7.14288796,26.1115022 C6.7217829,26.2423566 6.74991795,26.6362577 7.00148527,27.0780996 C6.88017433,28.0355263 6.81818182,29.0105236 6.81818182,30 C6.81818182,30.366906 6.82670571,30.7318212 6.84356627,31.0945582 L14.0968521,28.8765109 C13.6466785,29.1560776 13.4351133,29.7691301 13.8893758,30.8551822 L12.2373565,31.3625838 C12.229902,31.3089093 12.2261517,31.2999226 12.2252163,31.3233889 L12.2252553,31.3606077 L9.96520163,32.0567417 L11.0121022,39.2029112 L12.0198942,38.8948793 C12.0448419,39.2424323 12.1300701,39.3320628 12.3079128,38.8082015 L15.2111494,37.9191336 L15.022,36.607 L15.0505993,36.6089832 C15.0241334,36.6106269 15.0373664,36.590081 15.045637,36.5944984 L15.05,36.607 L15.0462509,36.5573417 C15.0390256,36.5208315 15.0237148,36.505319 15.0073558,36.5027135 L14.253,31.263 L14.314386,31.243055 C17.1949415,30.271218 16.5145383,29.1060314 15.4295616,28.7785394 L15.3494969,28.7560865 C15.547678,28.7393313 15.735249,28.7209554 15.8938391,28.7022766 L16.0770981,28.6786595 C16.1321544,28.6707988 16.1807258,28.6629825 16.221448,28.6553084 L16.2331878,28.6706964 C16.0483196,28.6891398 16.1256895,28.7046675 16.2567497,28.7129371 C16.2170373,28.9164186 16.2335477,29.1019312 16.386048,28.8150753 C16.4576696,28.8660713 16.4945697,28.8558242 16.5044192,28.8175026 C16.6627616,28.840219 16.9640794,28.8578166 17.4551095,28.8668838 L17.301,28.863 L18.6957414,37.43272 L18.7286325,37.5642781 C18.7877016,37.8693733 18.7230332,38.161351 18.5346271,38.4402114 C18.3193058,38.758909 18.0351635,38.9722137 17.6822001,39.0801254 L12.5369532,40.6536471 C12.5165373,40.406076 12.291846,40.4327062 12.1416662,40.7735297 L9.85267609,41.4746211 C12.498711,46.1105748 16.6987283,49.7449295 21.7433218,51.6682791 L21.7496853,51.7942848 L21.7605153,51.986184 L21.77262,52.1844641 L21.7861861,52.3920962 C21.8049122,52.6696858 21.8255835,52.9411482 21.8446548,53.1563132 C16.1448269,51.1509514 11.408748,47.0988425 8.51734137,41.8825835 L7.86008087,42.0830486 L7.45151257,39.7135395 C6.36907169,37.2041859 5.69325618,34.4782918 5.50708053,31.6188717 L5.39462733,31.5376387 L5.4999929,31.5060449 C5.46984038,31.0078938 5.45454545,30.5057331 5.45454545,30 C5.45454545,22.6797167 8.65904701,16.1078848 13.7417831,11.6107714 Z M12.2727273,51.0507791 C11.3846261,50.8463769 10.7922478,50.6643094 9.54545455,50.9093926 C10.6080041,51.1626519 11.2446942,51.2637562 12.2727273,51.0507791 Z M47.8810788,46.8151687 L47.8434381,46.8556277 C47.8344035,46.14026 47.8295162,45.8281951 47.8274465,45.7529357 L47.826,45.745 L47.8269867,45.9133794 C47.8279288,46.0378059 47.829681,46.2120231 47.8318485,46.3865539 L47.8335457,46.5167377 C47.8352965,46.6445587 47.8372228,46.7656903 47.8391614,46.8596825 C46.3681861,48.415524 44.6957634,49.7791491 42.8636683,50.9087114 C42.7203188,50.8917107 42.582937,50.8799361 42.4784698,50.8770331 C42.4900823,50.6114281 42.3249199,49.9057819 42.2002299,49.715612 C44.2350814,48.453573 46.0600885,46.8854876 47.6109157,45.0755442 C47.6109907,45.2949769 47.6113139,45.5145082 47.611702,45.7342657 C47.8071477,45.4329442 47.8932056,45.1324697 47.8177745,44.8324056 C48.8739359,43.5634927 49.7985343,42.1797407 50.568691,40.7026512 L50.660385,40.705181 C51.251688,40.721621 51.7338392,40.7053894 52.112082,40.671101 C51.0164752,42.9342704 49.5847974,45.0041429 47.8810788,46.8151687 Z M53.281614,28.814176 C53.4115319,28.8351316 53.6566043,28.8457031 53.9468091,28.8476193 L54.2182884,28.8470536 L54.3122368,28.8458748 L54.5027956,28.8420941 L54.5186489,28.8426062 C54.5364535,29.2261702 54.5454545,29.6120339 54.5454545,30 C54.5454545,33.6762518 53.7372613,37.1637399 52.288857,40.2944823 C51.8736892,40.3395977 51.3195861,40.4455784 50.6378363,40.6437119 L50.5927408,40.6563987 C52.030107,37.8844284 52.9242067,34.7853914 53.1340499,31.500278 C53.1785666,31.4977321 53.1943467,31.4859162 53.1711263,31.4623933 L53.1818182,31.4607268 C53.1669955,31.4497545 53.1522111,31.4390412 53.1374444,31.4285893 C53.1448857,31.3239981 53.1506469,31.2173663 53.1556852,31.1105452 L53.171,31.202 L53.1694651,31.1846988 C53.1538639,31.0640691 53.1859063,31.1125608 53.1929484,31.2168267 L53.1942241,31.2645964 L53.194,31.273 L53.2144882,31.0598751 C53.3212592,29.8397026 53.3263616,29.1619416 53.2895232,28.8679124 Z M9.6001955,38.3060159 C9.55178634,37.5198741 9.50591083,37.9350346 9.4890009,38.4247934 L9.48427846,38.5989123 C9.48370619,38.6278369 9.4832449,38.6565609 9.48289998,38.684855 L9.48308288,38.9217037 L9.48269162,38.9461113 C9.4138613,38.9199334 9.38563229,38.990138 9.38727324,39.0853545 C9.01106197,39.0985889 8.55433727,38.907505 8.18181818,39.1697707 C8.66826156,39.318057 9.0681765,39.4203595 9.39708075,39.1909572 C9.43220865,39.3727276 9.5460657,39.5446206 9.66856957,39.2800004 L9.684,39.237 L9.67543618,39.2512358 C9.66216263,39.2595889 9.67165447,39.1881294 9.68984675,39.180423 L9.70490253,39.1888401 L9.63775793,39.0924302 L9.62541043,39.0763242 C9.59741836,39.0404528 9.57222737,39.012621 9.55097497,38.9956608 C9.56302576,38.9092454 9.57686016,38.7890181 9.59263121,38.6284555 L9.601,38.527 L9.59740084,38.5531259 C9.58851686,38.5919259 9.59127944,38.4365231 9.59760621,38.3952403 L9.60509091,38.4065265 Z M55.9690478,39.1783217 C59.9787404,35.7649974 58.6309815,36.2820672 57.2926135,37.400714 L57.1544152,37.5184456 L57.0857538,37.5786649 L56.947896,37.7033639 C56.3798247,38.2283447 55.9029959,38.8133744 55.9690478,39.1783217 Z M32.715,23.279 L32.72,23.278 C32.6125604,23.2795006 32.4922351,23.2842238 32.3687025,23.291043 L37.9698448,21.5783953 L38.3288182,22.3635841 C36.5111586,23.2020447 36.2494872,25.9470241 38.0052618,24.1650808 C38.0305325,24.3023295 38.0729744,24.4190039 38.1387307,24.5173725 C38.1358805,24.5795637 38.1339771,24.63316 38.1333277,24.6736589 L38.1337923,24.7358595 C38.1364976,24.7849403 38.1471466,24.746371 38.1696439,24.5629539 C38.2266413,24.6372349 38.2982341,24.7008263 38.3870469,24.7552448 C38.3999841,24.3939314 38.3421875,24.1439189 38.239449,23.9151164 C38.3964731,23.7379022 38.5670155,23.52885 38.7513259,23.2844828 L40.2953713,26.6468511 C39.9199283,26.8549897 39.6199511,27.1060029 39.5454545,27.3776224 C39.8930302,27.2527224 40.2012406,27.137946 40.473411,27.0328055 L40.6830892,27.4925848 C39.9603036,28.1615286 39.6325487,28.5085454 39.561072,28.6337901 C39.5459594,28.6368965 39.5414676,28.6405882 39.5505872,28.644881 C39.4804495,28.6530933 39.406258,28.7876032 39.612993,28.7080831 C39.5986832,28.7136025 39.5934299,28.6952163 39.592932,28.682086 L39.6025005,28.6784934 L39.606,28.688 L39.6047381,28.6775937 C39.6093073,28.6757358 39.6141228,28.6736532 39.6190826,28.6713389 L39.6342927,28.6636941 C39.7439726,28.6801733 39.9611305,28.7019807 40.3181578,28.7301608 C40.3726657,28.7344606 40.4283031,28.7387485 40.4870733,28.7431777 L40.556,28.748 L40.5020039,28.7432477 C40.4197915,28.7357885 40.3849851,28.7305285 40.3835135,28.7270191 L40.421455,28.7221789 C40.4682523,28.7204595 40.5532788,28.7210602 40.6480276,28.7230722 L40.7815965,28.7266374 C41.0947521,28.7366212 41.3736358,28.7568323 40.6787806,28.7573193 L40.8684501,28.7570463 C41.0128131,28.756719 41.1443092,28.7561306 41.2637073,28.7553061 L42.5165652,31.4874981 L39.3764082,32.4475404 L38.183,29.818 C38.2834176,29.3423222 38.3195765,29.0430288 38.3190552,28.8730358 L38.3171922,28.8152639 C39.0835033,28.857632 39.4373964,28.8767007 39.5238423,28.8808112 L39.5356332,28.8808529 C39.4559215,28.8753739 38.9029597,28.8435664 38.31718,28.8099672 C38.3133363,28.756706 38.3044399,28.7223748 38.2921033,28.7043196 L38.3078505,28.6938633 L38.2507529,28.6448421 C38.0308944,28.4886363 37.9757663,28.8440304 38.1966121,28.7576868 C38.1889317,28.770956 38.1811889,28.7859617 38.1735542,28.8027463 C38.1682479,28.8024504 38.1629417,28.8021547 38.1576361,28.8018591 L37.8968484,28.7873915 C37.3818455,28.7589539 36.9236017,28.7344984 36.8339765,28.7319684 L36.8180909,28.7315265 L37.0734048,28.7461888 C37.503753,28.7701664 37.8677507,28.7903865 38.1716133,28.806594 C38.0824147,29.0015842 37.9989773,29.4062674 38.0726215,29.7715705 L33.7700863,31.0872313 L33.4064584,34.2727372 L30.7383681,35.0884543 L26.8861987,36.2661807 L22.2031807,33.4856864 L22.5676416,35.7431734 C22.3998056,35.8280241 22.2198939,35.9252563 22.0273928,36.0360098 L21.8540909,36.1375265 L21.8181818,36.1587752 L21.9383746,36.2335475 C22.1996191,36.3871669 22.4537949,36.4790417 22.6941018,36.5230955 L22.7039963,36.5935238 C21.3554353,36.8374106 21.6969989,36.897546 22.7252596,36.7172354 L22.851462,37.4997235 L19.3461704,38.5713987 L17.67,28.835 L17.6900024,28.8322368 C19.1671864,28.6110315 19.2940626,28.5245058 18.8977782,28.5122822 L18.8455777,28.5111368 L18.7208931,28.511122 C18.5189183,28.5134155 18.2533305,28.5258629 17.9734313,28.5448656 L17.7537053,28.5609045 L17.624,28.571 L17.6222643,28.5578767 L17.202,28.256 L17.151,27.943 L21.7237186,26.5451351 C21.7240412,26.5565468 21.7243933,26.5680357 21.7247745,26.5795867 L21.729359,26.6931275 L21.7380516,26.8451982 C21.7699323,27.321186 21.8414688,27.7073174 21.9039969,26.950663 L21.912,26.83 C21.9067044,26.8663798 21.9006171,26.8396088 21.896209,26.8035429 L21.8932612,26.7755004 C22.516684,27.2271675 23.3062423,26.9781396 24.2763827,27.2805377 L24.3250909,27.2985265 L24.313852,27.4680021 C24.3121147,27.4962602 24.3104767,27.5244621 24.3089408,27.552555 L24.302,27.673 L21.2869806,28.5953265 L21.8316536,31.6828059 L25.7020798,30.4994978 L25.13915,27.4176001 L24.7020348,27.5519324 C24.7222294,27.4458226 24.7432843,27.331182 24.7652237,27.207566 L24.786,27.083 L24.781841,27.1058655 C24.7182176,27.4088893 24.7426927,26.8149463 24.7797179,26.9118359 L24.789192,26.9513695 L24.7789644,26.8514481 C24.6090631,25.4602356 24.430112,26.1637055 24.3451079,27.0738415 C23.9120031,26.431691 23.6209927,26.116354 23.2719379,26.0719286 L28.2729146,24.5430443 L28.7024755,27.1185097 C28.0731077,27.625536 27.4330377,28.1926664 27.2969127,28.5864182 L27.283,28.638 C27.1781022,28.5520802 27.1801059,28.8164707 27.2920802,28.7457072 L27.3392305,28.7021245 L27.3273499,28.7091786 C27.3223593,28.7072458 27.3230355,28.6954205 27.3282192,28.6939747 L27.337,28.699 L27.3292896,28.6875429 C28.1115118,28.6651058 28.5724529,28.4455415 28.8732406,28.134932 L29.1866717,30.0130841 L29.2178031,30.1414372 C29.2409945,30.2703462 29.2403656,30.4009232 29.2159165,30.5331681 C29.1833177,30.7094946 29.1168219,30.872894 29.0164291,31.0233664 C28.9160363,31.1738388 28.7929873,31.3046203 28.6472822,31.4157108 C28.5015772,31.5268014 28.337441,31.6102549 28.1548737,31.6660713 L25.8727828,32.3637765 L30.454,34.929 L31.4624253,24.1268828 L30.7766943,23.7775621 L32.140922,23.3606583 C32.3227078,23.335225 32.5179315,23.3075172 32.7272727,23.2773893 L32.586,23.297 L32.4811713,23.3127674 C32.467499,23.3147328 32.4542539,23.3166369 32.4417566,23.3184334 L32.42,23.321 L32.4494473,23.3173278 C32.489396,23.311585 32.5425898,23.3039382 32.6115922,23.2940188 L32.713,23.279 L32.717,23.278 L32.715,23.279 Z M24.6805209,32.2424677 C24.6618769,31.1751804 24.5471185,30.4754583 24.4187787,33.3233333 L24.4120909,33.4615265 L24.4154739,33.4196619 C24.4197749,33.3507259 24.4223928,33.3466753 24.4234347,33.3717552 L24.4231642,33.4622591 C24.4215864,33.523089 24.4176711,33.5875356 24.4080909,33.5795265 L24.4275489,33.661251 C24.5825887,34.2913129 24.6569538,33.727107 24.6772552,32.9939572 L24.6812196,32.8077434 C24.6831322,32.6820456 24.6836046,32.5540284 24.68276,32.4284385 Z M19.2840857,32.6181165 C23.0704682,32.7508262 22.2413974,29.719547 19.2426435,32.4665939 L19.0909091,32.6088029 Z M27.2727273,31.5086252 C25.2347167,30.7902353 25.8846177,31.2074469 26.6420963,31.4145971 L26.7763606,31.4486986 C26.9330795,31.4853005 27.0879247,31.5096432 27.2183778,31.5099832 L27.2610909,31.5085265 L27.2490909,31.5095265 Z M30,5.45454545 C35.6529848,5.45454545 40.859632,7.36554394 45.0091673,10.5767666 C45.0209672,10.821618 45.0457208,11.0993219 45.0852881,11.4135944 L45.103,11.541 L45.1021586,11.5270127 C45.0292985,10.7465391 45.5524867,11.4913351 45.2294524,11.6239581 L45.1773923,11.638509 L45.1159608,11.6433566 C45.5213188,11.6433566 45.8099987,11.547722 46.0068536,11.392979 C48.0411659,13.1428598 49.7851133,15.222226 51.1566649,17.5474475 L52.0339355,17.277999 C51.4021919,17.9502789 52.2774413,19.0712511 53.1187911,17.0459964 L53.1355177,17.0048871 C53.1438812,17.0038084 53.15121,17.0025463 53.1574176,17.0010931 L52.8073428,20.910147 C53.7579719,23.2932666 54.3459058,25.8603507 54.5029383,28.5431933 C53.8683642,28.6145512 53.4986372,28.6712452 53.3189549,28.7155731 C53.2981779,28.7105069 53.2783169,28.7058095 53.2594551,28.7014731 L53.2544969,28.6773914 C53.224301,28.5769256 53.1646187,28.595413 53.1272629,28.6421043 L53.1419024,28.6282075 C53.1148848,28.1652356 53.0742803,27.7059122 53.020482,27.2506303 C53.1359322,26.9492577 53.1902225,26.6232956 53.1807649,26.2678938 L53.1710909,26.1235265 L53.1869619,26.1188193 C53.246246,26.2439389 53.2730408,26.225796 53.2305307,26.1260997 L53.2996075,26.1348545 C53.5926117,26.1696167 53.4271737,26.1054169 53.2286119,26.0512761 L53.2231927,26.0381926 C53.2064184,26.0053991 53.1862245,26.0007309 53.1699313,26.0117287 C53.1535439,25.9851576 53.1344206,25.9564705 53.1123316,25.9260526 L53.113,25.928 L53.1265265,25.9678669 L53.1402281,26.0059834 L53.1468718,26.0300292 C52.9339151,25.9773609 52.7490333,25.9529813 53.1079306,26.0890801 L53.114,26.091 L52.9487618,26.1766287 C52.9226498,26.1910188 52.8972785,26.2055287 52.8726259,26.2201542 C52.7731691,25.5980287 52.6464022,24.9843441 52.4959227,24.380037 L52.2827901,26.7502031 C52.0813937,27.0469983 52.0282874,27.3654722 51.9984848,27.6820393 L51.9789729,27.9136042 C51.9568217,28.1825592 51.92935,28.4458915 51.8181818,28.6888112 L51.838,28.637 L50.004368,29.1974264 C49.5785825,28.2956873 49.0493634,28.7219818 49.0934969,29.4765599 L48.963798,29.5163812 L48.664798,28.871682 C49.4495364,28.7988651 49.0065657,28.4967961 48.4850507,28.4903747 L46.7,24.659 L46.152262,30.375954 L42.9938482,31.341578 L41.8395428,28.7477565 C42.521362,28.7324367 42.3117057,28.701353 41.8064577,28.6737189 L41.235,27.39 L41.3258357,27.3056365 C41.7232437,26.9257115 42.0684466,26.5434906 42.2078689,26.2703289 L42.2502064,26.1732229 C42.2722,26.1453563 42.2775722,26.1232298 42.2678094,26.1065847 C42.2704164,26.0926625 42.2720686,26.0792695 42.2727273,26.0664336 L42.2484018,26.0875071 C42.1136115,26.0114504 41.4411903,26.1464865 40.7986167,26.4083789 L39.1571902,22.7203989 C39.2363946,22.6055335 39.317708,22.4849589 39.4011453,22.3584705 L39.434,22.306 L39.3552996,22.4223279 C39.2803872,22.5304864 39.2118239,22.6240483 39.149333,22.7044131 L38.9958148,22.3570633 C39.1293226,22.2359435 39.2928162,22.1467782 39.4769286,22.1369951 L39.5454545,22.1370581 C39.3229892,22.1248568 39.1131472,22.1396902 38.9162968,22.1764249 L38.7174895,21.7291182 L38.2645605,21.4882916 L41.5872849,20.4724328 L44.0423963,26.6091361 L44.504872,19.9597378 L47.316408,19.100165 L47.466,19.473 L47.466,19.474 L49.6472116,24.8955721 L50.1364953,18.5064275 C46.1422876,11.5237234 38.6206629,6.81818182 30,6.81818182 C29.1602761,6.81818182 28.3309804,6.86282974 27.5143571,6.94988117 C27.4798479,6.62602734 27.4071562,6.18526493 27.2831874,5.60588723 C28.1748649,5.50499113 29.0815413,5.45454545 30,5.45454545 Z M27.4527659,29.9875925 C27.5833875,25.6227613 26.5915995,33.9570505 27.40319,30.4041932 L27.435,30.261 C27.4011332,30.3813503 27.4358169,30.0802856 27.4446203,30.1202563 L27.4465294,30.1527018 L27.446,30.16 Z M35.6941464,24.1906139 L34.4709457,24.5645839 L33.946261,29.1169014 L36.1630327,28.4390285 C36.3885294,28.5637952 36.6453787,28.6495019 36.8985231,28.6782243 L36.892,28.682 C37.7626176,28.7757539 38.5820904,28.210432 37.9683529,26.2718991 L37.903,26.079 L37.9183553,26.1353418 C38.0441122,26.8145485 36.1402268,26.4641899 37.5917901,26.1281596 L37.722,26.099 L37.6810732,26.1070622 C37.2919933,26.1837012 36.9628942,26.2726902 36.6870547,26.370593 L35.6941464,24.1906139 Z M32.80865,28.5353398 C32.8334682,28.4610584 32.8208713,28.4747567 32.7917861,28.5262999 C32.668295,28.4507904 32.6075527,28.4950262 32.5889577,28.5746253 C32.5120532,28.5727404 32.4762549,28.6043848 32.5635433,28.6979531 C32.3630094,28.8066106 32.4525083,28.8065817 32.6023054,28.7692657 C32.6132393,28.8025036 32.6279309,28.8322442 32.6443101,28.8543165 C32.6291616,28.8941734 32.6267654,28.9093252 32.6485001,28.8746657 L32.6550662,28.8650797 C32.6967747,28.9075365 32.7509976,28.9032749 32.8062549,28.7951843 C32.9741482,28.7749157 32.9654617,28.7218599 32.892335,28.6738241 C33.0400206,28.6123623 33.0924041,28.5581917 32.75773,28.6015888 L32.766,28.6 L32.8516216,28.5904772 C32.8536886,28.5860606 32.8564848,28.5828199 32.8600856,28.5818034 L32.873377,28.5864751 Z M53.2559428,23.4749061 C53.2559428,23.238631 53.1747912,23.3218837 53.1300817,23.4257091 C53.1128149,23.4408931 53.1087666,23.4555443 53.1140586,23.4686469 C52.8811627,23.5718706 52.4794139,23.9098664 52.0577101,24.3094513 L51.9240508,24.4374813 C51.3029678,25.0386211 50.6727088,25.732685 50.4928412,25.9714523 C50.2641986,25.8152655 50.3091982,25.9790411 50.3982453,26.1071544 C49.4490544,26.8385962 49.4427541,26.871144 49.0909091,28.6888112 C49.8597047,28.3500151 50.5075701,27.8130891 50.4511128,26.0664336 L50.4528429,26.1721403 C50.5315258,26.2527794 50.6110561,26.2668444 50.5739302,26.0314503 L50.5489532,26.0135069 C50.7273033,25.876856 51.1731484,25.4630355 52.0103886,24.6279373 L52.3063635,24.3315304 C52.5137158,24.1231038 52.741371,23.8927639 52.9907185,23.6388948 L53.1079938,23.5176946 C53.1040117,23.5777974 53.1389275,23.5995549 53.2559428,23.4749061 Z M40.811,27.772 L41.2135037,28.6475375 L41.0605121,28.642246 L40.9685767,28.6393005 L40.7443701,28.6328416 C40.3218858,28.6216502 39.9208074,28.6166731 39.7071214,28.6239183 C39.9502885,28.4787455 40.4332281,28.106948 40.9151808,27.6820501 L40.811,27.772 Z M16.881,28.026 L17.202,28.256 L17.2581063,28.6054247 C17.1618286,28.6153228 17.0691804,28.6256842 16.9825146,28.6363576 C16.802212,28.6280527 16.6278304,28.6235409 16.5103831,28.6253448 L16.4700909,28.6265265 L16.476,28.61 L16.4719255,28.6196168 C16.4564569,28.6430998 16.4615596,28.5990917 16.4726056,28.5812193 L16.4850909,28.5755265 L16.4699663,28.5134099 C16.4171226,28.350192 16.3527988,28.413818 16.3056484,28.5358872 C16.2961411,28.5404224 16.2866006,28.5469443 16.2770991,28.5556967 L16.2580909,28.5775265 L16.1997668,28.5717047 C16.0851932,28.5616348 15.9053032,28.5542501 15.6459607,28.5505646 C15.8640604,28.4889227 16.102832,28.4052029 16.3636364,28.2965221 L16.337,28.192 L16.881,28.026 Z M41.8512121,26.4381722 C41.5751577,26.6827751 41.328298,26.903944 41.1083775,27.1033069 L40.9879027,26.8281578 C41.3670691,26.6722797 41.6494537,26.5430745 41.8512121,26.4381722 Z M48.5871366,23.4440559 L48.5195766,23.5288986 C48.0385344,24.1976233 49.5469994,23.9189361 48.5871366,23.4440559 Z M33.6770565,23.2026567 C31.8802626,23.1334946 32.9875585,23.3966966 34.0930118,23.5653741 L34.3132169,23.5977228 C35.4419191,23.7570389 36.3617946,23.7850356 33.8665238,23.2106966 Z M9.68190917,11.6917144 L9.682,11.679 L9.682,11.66 L9.683,11.658 L9.683,11.651 L9.6529761,11.8189472 C9.65142184,11.8281348 9.64987628,11.837299 9.64833936,11.8464393 C9.6130289,11.8839382 9.57837022,11.9229881 9.54382217,11.9621379 C9.54407201,11.8810311 9.52461073,11.8127369 9.48919456,11.7592972 C9.49832285,11.7442239 9.50699949,11.729807 9.51524061,11.716026 L9.52811342,11.7064345 L9.61009091,11.6405265 L9.65802811,11.5739202 C9.71513073,11.4847545 9.69154667,11.4869843 9.64034566,11.5264779 L9.611,11.549 L9.6349832,11.5025414 C9.68485765,11.3988032 9.61314882,11.4815321 9.54005568,11.5972114 L9.51281562,11.6418359 L9.49161039,11.6650937 C9.47485853,11.6826769 9.45921038,11.6998106 9.44687859,11.7146711 C9.42141109,11.6922001 9.39125824,11.6746941 9.35557775,11.6618461 C9.33998624,11.6392918 9.33138305,11.6382096 9.32861028,11.6543054 C8.92155,11.5532671 7.98740976,12.1354546 6.92245999,14.0724743 L6.886,14.137 L6.882,14.145 L6.881,14.146 L6.88,14.149 L6.878,14.153 L6.877,14.154 L6.88,14.149 L6.878,14.153 L6.877,14.154 L6.86520096,14.1769664 L6.842,14.22 L6.841,14.221 L6.84,14.224 L6.838,14.227 L6.837,14.229 L6.82988436,14.2436409 L6.81818182,14.2657343 C7.38358274,14.0544211 7.84863489,13.8189453 8.2244927,13.5782103 C4.77331247,18.1464488 2.72727273,23.8342853 2.72727273,30 C2.72727273,32.9467492 3.1946134,35.7843452 4.05921994,38.4427132 C4.00859409,38.6615846 3.96094302,38.9233433 3.9370217,39.1783217 L3.94,39.149 L3.939,39.157 L3.939,39.161 L3.938,39.165 L3.938,39.173 L3.98981894,38.9859191 C4.00642928,38.9247657 4.0220547,38.8665911 4.03670667,38.8113884 L4.077,38.655 L4.07653607,38.7815359 C4.07618603,38.8206198 4.07589076,38.8565446 4.0756471,38.8894277 L4.07506773,38.9790695 L4.074,39.086 L4.07134512,39.1001651 L4.06811926,39.1166514 C3.97811318,39.1804222 3.90344624,39.2984394 4.02758576,39.2758527 L4.04378404,39.272354 L4.06214527,39.267234 C4.06443469,39.2919909 4.06846696,39.3173593 4.07467541,39.3427404 L4.074,39.341 L4.08495854,39.2972119 L4.09179943,39.2576065 C4.12551644,39.2455212 4.16682753,39.2277572 4.21687447,39.2031018 L4.19767909,39.2069573 C4.18356621,39.2003827 4.21028742,39.1554963 4.21676567,39.1748956 L4.216,39.188 L4.21913509,39.1471404 C4.21677603,39.1160392 4.20712912,39.0968789 4.19286082,39.0868275 L4.16832562,39.0782281 L4.13885817,39.0811682 L4.12086832,39.0862723 C4.1280967,38.9879678 4.10117722,38.9992422 4.0810848,39.0649915 L4.081,39.063 L4.0828334,38.9976182 C4.08466141,38.9232536 4.08673403,38.8284217 4.08910893,38.7176824 L4.09158672,38.6018094 C4.09467844,38.5897751 4.09771625,38.5779084 4.10070075,38.566208 C6.20886601,44.9457105 10.6079027,50.2814627 16.3231917,53.6006797 C16.3599962,53.8048564 16.433287,54.0101258 16.4234261,53.5781255 L16.4241868,53.6590449 C20.4219279,55.9579436 25.0574219,57.2727273 30,57.2727273 C45.0623114,57.2727273 57.2727273,45.0623114 57.2727273,30 C57.2727273,29.5710442 57.2628241,29.1444015 57.2432341,28.7202879 C57.7275694,28.7501526 58.0720459,28.7637522 58.2974642,28.7662094 L58.4286757,28.7662771 C58.9247793,28.7601124 58.4903295,28.6732045 57.5810033,28.6306921 C58.0679292,27.9689223 58.384263,27.7267816 58.5343457,27.6466645 L58.5550909,27.6355265 L58.5190453,27.6362326 C58.3137941,27.6315784 57.8403948,27.4931403 57.1080785,26.6731312 L57.2663877,26.697154 C59.3822466,26.9912272 58.3287686,25.705643 57.0045852,26.167732 C56.4637343,22.314098 55.1162703,18.7186101 53.1389909,15.5574217 L53.162282,15.4231011 L53.1791763,15.2519813 C53.2467866,15.6247965 53.3157071,15.804361 53.2853294,15.0759223 L53.2780909,14.9295265 L53.2774157,14.9085871 L53.2387728,14.7451698 C53.0406063,13.9274399 53.0482548,14.303467 53.1093371,14.7828584 C53.00111,14.5394379 52.7591205,14.3636982 52.3012861,14.2961861 C51.2928099,12.8675575 50.1502207,11.539096 48.8918858,10.3302214 L48.8972252,10.3100856 C48.9054133,10.2804613 48.913399,10.250852 48.9211708,10.2213182 L48.965144,10.0455063 L48.9993884,9.89352495 C49.1846704,9.02507125 49.1245573,8.44678627 48.4818568,9.94453152 C43.6224189,5.46395273 37.1308024,2.72727273 30,2.72727273 L29.957,2.727 L29.9568951,2.71035728 L29.9540909,2.68252647 L29.9530909,2.66952647 L29.9520909,2.65452647 L29.9516535,2.63199043 L29.950742,2.61836141 L29.9483206,2.58215933 L29.9468963,2.56086399 L29.9450909,2.54652647 L29.9430909,2.51452647 L29.9420909,2.48852647 L29.94,2.474 L29.9432533,2.65515905 C29.9436397,2.67978817 29.9440342,2.70423832 29.9444367,2.7285091 L30,2.72727273 C26.5401984,2.72727273 23.2308678,3.37151557 20.1854272,4.54658224 C19.9832627,4.35069259 19.6510471,4.09526271 19.1452988,3.77622378 L19.1949761,3.81317762 C19.3871455,3.98205922 19.2866807,4.25631539 19.1920681,4.31018851 L19.1800909,4.31452647 L19.1847609,4.32743628 C19.2617958,4.51813411 19.3995206,4.67752985 19.5569172,4.80000746 C19.4213201,4.85440966 19.2863082,4.91170949 19.1518586,4.97006089 L19.0909091,4.97258638 C19.1040631,4.97526381 19.1170956,4.97800694 19.1300148,4.9808091 C18.1783754,5.39365647 17.2569636,5.85930147 16.3673095,6.37375363 C16.3851178,6.32706986 16.4043305,6.2031994 16.4254842,5.97372233 L16.4370909,5.83652647 L16.43826,5.82494729 L16.4213632,5.651592 C16.4014856,5.45685404 16.3840632,5.31999993 16.3680281,5.23517754 C16.3833,5.19624489 16.4017134,5.14345291 16.4237048,5.07415288 L16.4140087,5.09927886 C16.4030863,5.11701056 16.4162309,5.02804237 16.421612,5.04274474 L16.423,5.066 L16.4221812,4.97581529 C16.4129799,4.73925608 16.3643892,4.87372513 16.3322865,5.03891938 L16.3232062,5.08905911 C16.3029761,5.10711129 16.2922305,5.27150018 16.289637,5.47808113 L16.2891996,5.63930058 C16.2912636,5.96552328 16.3103389,6.32689511 16.34215,6.38921095 C13.8424472,7.83734451 11.5939699,9.67204239 9.67822587,11.8109591 L9.68,11.738 L9.68,11.724 L9.681,11.721 L9.681,11.695 L9.682,11.691 L9.681,11.692 Z M14.7032719,10.805034 C15.2502407,11.2585627 15.640995,11.5023306 15.9054413,11.5966327 L15.7837318,11.6883014 C15.5740313,11.655136 15.3269637,11.6216666 15.0764639,11.5908683 L14.8217774,11.5605755 C14.4664297,11.5196843 14.1275368,11.486292 13.9038165,11.469053 C14.1342355,11.2683538 14.3683282,11.0723503 14.6060694,10.8806903 Z M7.01212249,11.6104917 C8.54654192,12.0085421 11.9499432,8.602187 6.81818182,11.5332294 L6.829,11.527 L6.92219294,11.4781512 C7.44062079,11.2267176 7.42026422,11.6102702 7.10890243,11.6176543 L7.04282342,11.613816 L6.97809091,11.5995265 Z M27.034325,5.63188303 L27.0293264,5.66791134 C26.969556,6.14034422 27.0189633,6.6214019 27.1068106,6.9978319 C23.1194295,7.493243 19.4456731,9.00268505 16.3519671,11.2595948 C16.2969333,10.9345167 16.0408275,10.4572406 15.6954516,10.052674 C18.9652138,7.70239788 22.8367285,6.13741027 27.034325,5.63188303 Z M40.7777766,2.62334865 C39.2804323,1.64319131 39.0037471,2.73055592 40.7540795,2.71647741 L40.7940909,2.71452647 L40.7045658,2.71335343 C40.2560523,2.69299902 40.5518368,2.51263765 40.8527834,2.67743225 L40.906,2.71 Z M32.7272727,2.66890604 C32.0340487,2.2283944 31.0163907,2.24893432 30,2.2676795 C30.6292244,2.52173646 31.3851808,2.6862553 32.7272727,2.66890604 Z" id="Combined-Shape"></path>
            </g>
        </g>
    </g>
</svg>