<?xml version="1.0" encoding="UTF-8"?>
<svg width="100%" height="100%" viewBox="0 0 60 60" version="1.1" xmlns="http://www.w3.org/2000/svg" xmlns:xlink="http://www.w3.org/1999/xlink">
    <title>AEC4B989-109C-4D8D-AC0D-68A4CC6CE378</title>
    <g id="Page-1" stroke="none" stroke-width="1" fill="none" fill-rule="evenodd" opacity="0.150319417">
        <g id="UiKit_Icons" transform="translate(-655.000000, -3076.000000)" fill="#4C9EEA">
            <g id="Group" transform="translate(655.000000, 3076.000000)">
                <path d="M30,0 C36.6114687,0 42.7234166,2.13870271 47.6817487,5.76201317 C47.656769,5.90986276 47.6332064,6.07215282 47.6117336,6.23792137 L47.5834786,6.46848141 C47.5761579,6.53179917 47.5692245,6.59489902 47.562749,6.65718809 L47.5447669,6.84103009 C47.4624309,7.74214979 47.4990085,8.3274501 47.8927741,6.59602253 L47.922,6.46 L47.9077387,6.50918422 C47.8568909,6.65418839 47.925697,6.0486991 47.9402678,6.22293031 L47.94268,6.28361783 L47.942,6.3 L47.9450112,6.15736158 C47.945616,6.0838047 47.9458569,6.01459382 47.9457538,5.94956468 C50.6290723,7.96332189 52.9649864,10.4076485 54.8477202,13.1842359 C54.4847511,12.8365624 54.0152997,12.3922222 53.4195561,11.8344625 L53.274,11.698 L53.3193243,11.7378976 C54.1800211,12.4958058 54.056965,11.7644003 53.3082881,11.653733 L53.234,11.645 L53.2927567,11.6518166 C53.2999548,11.6421562 53.3048035,11.6330595 53.3074793,11.6247487 L53.3091644,11.6023959 C53.341781,11.5415896 53.3746526,11.4701458 53.406801,11.3869022 L53.402,11.396 L53.404,11.392 L53.404,11.391 C53.3759208,11.4020579 53.3468882,11.4174147 53.3196269,11.4328823 L53.2430808,11.4795267 L53.2303524,11.4884553 C53.1747807,11.371842 53.1392118,11.3527038 53.1190516,11.3855028 C53.1045257,11.3701474 53.1013099,11.3879418 53.105072,11.4247174 C53.1002588,11.447377 53.0974817,11.4759554 53.09646,11.507876 L53.095632,11.5522459 C53.0864206,11.5566176 53.0782964,11.5618836 53.0741989,11.568349 C52.8476691,11.5267404 52.3078026,11.5356211 51.8863279,11.7090918 L51.8181818,11.7391088 C52.4565473,11.7391698 52.8323512,11.7121161 53.0215555,11.6780942 C52.8876837,11.8587687 52.9793263,11.9771538 53.1337307,11.8409625 C53.1572434,11.9218853 53.18885,11.9521346 53.220141,11.8528032 C53.2496033,11.9259139 53.2693659,11.9384663 53.2545648,11.8017251 C53.4244825,12.0295022 53.8694627,12.4716518 54.3475999,12.9192851 L54.627466,13.1785465 C54.6741463,13.2213534 54.7206979,13.263832 54.7669011,13.3057925 L54.9042452,13.4299297 L55.0381792,13.549819 C55.0811641,13.588106 55.1233944,13.6255333 55.1646639,13.6619232 C58.2233658,18.36316 60,23.9741024 60,30 C60,32.2996853 59.7412435,34.5389347 59.251257,36.6902217 C58.6944145,36.9066262 58.3796016,37.3763627 58.9052697,38.0533784 C55.3877608,50.7110094 43.7786604,60 30,60 C19.0435841,60 9.45898053,54.1265734 4.22300864,45.3565395 C4.24291189,44.6314177 4.25192357,44.1137558 4.25355592,43.7596648 L4.25358393,43.5468166 C4.24908779,42.6943153 4.18438903,43.2341723 4.14847702,43.9755158 L4.1410066,44.1430915 C4.12590626,44.5136621 4.11911487,44.9108361 4.130761,45.1990713 C1.50520344,40.7414746 0,35.5465168 0,30 C0,24.4140342 1.52669073,19.1846462 4.18557695,14.7063312 C3.68810019,17.2573665 3.94822661,17.9903409 4.24679505,14.6047007 C9.48804445,5.85563175 19.0601942,0 30,0 Z M3.938,39.165 L3.938,39.173 L3.98981894,38.9859191 C4.00642928,38.9247657 4.0220547,38.8665911 4.03670667,38.8113884 L4.077,38.655 L4.07653607,38.7815359 C4.07618603,38.8206198 4.07589076,38.8565446 4.0756471,38.8894277 L4.07506773,38.9790695 L4.074,39.086 L4.07134512,39.1001651 L4.06811926,39.1166514 C3.97811318,39.1804222 3.90344624,39.2984394 4.02758576,39.2758527 L4.04378404,39.272354 L4.06214527,39.267234 C4.06443469,39.2919909 4.06846696,39.3173593 4.07467541,39.3427404 L4.074,39.341 L4.08495854,39.2972119 L4.09179943,39.2576065 C4.12551644,39.2455212 4.16682753,39.2277572 4.21687447,39.2031018 L4.19767909,39.2069573 C4.18356621,39.2003827 4.21028742,39.1554963 4.21676567,39.1748956 L4.216,39.188 L4.21913509,39.1471404 C4.21677603,39.1160392 4.20712912,39.0968789 4.19286082,39.0868275 L4.16832562,39.0782281 L4.13885817,39.0811682 L4.12086832,39.0862723 C4.1280967,38.9879678 4.10117722,38.9992422 4.0810848,39.0649915 L4.081,39.063 L4.0828334,38.9976182 C4.08466141,38.9232536 4.08673403,38.8284217 4.08910893,38.7176824 L4.09158672,38.6018094 C4.09467844,38.5897751 4.09771625,38.5779084 4.10070075,38.566208 C6.20886601,44.9457105 10.6079027,50.2814627 16.3231917,53.6006797 C16.3599962,53.8048564 16.433287,54.0101258 16.4234261,53.5781255 L16.4241868,53.6590449 C20.4219279,55.9579436 25.0574219,57.2727273 30,57.2727273 C45.0623114,57.2727273 57.2727273,45.0623114 57.2727273,30 C57.2727273,29.5710442 57.2628241,29.1444015 57.2432341,28.7202879 C57.7275694,28.7501526 58.0720459,28.7637522 58.2974642,28.7662094 L58.4286757,28.7662771 C58.9247793,28.7601124 58.4903295,28.6732045 57.5810033,28.6306921 C58.0679292,27.9689223 58.384263,27.7267816 58.5343457,27.6466645 L58.5550909,27.6355265 L58.5190453,27.6362326 C58.3137941,27.6315784 57.8403948,27.4931403 57.1080785,26.6731312 L57.2663877,26.697154 C59.3822466,26.9912272 58.3287686,25.705643 57.0045852,26.167732 C56.4637343,22.314098 55.1162703,18.7186101 53.1389909,15.5574217 L53.162282,15.4231011 L53.179,15.252 L53.1911007,15.3156207 C53.2505857,15.6223324 53.3064831,15.7458561 53.2896799,15.1951902 L53.2853294,15.0759223 L53.2780909,14.9295265 L53.2774157,14.9085871 L53.2387728,14.7451698 C53.0406063,13.9274399 53.0482548,14.303467 53.1093371,14.7828584 C53.00111,14.5394379 52.7591205,14.3636982 52.3012861,14.2961861 C51.2928099,12.8675575 50.1502207,11.539096 48.8918858,10.3302214 L48.8972252,10.3100856 C48.9054133,10.2804613 48.913399,10.250852 48.9211708,10.2213182 L48.965144,10.0455063 L48.9993884,9.89352495 C49.1846704,9.02507125 49.1245573,8.44678627 48.4818568,9.94453152 C43.6224189,5.46395273 37.1308024,2.72727273 30,2.72727273 L29.957,2.727 L29.9568951,2.71035728 L29.9540909,2.68252647 L29.9530909,2.66952647 L29.9520909,2.65452647 L29.9516535,2.63199043 L29.950742,2.61836141 L29.9483206,2.58215933 L29.9468963,2.56086399 L29.9450909,2.54652647 L29.9430909,2.51452647 L29.9420909,2.48852647 L29.94,2.474 L29.9432533,2.65515905 C29.9436397,2.67978817 29.9440342,2.70423832 29.9444367,2.7285091 L30,2.72727273 C26.5398209,2.72727273 23.2301456,3.37165617 20.1844303,4.54696689 C19.9822119,4.34988482 19.6502476,4.09475834 19.1452988,3.77622378 L19.1949761,3.81317762 C19.3871455,3.98205922 19.2866807,4.25631539 19.1920681,4.31018851 L19.1800909,4.31452647 L19.1847609,4.32743628 C19.2617965,4.51813588 19.3995231,4.67753281 19.5569406,4.79992554 C19.4213201,4.85440966 19.2863082,4.91170949 19.1518586,4.97006089 L19.0909091,4.97258638 C19.1040631,4.97526381 19.1170956,4.97800694 19.1300148,4.9808091 C18.1783754,5.39365647 17.2569636,5.85930147 16.3673095,6.37375363 C16.3851178,6.32706986 16.4043305,6.2031994 16.4254842,5.97372233 L16.4370909,5.83652647 L16.43826,5.82494729 L16.4213632,5.651592 C16.4014856,5.45685404 16.3840632,5.31999993 16.3680281,5.23517754 C16.3782094,5.20922244 16.3897869,5.17710764 16.4028899,5.13804833 L16.4140087,5.09927886 C16.4030863,5.11701056 16.4162309,5.02804237 16.421612,5.04274474 L16.423,5.066 L16.4221812,4.97581529 C16.4129799,4.73925608 16.3643892,4.87372513 16.3322865,5.03891938 L16.3232062,5.08905911 C16.3029761,5.10711129 16.2922305,5.27150018 16.289637,5.47808113 L16.2891996,5.63930058 C16.2912636,5.96552328 16.3103389,6.32689511 16.34215,6.38921095 C13.8424472,7.83734451 11.5939699,9.67204239 9.67822587,11.8109591 L9.68009091,11.7365265 L9.68109091,11.7155265 L9.68109091,11.6915265 L9.683,11.651 L9.6529761,11.8189472 C9.65142184,11.8281348 9.64987628,11.837299 9.64833936,11.8464393 C9.6130289,11.8839382 9.57837022,11.9229881 9.54382217,11.9621379 C9.54407201,11.8810311 9.52461073,11.8127369 9.48919456,11.7592972 C9.49832285,11.7442239 9.50699949,11.729807 9.51524061,11.716026 L9.52811342,11.7064345 L9.61365958,11.6388201 L9.65802811,11.5739202 C9.71513073,11.4847545 9.69154667,11.4869843 9.64034566,11.5264779 L9.611,11.549 L9.63502652,11.5024515 C9.68495023,11.3985747 9.61280812,11.4819074 9.53993874,11.5973449 L9.51281562,11.6418359 L9.49161039,11.6650937 C9.47485853,11.6826769 9.45921038,11.6998106 9.44687859,11.7146711 C9.42141109,11.6922001 9.39125824,11.6746941 9.35557775,11.6618461 C9.33998624,11.6392918 9.33138305,11.6382096 9.32861028,11.6543054 C8.92155,11.5532671 7.98740976,12.1354546 6.92245999,14.0724743 L6.88809091,14.1335265 L6.87564966,14.1572402 L6.86520096,14.1769664 L6.83609091,14.2315265 L6.82988436,14.2436409 L6.81818182,14.2657343 C7.38358274,14.0544211 7.84863489,13.8189453 8.2244927,13.5782103 C4.77331247,18.1464488 2.72727273,23.8342853 2.72727273,30 C2.72727273,32.9467492 3.1946134,35.7843452 4.05921994,38.4427132 C4.00859409,38.6615846 3.96094302,38.9233433 3.9370217,39.1783217 L3.94,39.149 L3.939,39.157 L3.939,39.161 L3.938,39.165 Z M41.7467705,49.9895304 L42.2727273,50.979021 L42.2140909,50.9535265 C42.1063954,51.0772089 42.5190348,51.0748825 42.2636526,50.9164422 L42.263,50.928 L42.2610314,50.9181728 L42.2431973,50.8174792 C42.2372976,50.787697 42.231201,50.7582243 42.2248834,50.7292617 L42.205,50.645 L42.2529476,50.738553 C42.2729195,50.7766076 42.2912345,50.8094778 42.3078261,50.837346 L42.3314124,50.8754197 C42.2446872,50.8821839 42.2442661,50.9065042 42.3981631,50.9590434 C42.4209466,50.9794996 42.4383603,50.9835862 42.449564,50.9735943 C42.5103869,50.9919961 42.5884707,51.013319 42.6861827,51.0378689 L42.6623408,51.0315074 C38.9653952,53.2620939 34.6325701,54.5454545 30,54.5454545 C27.1647682,54.5454545 24.4418118,54.064746 21.9081882,53.180386 C21.9033461,52.9244978 21.8905785,52.536303 21.8679823,51.9829568 L21.8650909,51.9445265 L21.8651548,51.9928997 C21.8608163,51.9991191 21.841159,51.6954712 21.8493897,51.7152749 L21.8530909,51.7385265 L21.8503104,51.7087664 C24.3856147,52.660994 27.1319848,53.1818182 30,53.1818182 C33.9998087,53.1818182 37.7630201,52.1688245 41.0470781,50.3853932 C41.32208,50.5423984 41.6439028,50.7042033 42.015069,50.8681955 L42.2150909,50.9535265 L41.7277257,50.000734 C41.7340759,49.9970024 41.7404241,49.9932679 41.7467705,49.9895304 Z M13.8590906,11.507065 C14.1411358,11.5519099 14.7136363,11.6293391 15.7024467,11.7503862 C13.8651353,13.1924512 12.2503347,14.906131 10.9193026,16.8310281 C10.6025666,16.90301 10.2215536,16.995492 9.77086365,17.1115547 L9.60309091,17.1545265 L9.56809091,17.1635265 L9.55809091,17.1665265 L9.54545455,17.1700573 C9.97946625,17.1497492 10.4019366,17.1001268 10.7796835,17.038281 C9.67221237,18.6743458 8.76996646,20.459652 8.10751654,22.3574372 C6.34891648,21.4562357 6.63904427,23.5040627 7.50341663,24.3810283 C7.36235762,24.9491656 7.24167015,25.5266117 7.14288796,26.1115022 C6.7217829,26.2423566 6.74991795,26.6362577 7.00148527,27.0780996 C6.88017433,28.0355263 6.81818182,29.0105236 6.81818182,30 C6.81818182,30.4171942 6.82920241,30.8318145 6.85096835,31.2435855 C6.71748566,31.4480648 6.53834809,31.7471784 6.87216051,31.258616 L6.85322628,31.2855862 C7.00274692,34.0210912 7.6265262,36.6303187 8.64375338,39.0324581 C8.48330412,39.0345582 8.32623353,39.0680975 8.18181818,39.1697707 C8.39226532,39.2339229 8.58651748,39.2894686 8.76583116,39.3132726 C11.2525959,44.9768757 15.938849,49.4551943 21.7432686,51.6682588 L21.7496853,51.7942848 L21.7605153,51.986184 L21.77262,52.1844641 L21.7861861,52.3920962 C21.80494,52.670097 21.8256447,52.9419525 21.8447396,53.1572692 C12.2976739,49.7963419 5.45454545,40.6973201 5.45454545,30 C5.45454545,22.6797167 8.65904701,16.1078848 13.7417831,11.6107714 Z M12.2727273,51.0507791 C11.3846261,50.8463769 10.7922478,50.6643094 9.54545455,50.9093926 C10.6080041,51.1626519 11.2446942,51.2637562 12.2727273,51.0507791 Z M42.9294979,50.8679814 L42.8632825,50.9076891 C42.7203188,50.8917107 42.582937,50.8799361 42.4784698,50.8770331 C42.4900797,50.6114892 42.3249959,49.9061069 42.2003962,49.7159355 L42.2111925,49.7086491 C44.241616,48.4479567 46.0628653,46.8822468 47.6109157,45.0755442 C47.6109907,45.2949769 47.6113139,45.5145082 47.611702,45.7342657 C47.8071477,45.4329442 47.8932056,45.1324697 47.8177745,44.8324056 C48.8739359,43.5634927 49.7985343,42.1797407 50.568691,40.7026512 L50.660385,40.705181 C51.251688,40.721621 51.7338392,40.7053894 52.112082,40.671101 C50.0763724,44.8786647 46.8761289,48.4175136 42.9294979,50.8679814 Z M19.4063554,32.6213416 C19.4586492,32.6222602 19.5100193,32.6225615 19.5604728,32.6222711 L21.4504337,46.2210176 L17.9356833,47.4312432 L17.6932065,45.7230829 C18.3161492,45.8126141 18.5498762,45.372145 19.0909091,44.1269387 C18.2511553,43.3564111 17.7200278,43.0026126 17.3266589,43.14145 L16.4041004,36.6483416 C16.4343835,36.6378018 16.4689442,36.6225961 16.5081779,36.6018391 L16.4737386,36.5347045 C16.4423179,36.4843829 16.4091521,36.4580872 16.3775146,36.4484849 L16.0003255,33.7938014 Z M27.4383319,17.2195636 C27.7936533,17.571211 28.6494688,18.0870747 29.29719,18.1666272 L29.7241369,20.3270792 L25.1275151,22.1607676 L25.6548374,24.9068823 L30.6652263,23.1816671 L30.7210152,23.4640838 C29.9362825,23.5796183 29.5916698,23.6818085 30.7365811,23.5456732 L31.4022441,26.9011801 L29.2019504,27.6596047 C29.278623,27.5076729 29.3409152,27.3486764 29.3998161,27.1898501 L29.4837203,26.9614757 C29.6097165,26.6215104 29.7446089,26.2986711 30,26.0664336 L29.97,26.096 L29.9360868,26.1299252 C29.5098493,26.5276883 28.0626334,27.5207993 27.4983805,28.2454873 L26.3918552,28.6263953 L26.9260149,31.3884512 C25.3152139,30.8408518 25.9312906,31.2202107 26.6420963,31.4145971 L26.7763606,31.4486986 C26.833158,31.4619637 26.8897094,31.4736186 26.9449427,31.4831043 L29.5674301,45.0154271 L23.2109666,47.204133 L21.9076167,40.4661204 C21.9715166,40.4113321 21.9493379,40.4095709 21.8997367,40.4292921 L20.3737352,32.5582379 C22.5304571,32.2053675 22.1018292,30.5580061 20.2103629,31.7203205 L20.0353917,30.8151012 L15.0623938,32.5274417 L14.7762287,31.0738243 C17.1760727,30.1158807 16.4158097,29.0325318 15.3496885,28.7559571 C15.7147917,28.7250593 16.0440288,28.6886474 16.2227565,28.6549411 L16.2321115,28.670804 C16.0486209,28.6892002 16.125944,28.7046825 16.2567497,28.7129371 C16.2170373,28.9164186 16.2335477,29.1019312 16.386048,28.8150753 C16.4576696,28.8660713 16.4945697,28.8558242 16.5044192,28.8175026 C16.6627616,28.840219 16.9640794,28.8578166 17.4551095,28.8668838 L17.4157742,28.8650896 C17.3003161,28.8539664 17.8600343,28.8029407 17.5442341,28.8533788 L17.545,28.853 L17.6900024,28.8322368 C19.1671864,28.6110315 19.2940626,28.5245058 18.8977782,28.5122822 L18.8455777,28.5111368 L18.7208931,28.511122 C18.5189183,28.5134155 18.2533305,28.5258629 17.9734313,28.5448656 L17.7537053,28.5609045 L17.5333625,28.5792108 C17.3387554,28.5963793 17.1495269,28.6157891 16.9825146,28.6363576 C16.802212,28.6280527 16.6278304,28.6235409 16.5103831,28.6253448 L16.4700909,28.6265265 L16.48,28.602 L16.4719255,28.6196168 C16.4564569,28.6430998 16.4615596,28.5990917 16.4726056,28.5812193 L16.4850909,28.5755265 L16.4699663,28.5134099 C16.4171226,28.350192 16.3527988,28.413818 16.3056484,28.5358872 C16.2902154,28.5432491 16.2746952,28.5558458 16.2603933,28.5770335 C16.1532372,28.5638085 15.9574923,28.5541012 15.6459607,28.5505646 C15.8640604,28.4889227 16.102832,28.4052029 16.3636364,28.2965221 L16.319,28.121 L18.876563,27.2413647 C18.9052629,27.2936393 18.9426599,27.3319222 18.983976,27.354371 L19.0243063,27.3708904 L19.063,27.176 L19.2983739,27.0955882 L19.191,26.534 L19.2654569,26.1665938 C19.4161232,26.1782715 19.671811,26.1866436 20.0610024,26.190101 L20.2360554,26.1912771 L20.1588164,26.1902051 C20.1267483,26.1893344 20.1091237,26.1880272 20.1023474,26.1864706 L20.2147536,26.1891138 L20.3600909,26.1745265 L20.324,26.18 L20.4699734,26.1658233 L20.5780711,26.1536523 C20.9610674,26.184491 21.2419924,26.2069366 21.4383569,26.2223616 L21.6071831,26.2354974 C21.6544952,26.2391298 21.6930602,26.242033 21.7235268,26.2442578 C21.7226235,26.2670439 21.7219906,26.2915148 21.7216137,26.3173641 L21.7220082,26.469939 C21.7232144,26.541049 21.7257285,26.6168267 21.729359,26.6931275 L21.7380516,26.8451982 C21.7699323,27.321186 21.8414688,27.7073174 21.9039969,26.950663 L21.912,26.83 C21.9067044,26.8663798 21.9006171,26.8396088 21.896209,26.8035429 L21.8932612,26.7755004 C22.516684,27.2271675 23.3062423,26.9781396 24.2763827,27.2805377 L24.3250909,27.2985265 L24.313852,27.4680021 C24.3121147,27.4962602 24.3104767,27.5244621 24.3089408,27.552555 L24.3009746,27.7193803 C24.2596925,28.7348512 24.3661136,29.4563256 24.7652237,27.207566 L24.789,27.066 L24.781841,27.1058655 C24.7182176,27.4088893 24.7426927,26.8149463 24.7797179,26.9118359 L24.789192,26.9513695 L24.7789644,26.8514481 C24.6090631,25.4602356 24.430112,26.1637055 24.3451079,27.0738415 C23.5042284,25.8270967 23.1989714,25.812269 21.9646191,26.62024 L21.8950909,26.6655265 L21.8891064,26.6284821 C21.8531277,26.3983689 21.823858,26.2493743 21.8006314,26.165787 C21.8171485,26.1758534 21.8363189,26.1695371 21.849319,26.1348198 C21.9187568,26.1504144 21.9753482,26.1456306 21.9284818,26.0984169 C22.0136242,26.1137393 22.1521999,26.1302393 22.3582767,26.1476744 L22.5337773,26.1300144 C23.4664221,26.0324613 23.2388793,25.9897798 22.8038678,25.9855453 L22.668093,25.9854119 L22.5973239,25.9861795 L22.4399127,25.9897298 C22.204066,25.9969329 21.9778832,26.0124397 21.875423,26.0342837 L21.865,26.069 L21.87,25.971 L21.8672661,25.9874955 C21.8634746,25.9964293 21.8572104,25.9919449 21.855397,25.9843747 L21.8568807,25.9719968 L21.8702334,25.9627397 C21.8348385,25.9715034 21.8101252,25.9872954 21.7936762,26.0063985 L21.7394529,26.0925086 C21.731552,26.1217266 21.7264091,26.1739336 21.7241861,26.2425792 C21.5696148,26.2291005 21.2413365,26.2016447 20.8673125,26.1709239 L20.6971294,26.1569794 C20.6687278,26.1546578 20.6401811,26.1523271 20.6115408,26.1499917 L20.6583642,26.1449468 C21.2349062,26.0853698 21.5647567,26.0413117 21.7131904,26.0101981 C21.677962,26.0315099 21.6854365,26.0555158 21.7132683,26.0764873 L21.7380909,26.0905265 L21.7580909,26.0085265 L21.7704463,26.0081689 C21.7765676,26.0061228 21.7793896,26.0024393 21.7710582,25.9969185 C21.8113012,25.9858004 21.8246246,25.9766291 21.8156976,25.9691863 C21.832503,25.9532655 21.7630843,25.9448836 21.6365766,25.9423947 L21.5013731,25.9417425 C21.4504667,25.9420778 21.394677,25.9429608 21.3353749,25.9440641 C21.1309915,25.9455651 20.8804608,25.9524276 20.6217782,25.9630397 L20.3572552,25.9750676 C20.0047598,25.9926623 19.6609761,26.0161511 19.42076,26.0415093 L19.344665,26.0495592 L19.2548875,26.0429869 C19.1838372,26.0378909 19.1329238,26.0345532 19.1080366,26.0334667 L19.096,26.032 L18.8366586,24.6614759 L15.1032848,26.1146452 C14.7785177,25.9946012 14.4615411,26.1089734 14.2058158,26.3445032 L13.654,23.566 L13.8921531,23.5547939 C16.4586304,23.4289958 16.6652483,23.3709846 16.1140105,23.3686869 L15.9982862,23.3689347 C15.6667469,23.3714333 15.1608557,23.3885659 14.7008741,23.4186725 L14.5309633,23.4305674 C14.3640648,23.443064 14.2074941,23.4573559 14.0728666,23.4733555 L14.065,23.474 L14.0358869,23.4881522 C13.9467493,23.5252458 13.8202536,23.5564908 13.6552123,23.5661764 L13.652,23.557 C13.7112457,23.5286846 13.8381146,23.5035859 14.0074352,23.4814973 L14.065,23.474 L14.0865706,23.4644408 C14.3159568,23.3435098 14.1856556,23.1974981 13.7315018,23.5004606 L13.652,23.556 L13.4901442,22.7382603 L21.83,19.438 L21.834605,19.5104895 C21.8708413,19.4707673 21.9070229,19.4321577 21.9430537,19.3944438 L27.2457192,17.2962065 C27.2590155,17.8939598 27.3060236,18.8134553 27.3030531,17.6132705 L27.3020909,17.5245265 L27.301,17.527 C27.2980498,17.4963404 27.2954114,17.4038946 27.29698,17.3916737 L27.299,17.399 L27.2922812,17.2990329 C27.291731,17.2915192 27.2911861,17.2841224 27.2906464,17.2768414 Z M27.2838751,40.4305746 C27.210482,40.4059089 27.1994972,40.4613712 27.2171022,40.5047246 C27.0840967,40.6097977 26.6983401,41.274258 25.9090909,42.965204 L26.052027,43.0146395 C26.9936511,43.3209661 26.7156839,42.812862 26.3460526,42.7333752 L26.2990909,42.7255265 L26.314941,42.70715 C26.5052912,42.4636234 26.7071631,42.0854501 26.8762453,41.7099371 L26.9465724,41.5495661 C27.1337406,41.1111956 27.2665699,40.7037665 27.2723741,40.5540566 C27.2940811,40.5502962 27.3175699,40.5234675 27.3361097,40.4559791 Z M30.9567102,28.6439051 L32.6544639,35.4590056 C32.660323,36.0095362 32.7826079,37.3352651 32.8002993,35.9327086 L32.798,36.036 L34.2381427,41.8178563 L30.7233922,43.0280819 L27.45,30.049 L27.4527659,29.9875925 C27.4542182,29.9390631 27.4555317,29.8921036 27.4567105,29.84668 L29.9270387,28.9985957 C29.9258327,29.0411144 29.9250611,29.0863474 29.9247011,29.133184 L29.924994,29.2936758 C29.927918,29.5659818 29.9427622,29.8497017 29.9656382,29.9545667 C29.9376181,30.3142149 29.906111,30.7618012 29.8729787,31.3048028 L29.8780909,31.2825265 L29.8879088,31.247835 C29.9754154,30.8999123 30.0382666,30.3954121 30.0777805,29.9261567 L30.0915069,29.7522127 C30.1146758,29.4377178 30.126892,29.1512149 30.1285837,28.9550368 L30.128,28.928 L30.9567102,28.6439051 Z M42.2594834,39.2359466 L42.3108921,39.1984437 L42.3207375,39.1860922 C42.8684893,39.2682327 43.3406794,39.3211449 43.7856498,39.3260214 L40.7629333,40.3672205 C40.8940114,40.0517125 41.0369065,39.70701 41.1807739,39.3577846 C41.8161723,39.3234961 42.134169,39.2681323 42.2356428,39.2095994 L42.244,39.128 L42.2594834,39.2359466 Z M53.281614,28.814176 C53.4115319,28.8351316 53.6566043,28.8457031 53.9468091,28.8476193 L54.2182884,28.8470536 C54.3167661,28.8460651 54.417663,28.8442608 54.5187556,28.8416954 C54.53643,29.2251623 54.5454545,29.6115273 54.5454545,30 C54.5454545,33.6762518 53.7372613,37.1637399 52.288857,40.2944823 C51.8736892,40.3395977 51.3195861,40.4455784 50.6378363,40.6437119 L50.5927408,40.6563987 C52.030107,37.8844284 52.9242067,34.7853914 53.1340499,31.500278 C53.1785666,31.4977321 53.1943467,31.4859162 53.1711263,31.4623933 L53.1818182,31.4607268 C53.1669955,31.4497545 53.1522111,31.4390412 53.1374444,31.4285893 C53.1448857,31.3239981 53.1506469,31.2173663 53.1556852,31.1105452 L53.171,31.202 L53.1694651,31.1846988 C53.1538639,31.0640691 53.1859063,31.1125608 53.1929484,31.2168267 L53.1942241,31.2645964 L53.194,31.273 L53.2152223,31.0514805 C53.3214809,29.8343791 53.3263751,29.1588086 53.2895233,28.8673853 Z M22.1674042,40.438645 C24.9821552,39.5137748 20.9307997,38.1134223 22.0038891,40.4895105 L22.0024869,40.4697877 C22.0259029,40.3938471 22.373081,40.3556153 22.1607624,40.4379263 L22.0960909,40.4605265 Z M30.0632013,39.0982918 C29.7986997,38.7079094 29.834878,39.727775 30.1163325,39.1887398 L30.0894656,39.234259 C30.3174454,39.3119733 30.9700365,39.3616155 31.9201658,39.2595546 C32.0299257,39.2615877 32.1338789,39.2629629 32.2283958,39.2635753 L32.4637817,39.2632313 C32.7822656,39.2593982 32.8632692,39.2396287 32.4165742,39.1958485 C32.4644471,39.1887137 32.5128985,39.1812173 32.5619161,39.1733474 L32.684,39.152 L32.6053076,39.1655132 C32.5662445,39.1713979 32.5287879,39.1765909 32.492981,39.181141 L32.3905526,39.1929116 C32.2706266,39.1813326 32.1155149,39.1681363 31.9176914,39.1526297 C31.9964564,39.1221625 32.2627947,39.099359 32.7272727,39.1457353 L32.5117373,39.1249957 C31.0617128,38.9910157 30.2981988,39.0355433 30.0724858,39.1152836 Z M55.9690478,39.1783217 C59.9787404,35.7649974 58.6309815,36.2820672 57.2926135,37.400714 L57.1544152,37.5184456 L57.0857538,37.5786649 L56.947896,37.7033639 C56.3798247,38.2283447 55.9029959,38.8133744 55.9690478,39.1783217 Z M23.7307833,36.4248082 C24.9665144,35.928101 25.0842355,34.2772882 22.0273928,36.0360098 L21.8540909,36.1375265 L21.8181818,36.1587752 L21.9383746,36.2335475 C22.2900777,36.4403593 22.6289694,36.535264 22.9384572,36.552235 C20.6246495,36.9496984 22.2756485,36.9365379 24.4535156,36.3185066 L24.2293163,36.3505864 C24.0515854,36.3762858 23.8850242,36.4010309 23.7307833,36.4248082 Z M39.6807421,16.9136372 C39.6967214,16.6045867 39.5807075,16.6553908 39.4918116,16.7801007 C39.4196085,16.7934874 39.4157414,16.8329367 39.4427336,16.8751877 C39.4403878,16.8805512 39.4381358,16.8859264 39.4366788,16.88955 C39.3841663,16.9126525 39.3594383,17.2115351 39.3558048,17.5997886 L39.3558381,17.8152697 C39.3610203,18.3974961 39.4055172,19.090523 39.470898,19.3754452 C39.383173,19.3744267 39.2239993,19.3811985 39.0255518,19.393201 L38.755633,18.0119435 L38.3105881,18.1652896 C38.3103629,17.7391832 38.310132,17.3142843 38.309682,16.8881119 C38.0144339,17.3260695 37.9231796,17.7631325 38.3106061,18.1993007 L38.288,18.172 L37.825238,18.3333413 C37.6577305,18.0196763 37.4254731,17.6555157 37.1166564,17.2561286 L36.9726914,17.0743374 L36.909,16.999 L36.9635503,17.0709925 C37.406097,17.6700675 37.1866223,17.8427273 36.929463,17.2111272 L36.8906845,17.110308 L36.86,17.025 L36.893746,17.1393868 C37.0645551,17.6929052 37.2316938,18.1378562 37.385965,18.4860324 L37.2973855,18.5140583 L37.4934464,19.5205599 C36.7840258,19.5948935 36.4115353,19.6651414 37.5152193,19.6406802 L38.0731505,22.499652 C36.490376,23.4599145 36.3354266,25.8598039 38.0052618,24.1650808 C38.0305325,24.3023295 38.0729744,24.4190039 38.1387307,24.5173725 C38.1358805,24.5795637 38.1339771,24.63316 38.1333277,24.6736589 L38.1337923,24.7358595 C38.1364976,24.7849403 38.1471466,24.746371 38.1696439,24.5629539 C38.2266413,24.6372349 38.2982341,24.7008263 38.3870469,24.7552448 C38.3999841,24.3939314 38.3421875,24.1439189 38.239449,23.9151164 C38.2683407,23.8825099 38.29769,23.8488254 38.3274986,23.8140415 L39.312619,28.8673972 C39.0816126,28.8538537 38.7066501,28.8323065 38.31718,28.8099672 C38.3133363,28.756706 38.3044399,28.7223748 38.2921033,28.7043196 L38.3078505,28.6938633 L38.2507529,28.6448421 C38.0308944,28.4886363 37.9757663,28.8440304 38.1966121,28.7576868 C38.1889317,28.770956 38.1811889,28.7859617 38.1735542,28.8027463 C38.1682479,28.8024504 38.1629417,28.8021547 38.1576361,28.8018591 L37.8968484,28.7873915 C37.3818455,28.7589539 36.9236017,28.7344984 36.8339765,28.7319684 L36.8180909,28.7315265 L37.0734048,28.7461888 C37.503753,28.7701664 37.8677507,28.7903865 38.1716133,28.806594 C38.0690834,29.0307267 37.9741655,29.5319165 38.1166728,29.9318908 L38.143,29.998 L38.1840255,29.8146715 C38.2834176,29.3423222 38.3195765,29.0430288 38.3190552,28.8730358 L38.3171922,28.8152639 C38.8028587,28.8421156 39.1228705,28.8596087 39.3141322,28.8698666 L40.7752457,36.3883204 L42.2334932,35.8862055 L40.846,28.757 L40.8684501,28.7570463 C43.056515,28.7520856 42.2887476,28.6871594 41.2421591,28.6485846 L41.0605121,28.642246 L40.9685767,28.6393005 L40.822,28.634 L40.6767269,27.8880098 C40.7027652,27.8659744 40.72892,27.8436939 40.7551518,27.8211965 L40.9151808,27.6820501 L41.1227304,27.4955933 C41.1456246,27.4746238 41.1684365,27.4535894 41.1911394,27.4325095 L41.3258357,27.3056365 C41.8355226,26.8183721 42.2593384,26.3273313 42.2727273,26.0664336 C41.5656757,26.6872618 41.0215609,27.1777853 40.6121782,27.5583039 L39.04,19.474 L39.122626,19.4634247 L39.3048611,19.4369481 C39.3821351,19.4250787 39.4391511,19.4152257 39.4781917,19.407224 C39.5446341,19.6608732 39.6309218,19.4923588 39.718746,18.3915364 L39.725,18.294 L39.7205683,18.3403989 C39.6926136,18.5788077 39.6913985,18.0649655 39.7196526,18.1018375 L39.7280909,18.1265265 L39.7030033,17.9528888 C39.6369905,17.526718 39.5817901,17.2471144 39.5365959,17.0834578 C39.5725214,17.0722173 39.6171369,17.0510205 39.6733446,17.0103958 C39.6745004,17.0030083 39.6760455,16.9907075 39.6774974,16.9770453 L39.678,16.96 L39.677,16.961 Z M21.8509833,28.5182064 C21.7110499,28.4940173 22.0401947,28.5998016 22.4334885,28.7022948 L22.5655539,28.7359424 C22.630888,28.7521966 22.6967343,28.7679765 22.7613612,28.7827122 L22.7284513,28.7926463 C21.2696584,29.2728139 21.352994,31.1623299 24.5454545,28.9429463 L24.542,28.944 L24.465699,28.9928507 C23.8614399,29.3300739 23.3806395,28.6871482 23.9774577,28.7653272 L24.0701512,28.7815848 L24.159,28.803 L24.1213282,28.7923197 C23.6818209,28.6694892 23.2903002,28.6650767 22.9595168,28.7317367 L22.8215083,28.7645186 C22.336295,28.6331262 22.0559897,28.5623305 21.9205083,28.5323575 Z M30,5.45454545 C35.6527494,5.45454545 40.8591984,7.36538481 45.008649,10.5763655 C45.0209672,10.821618 45.0457208,11.0993219 45.0852881,11.4135944 L45.103,11.541 L45.1021586,11.5270127 C45.0292985,10.7465391 45.5524867,11.4913351 45.2294524,11.6239581 L45.1773923,11.638509 L45.1159608,11.6433566 C45.5213188,11.6433566 45.8099987,11.547722 46.0068536,11.392979 C50.8914174,15.5969179 54.1018786,21.6925437 54.5029221,28.5429173 C53.868751,28.6144921 53.4987421,28.6712248 53.3191382,28.7156178 L53.2594551,28.7014731 L53.2544969,28.6773914 C53.2281898,28.5898644 53.1795023,28.5926241 53.1430639,28.6253352 C53.1148019,28.1640652 53.0741316,27.7043107 53.0202427,27.248606 C53.1577689,26.8907548 53.2081825,26.4999828 53.1688526,26.0664336 C53.0605881,26.115785 52.9626367,26.1668251 52.8739668,26.2193592 C52.7623598,25.5321768 52.6193438,24.8548061 52.4474899,24.1890279 C52.6158057,24.0197322 52.796695,23.8364367 52.9907185,23.6388948 L53.1079938,23.5176946 C53.1040117,23.5777974 53.1389275,23.5995549 53.2559428,23.4749061 C53.2559428,23.238631 53.1747912,23.3218837 53.1300817,23.4257091 C53.1128149,23.4408931 53.1087666,23.4555443 53.1140586,23.4686469 C52.945175,23.5434992 52.6875023,23.7418033 52.3978166,23.9975231 C49.7528953,14.1046058 40.7273654,6.81818182 30,6.81818182 C29.1602761,6.81818182 28.3309804,6.86282974 27.5143571,6.94988117 C27.4798479,6.62602734 27.4071562,6.18526493 27.2831874,5.60588723 C28.1748649,5.50499113 29.0815413,5.45454545 30,5.45454545 Z M37.903,26.079 L37.9183553,26.1353418 C38.0480421,26.8357737 36.0192519,26.441287 37.7378689,26.0967306 L37.722,26.099 L37.6810732,26.1070622 C34.2084527,26.7910808 35.5138684,28.4589049 36.8186782,28.6673092 L36.8985231,28.6782243 L36.892,28.682 C37.7626176,28.7757539 38.5820904,28.210432 37.9683529,26.2718991 L37.903,26.079 Z M21.9465822,22.2138725 C21.938662,21.8895899 21.8112427,22.5924086 21.7400177,23.3727079 L21.7185983,23.6343746 C21.6892666,24.0418231 21.680292,24.4417346 21.7161677,24.7017229 L21.7230909,24.7485265 L21.724,24.752 L21.7560007,24.4673312 C21.7860327,24.1892594 21.8118328,23.9404916 21.833599,23.719034 L21.8540278,23.506606 C21.9278579,23.5139818 22.1071522,23.5091379 22.3109689,23.4980616 C22.4016536,23.4968246 22.5066155,23.4948658 22.6272575,23.4920894 L22.7654152,23.4744371 C22.8768114,23.4597973 22.9628706,23.4473505 23.0253995,23.4374082 C23.1262274,23.4242182 23.1881579,23.4113852 23.1809995,23.4010737 C23.1855141,23.3957787 23.1711856,23.3923005 23.1431137,23.3905815 C23.0629258,23.3800914 22.851285,23.3750034 22.4452073,23.3798094 C22.7286384,23.3762675 22.3174952,23.4035161 22.4033495,23.3863627 L22.2893222,23.4016659 C22.1130001,23.4271193 21.9930383,23.4473018 21.9194572,23.4628162 C21.894782,23.4660504 21.8739532,23.4691889 21.8582631,23.4718201 C21.8600876,23.4527947 21.86188,23.4340028 21.8639555,23.4182809 C21.8787411,23.3772772 21.8933824,23.3293898 21.9070705,23.2742133 L21.8727384,23.3185741 C21.9207164,22.8023519 21.942373,22.4793896 21.9463037,22.3032283 Z M33.6770565,23.2026567 C31.8802626,23.1334946 32.9875585,23.3966966 34.0930118,23.5653741 L34.3132169,23.5977228 C35.4419191,23.7570389 36.3617946,23.7850356 33.8665238,23.2106966 Z M42.2664772,19.5064138 C40.3206056,19.2062591 40.3197783,19.2067211 39.5454545,19.6391924 C40.4047383,19.7502675 41.2092487,19.7967316 42.2663685,19.5080106 C42.2702219,19.5274403 42.2747285,19.5488997 42.2799483,19.5723659 L42.2928801,19.6286861 L42.297,19.642 L42.2882587,19.5692029 C42.2592849,19.3508806 42.2337072,19.3162495 42.2558501,19.4488723 Z M30.2132339,16.9800414 C30.4192635,17.1638595 30.5194973,17.3554222 30.5516432,17.5279042 L30.0760421,17.2542388 C30.0667949,17.1569072 30.0692482,17.0588398 30.0850909,16.9605265 L30.078,17.025 Z M28.9871191,16.6075662 L29.1679427,17.5204639 C28.6449609,17.2759362 28.2483302,17.1132332 27.9565701,17.0141519 L28.9871191,16.6075662 Z M42.4499638,16.8104342 C45.3351381,14.5062819 42.0138085,15.9866593 42.3027666,16.7958347 L42.2686055,16.804137 L42.213,16.884 L42.255,16.8 L42.2496528,16.8096381 C42.2400528,16.8125872 42.2305426,16.815759 42.2212346,16.819122 L42.1940297,16.829753 L42.164646,16.8220945 C42.0793333,16.8047828 42.0700332,16.8398984 42.111976,16.8788547 C42.0678227,16.921887 42.0932975,16.9682817 42.2879586,16.9902002 C42.2558878,16.9866288 42.2502296,16.9818669 42.2552617,16.9782954 L42.265182,16.9805996 C42.274547,16.9813905 42.2840902,16.9806947 42.2920909,16.9855265 L42.3136022,16.9707025 C42.3176508,16.9684309 42.321428,16.965787 42.3294822,16.9577663 L42.391927,16.9575349 L42.4577388,16.9486586 C42.431989,16.9342829 42.4077528,16.9213046 42.389625,16.9097625 C42.4415173,16.8621589 42.4574688,16.8304941 42.4499638,16.8104342 Z M39.4310909,14.3535265 L39.3570909,14.3595265 L39.3884667,14.3576224 L39.4326694,14.3541494 C39.2798445,14.4895729 38.9616704,14.7899187 38.418365,15.3177158 L38.3090909,15.4235265 L38.2791843,15.453105 C38.278522,15.4357096 38.2779922,15.4180842 38.2776213,15.4008905 L38.2775145,15.3082026 C38.2789965,15.2569231 38.2838665,15.2337275 38.2938153,15.2809692 L38.3,15.315 L38.2861109,15.1982596 C38.2392539,14.8366215 38.200701,14.5948955 38.1694847,14.4489391 L38.1544835,14.3838299 C38.510737,14.3925152 38.9264886,14.3865705 39.3871223,14.356923 L39.4310909,14.3535265 Z M14.7032719,10.805034 C15.2502407,11.2585627 15.640995,11.5023306 15.9054413,11.5966327 L15.7837318,11.6883014 C15.5740313,11.655136 15.3269637,11.6216666 15.0764639,11.5908683 L14.8217774,11.5605755 C14.4664297,11.5196843 14.1275368,11.486292 13.9038165,11.469053 C14.1342355,11.2683538 14.3683282,11.0723503 14.6060694,10.8806903 Z M7.01212249,11.6104917 C8.54654192,12.0085421 11.9499432,8.602187 6.81818182,11.5332294 L6.829,11.527 L6.92219294,11.4781512 C7.44265384,11.2257315 7.42009628,11.6132882 7.10522594,11.6177238 L7.04282342,11.613816 L6.97809091,11.5995265 Z M27.034325,5.63188303 L27.0293264,5.66791134 C26.969556,6.14034422 27.0189633,6.6214019 27.1068106,6.9978319 C23.1194295,7.493243 19.4456731,9.00268505 16.3519671,11.2595948 C16.2969333,10.9345167 16.0408275,10.4572406 15.6954516,10.052674 C18.9652138,7.70239788 22.8367285,6.13741027 27.034325,5.63188303 Z M40.7777766,2.62334865 C39.2804323,1.64319131 39.0037471,2.73055592 40.7540795,2.71647741 L40.7940909,2.71452647 L40.7045658,2.71335343 C40.2560523,2.69299902 40.5518368,2.51263765 40.8527834,2.67743225 L40.906,2.71 Z M32.7272727,2.66890604 C32.0340487,2.2283944 31.0163907,2.24893432 30,2.2676795 C30.6292244,2.52173646 31.3851808,2.6862553 32.7272727,2.66890604 Z M32.715,23.279 L32.72,23.278 C32.6739849,23.27837 32.6194859,23.2799144 32.5640168,23.2819708 L31.7741034,19.2356134 C32.1337715,19.4321311 32.4533913,19.5366293 32.615024,19.5074343 C32.6196293,19.512744 32.6256111,19.5112684 32.632721,19.5014727 C32.6375457,19.5001838 32.6422025,19.4987545 32.644816,19.497231 C32.6690512,19.5052051 32.6980756,19.5140805 32.731919,19.5245933 C32.8622234,20.0347624 35.6676701,19.4647721 32.8171284,19.2890354 L32.8734732,19.2969528 C33.0147279,19.3339315 32.717174,19.4649753 32.7850113,19.3359118 L32.7990909,19.3145265 L32.7788836,19.3415413 C32.7396365,19.4023073 32.7241621,19.4547377 32.7272307,19.4984215 C32.7089858,19.492039 32.69201,19.4863781 32.6783737,19.4818626 C32.7271378,19.4499864 32.7416521,19.3907676 32.7107462,19.3004543 C32.7391653,19.2055715 32.7740214,19.075072 32.8162595,18.9021054 L32.833,18.828 L32.8223765,18.8611224 C32.8080803,18.8893069 32.83341,18.7192693 32.8446222,18.7117879 L32.848803,18.7232638 L32.849,18.735 L32.8516232,18.6203061 C32.8578113,17.8677047 32.74984,18.261073 32.6741112,18.7392182 L32.6624433,18.8152646 L32.6390785,18.9846238 C32.6328898,19.0332879 32.6272967,19.0809586 32.622511,19.1261539 C32.3699104,18.7368201 31.6316832,18.0272046 30.1140909,16.8985265 L30.219,16.977 L37.7986415,14.3684568 C37.8487867,14.3713024 37.9006006,14.3738525 37.9540225,14.3760697 L38.0696649,14.380258 C38.0609904,14.4590221 38.0559575,14.574225 38.0539931,14.7125839 L38.0539861,15.0162405 C38.0552344,15.1251271 38.0576768,15.2403695 38.0611435,15.3580321 L38.0678406,15.5557024 L38.071846,15.6549528 L38.0610909,15.6645265 L38.0500805,15.6374126 L38.0444803,15.6243271 L38.024,15.577 L38.0328183,15.6325193 L38.0413549,15.6867317 L38.0133963,15.7123341 C37.7281101,15.9912998 37.3966287,16.3170274 37.0138623,16.6948403 L36.8181818,16.8881119 C36.9116114,16.871015 37.29129,16.535512 37.7389869,16.109847 L37.8685626,15.9859723 C37.9318054,15.9251982 37.9959462,15.8631234 38.0600379,15.8025429 C38.0691747,15.8582198 38.0781409,15.9114413 38.0869568,15.9612874 C38.1119491,16.4038154 38.1479242,16.7822682 38.1864528,16.8672263 C38.1735489,16.8867953 38.1589939,16.9095243 38.1427283,16.935678 L38.1150909,16.9795265 L38.1040909,16.9985265 L38.1,17.005 L38.1522899,16.9452503 L38.1963928,16.8865549 C38.2030168,16.8911153 38.2096467,16.885754 38.2162274,16.8691969 L38.2234972,16.8480449 C38.2451342,16.8151669 38.2589492,16.7899172 38.2642545,16.7754356 L38.264,16.776 L38.2835911,16.829136 C38.3496509,16.9929119 38.361695,16.7986712 38.2944069,16.4564885 L38.2740697,16.3596558 C38.2854473,16.1665556 38.2959709,15.9143571 38.3052159,15.5932172 L38.3060909,15.5585265 L38.4197803,15.4466649 L38.6604107,15.2059292 C39.0326974,14.8310765 39.3498748,14.5003295 39.4809825,14.3506665 L39.5160909,14.3475265 L39.5290909,14.3465265 L39.5454545,14.3459157 C39.5267256,14.343481 39.5081038,14.3410721 39.4912357,14.3388928 C39.5668616,14.2514957 39.5683162,14.2363834 39.4635617,14.327066 L39.4543725,14.3341706 C38.997484,14.2757387 38.6065551,14.2331177 38.276613,14.2032169 L38.7628278,14.0373173 C39.1115855,14.2822591 39.4020616,14.3626184 39.5202273,14.1159952 L39.5389673,14.0699249 C39.4645135,13.9919383 39.3918698,13.9161732 39.3210036,13.8425829 L43.3281318,12.4642173 L43.6866795,14.2916091 C43.0627573,14.1843413 42.4207433,14.3894254 42.2727273,15.3078511 L42.5055456,15.3591226 C43.102551,15.4862494 43.5730241,15.5516425 43.9366077,15.5707156 L47.0118541,31.2892427 C46.9181135,31.2813953 46.8190471,31.2737024 46.7171519,31.2663316 L46.5035283,31.2516233 L46.2064126,31.2335407 C45.1543918,31.1744096 44.2288842,31.1756957 45.9795776,31.4086056 L46.2198395,31.4130924 C46.4498314,31.4170716 46.6493189,31.4195483 46.8210509,31.4207073 L47.037,31.421 L48.0332353,36.5205369 C47.9592407,36.527148 47.9000781,36.5334542 47.854398,36.5394017 L47.808129,36.5460172 C47.8119012,36.5062369 47.8110581,36.4771137 47.8062696,36.4601476 C47.8215931,36.3949309 47.8361711,36.2937254 47.849337,36.1484646 L47.856,36.044 L47.8549513,36.0596635 C47.8447812,36.1149287 47.8324927,36.0204042 47.8342336,35.9612751 L47.837,35.932 L47.8469271,35.9505402 L47.857,35.994 L47.8233849,35.8343333 C47.6214228,34.928328 47.5755042,35.2232396 47.5998524,35.6792422 L47.6037994,35.745369 L47.6155742,35.8952429 C47.6362091,36.1219776 47.6695556,36.3492994 47.7066265,36.468263 C47.6427677,36.551479 47.5962025,36.7070178 47.7304625,36.6932492 L47.7490909,36.6885265 L47.7388922,36.6852508 C47.7349572,36.6752137 47.7737843,36.6487488 47.7842916,36.6623394 L47.7857515,36.6809253 L47.8000532,36.6020806 C47.8570807,36.6114398 47.9450763,36.6198577 48.0549006,36.6272193 L48.2800277,37.7775053 L45.0851524,38.8816017 C45.08694,38.8149855 45.0879867,38.7357913 45.0881689,38.6426883 L45.0870909,38.5025265 L45.0876482,38.4740515 L45.0581499,38.3200107 C44.8444562,37.2384301 44.9062002,38.3630344 44.9846567,38.9127605 L44.4161854,39.1081608 C43.8692608,39.0286965 43.2777626,38.9784517 42.5499279,39.117915 L42.3340909,39.1645265 L42.332672,39.1409672 C42.319064,39.1209444 42.2761118,39.1158114 42.2440909,39.1255265 L42.2017872,39.1026786 C42.0611526,39.0403791 41.7269902,38.9877968 41.3408092,38.9697829 C41.782758,37.8938527 42.1962038,36.8650377 42.2620909,36.6165265 L42.2070909,36.6185265 L42.0725217,36.762054 C41.4452483,37.4156667 40.9314456,37.8524297 40.7125969,38.9741731 C40.3752281,38.9953506 40.0526116,39.0500385 39.8274601,39.1529185 L39.7890909,39.1705265 L39.8208577,39.1654325 C40.0175339,39.1451116 40.1334771,39.3629267 39.6502438,39.3902329 L39.5454545,39.3930271 C39.9709689,39.3930271 40.3374942,39.388003 40.6496633,39.3789289 C40.6106883,39.7121999 40.5928799,40.098211 40.5993929,40.5526398 L40.599,40.422 L37.4817372,41.4956484 C37.6765125,41.1913553 37.9949264,40.865951 38.1242473,40.6705397 L38.1696423,40.5894752 C38.2426095,40.6114341 38.3265438,40.5681733 38.2231838,40.3843162 L38.223,40.385 L38.2298107,40.4075759 C38.2276511,40.4171019 38.2150732,40.4157188 38.2084958,40.4097383 L38.2051823,40.3981084 L38.2231838,40.3843162 C38.1390904,40.4186019 38.1024203,40.4563408 38.0958146,40.4896766 C37.9135768,40.496069 37.4153671,40.6876927 36.3558804,41.1829347 C36.6257753,41.3500501 36.8564952,41.5039319 37.0520111,41.6454476 L36.202747,41.9360465 L35.6393694,39.0488813 L35.718,39.061 L35.6670909,39.0525265 L35.8599443,39.0828262 C37.0253975,39.2613382 37.7355331,39.3304318 38.0274238,39.3369259 L38.1092809,39.3368363 C38.4527007,39.325058 37.5678027,39.1430358 35.6439607,39.0299282 L35.635,39.029 L32.5637646,23.3008942 C32.5787866,23.2987348 32.5947166,23.2964448 32.6115922,23.2940188 L32.713,23.279 L32.717,23.278 L32.715,23.279 Z M27.229,39.173 L27.218,39.047 L27.2176565,39.0609825 C27.1669981,39.0765397 27.1434919,39.1008296 27.1375193,39.128281 L27.137035,39.1565799 C26.9294267,39.159636 27.0095394,39.17364 27.1497351,39.1846743 C27.1516393,39.1883096 27.1537404,39.1919384 27.1560218,39.1955502 L27.1213816,39.2020551 C27.1089013,39.2045241 27.0976304,39.2068101 27.0879345,39.2088488 L27.0515809,39.2176019 C27.0438421,39.220776 27.072995,39.2179435 27.1624259,39.2050022 C27.2362609,39.3070918 27.4453131,39.3876868 27.4026126,39.19936 C27.4168386,39.1998093 27.4303805,39.2001524 27.4429933,39.2003746 L27.5055612,39.2001406 C27.553061,39.1982224 27.5494779,39.1909006 27.4419058,39.1750189 L27.393,39.168 L27.3892075,39.1560199 C27.3779467,39.1243597 27.3612436,39.0871368 27.3380462,39.0436808 L27.338,39.044 L27.3390702,39.0611664 C27.3297897,39.0717858 27.29586,39.0638229 27.2936609,39.0554244 L27.3041267,39.0475529 L27.3380462,39.0436808 L27.2946048,39.0471441 C27.3910984,38.8341785 27.4146724,38.6842762 27.4033669,38.6037824 L27.3980909,38.5815265 L27.4045453,38.5380211 C27.475764,37.9503749 27.4048808,37.23471 27.3149,36.8446467 L27.309,36.823 L27.2899786,36.7466794 C27.2815753,36.7169418 27.2731066,36.6902359 27.2646648,36.6669025 L27.239513,36.6073609 C27.2680514,36.6315096 27.3086287,36.6278476 27.3415309,36.5418463 L27.2861432,36.5061414 C27.205486,36.4651783 27.1929312,36.5194173 27.2112351,36.5648946 C27.108134,36.4719371 27.0446638,37.0866823 27.2298508,39.1783217 L27.218,39.043 L27.306,36.904 L27.229,39.173 Z M24.4275489,33.661251 C24.8668282,35.4464262 24.6584695,27.6442856 24.4077468,33.576199 L24.412,33.462 L24.4154739,33.4196619 C24.4197749,33.3507259 24.4223928,33.3466753 24.4234347,33.3717552 L24.4231642,33.4622591 C24.4215864,33.523089 24.4176711,33.5875356 24.4116271,33.5857656 L24.408,33.579 Z" id="Combined-Shape"></path>
            </g>
        </g>
    </g>
</svg>