<?xml version="1.0" encoding="UTF-8"?>
<svg width="100%" height="100%" viewBox="0 0 60 60" version="1.1" xmlns="http://www.w3.org/2000/svg" xmlns:xlink="http://www.w3.org/1999/xlink">
    <title>E0F3A659-3544-432C-AF41-873A36DFC4F2</title>
    <g id="Page-1" stroke="none" stroke-width="1" fill="none" fill-rule="evenodd" opacity="0.150319417">
        <g id="UiKit_Icons" transform="translate(-175.000000, -3076.000000)" fill="#4C9EEA">
            <g id="Group" transform="translate(175.000000, 3076.000000)">
                <path d="M30,0 C36.6114687,0 42.7234166,2.13870271 47.6817487,5.76201317 C47.656769,5.90986276 47.6332064,6.07215282 47.6117336,6.23792137 L47.5834786,6.46848141 C47.5761579,6.53179917 47.5692245,6.59489902 47.562749,6.65718809 L47.5447669,6.84103009 C47.4624309,7.74214979 47.4990085,8.3274501 47.8927741,6.59602253 L47.922,6.46 L47.9077387,6.50918422 C47.8568909,6.65418839 47.925697,6.0486991 47.9402678,6.22293031 L47.94268,6.28361783 L47.942,6.3 L47.9450112,6.15736158 C47.945616,6.0838047 47.9458569,6.01459382 47.9457538,5.94956468 C50.6290723,7.96332189 52.9649864,10.4076485 54.8477202,13.1842359 C54.4847511,12.8365624 54.0152997,12.3922222 53.4195561,11.8344625 L53.274,11.698 L53.3193243,11.7378976 C54.1800211,12.4958058 54.056965,11.7644003 53.3082881,11.653733 L53.234,11.645 L53.2927567,11.6518166 C53.2999548,11.6421562 53.3048035,11.6330595 53.3074793,11.6247487 L53.3091644,11.6023959 C53.341781,11.5415896 53.3746526,11.4701458 53.406801,11.3869022 L53.403,11.394 L53.403,11.393 L53.404,11.392 L53.404,11.391 C53.3759208,11.4020579 53.3468882,11.4174147 53.3196269,11.4328823 L53.2430808,11.4795267 L53.2303524,11.4884553 C53.1747807,11.371842 53.1392118,11.3527038 53.1190516,11.3855028 C53.1045257,11.3701474 53.1013099,11.3879418 53.105072,11.4247174 C53.1002588,11.447377 53.0974817,11.4759554 53.09646,11.507876 L53.095632,11.5522459 C53.0864206,11.5566176 53.0782964,11.5618836 53.0741989,11.568349 C52.8476691,11.5267404 52.3078026,11.5356211 51.8863279,11.7090918 L51.8181818,11.7391088 C52.4565473,11.7391698 52.8323512,11.7121161 53.0215555,11.6780942 C52.8876837,11.8587687 52.9793263,11.9771538 53.1337307,11.8409625 C53.1572434,11.9218853 53.18885,11.9521346 53.220141,11.8528032 C53.2496033,11.9259139 53.2693659,11.9384663 53.2545648,11.8017251 C53.4244825,12.0295022 53.8694627,12.4716518 54.3475999,12.9192851 L54.627466,13.1785465 C54.6741463,13.2213534 54.7206979,13.263832 54.7669011,13.3057925 L54.9042452,13.4299297 L55.0381792,13.549819 C55.0811641,13.588106 55.1233944,13.6255333 55.1646639,13.6619232 C58.2233658,18.36316 60,23.9741024 60,30 C60,32.2996853 59.7412435,34.5389347 59.251257,36.6902217 C58.6944145,36.9066262 58.3796016,37.3763627 58.9052697,38.0533784 C55.3877608,50.7110094 43.7786604,60 30,60 C19.0435841,60 9.45898053,54.1265734 4.22300864,45.3565395 C4.24291189,44.6314177 4.25192357,44.1137558 4.25355592,43.7596648 L4.25358393,43.5468166 C4.24908779,42.6943153 4.18438903,43.2341723 4.14847702,43.9755158 L4.1410066,44.1430915 C4.12590626,44.5136621 4.11911487,44.9108361 4.130761,45.1990713 C1.50520344,40.7414746 0,35.5465168 0,30 C0,24.4140342 1.52669073,19.1846462 4.18557695,14.7063312 C3.68810019,17.2573665 3.94822661,17.9903409 4.24679505,14.6047007 C9.48804445,5.85563175 19.0601942,0 30,0 Z M41.7457684,49.9901205 L42.2727273,50.979021 L42.2140909,50.9535265 C42.1063954,51.0772089 42.5190348,51.0748825 42.2636526,50.9164422 L42.263,50.928 L42.2610314,50.9181728 L42.2431973,50.8174792 C42.2313978,50.7579148 42.2188112,50.6995886 42.2052429,50.6441043 C42.2556874,50.7474559 42.2979968,50.8238678 42.3314124,50.8754197 C42.2446872,50.8821839 42.2442661,50.9065042 42.3981631,50.9590434 C42.4209466,50.9794996 42.4383603,50.9835862 42.449564,50.9735943 C42.5103869,50.9919961 42.5884707,51.013319 42.6861827,51.0378689 L42.6623408,51.0315074 C38.9653952,53.2620939 34.6325701,54.5454545 30,54.5454545 C27.1647682,54.5454545 24.4418118,54.064746 21.9081882,53.180386 C21.9033461,52.9244978 21.8905785,52.536303 21.8679823,51.9829568 L21.8650909,51.9445265 L21.8651548,51.9928997 C21.8608163,51.9991191 21.841159,51.6954712 21.8493897,51.7152749 L21.8530909,51.7385265 L21.8503104,51.7087664 C24.3856147,52.660994 27.1319848,53.1818182 30,53.1818182 C33.9998087,53.1818182 37.7630201,52.1688245 41.0470781,50.3853932 C41.32208,50.5423984 41.6439028,50.7042033 42.015069,50.8681955 L42.2150909,50.9535265 L41.726723,50.0013231 C41.7330734,49.9975919 41.7394219,49.9938577 41.7457684,49.9901205 Z M13.8590906,11.507065 C14.1411358,11.5519099 14.7136363,11.6293391 15.7024467,11.7503862 C13.8654543,13.1922009 12.2508953,14.9055361 10.9199958,16.8300258 C10.6036162,16.9027552 10.2221745,16.9953321 9.77086365,17.1115547 L9.60309091,17.1545265 L9.56809091,17.1635265 L9.55809091,17.1665265 L9.54545455,17.1700573 C9.97946625,17.1497492 10.4019366,17.1001268 10.7796835,17.038281 C9.67221237,18.6743458 8.76996646,20.459652 8.10751654,22.3574372 C6.34891648,21.4562357 6.63904427,23.5040627 7.50341663,24.3810283 C7.36235762,24.9491656 7.24167015,25.5266117 7.14288796,26.1115022 C6.7217829,26.2423566 6.74991795,26.6362577 7.00148527,27.0780996 C6.88017433,28.0355263 6.81818182,29.0105236 6.81818182,30 C6.81818182,30.4171942 6.82920241,30.8318145 6.85096835,31.2435855 C6.71748566,31.4480648 6.53834809,31.7471784 6.87216051,31.258616 L6.85322628,31.2855862 C7.00274692,34.0210912 7.6265262,36.6303187 8.64375338,39.0324581 C8.48330412,39.0345582 8.32623353,39.0680975 8.18181818,39.1697707 C8.39226532,39.2339229 8.58651748,39.2894686 8.76583116,39.3132726 C11.2525959,44.9768757 15.938849,49.4551943 21.7432686,51.6682588 L21.7496853,51.7942848 L21.7605153,51.986184 L21.77262,52.1844641 L21.7861861,52.3920962 C21.80494,52.670097 21.8256447,52.9419525 21.8447396,53.1572692 C12.2976739,49.7963419 5.45454545,40.6973201 5.45454545,30 C5.45454545,22.6797167 8.65904701,16.1078848 13.7417831,11.6107714 Z M12.2727273,51.0507791 C11.3846261,50.8463769 10.7922478,50.6643094 9.54545455,50.9093926 C10.6080041,51.1626519 11.2446942,51.2637562 12.2727273,51.0507791 Z M47.8810788,46.8151687 L47.8434381,46.8556277 C47.8344035,46.14026 47.8295162,45.8281951 47.8274465,45.7529357 L47.826,45.745 L47.8269867,45.9133794 C47.8279288,46.0378059 47.829681,46.2120231 47.8318485,46.3865539 L47.8335457,46.5167377 C47.8352965,46.6445587 47.8372228,46.7656903 47.8391614,46.8596825 C46.3681861,48.415524 44.6957634,49.7791491 42.8636683,50.9087114 C42.7203188,50.8917107 42.582937,50.8799361 42.4784698,50.8770331 C42.4900823,50.6114281 42.3249199,49.9057819 42.2002299,49.715612 C44.2350814,48.453573 46.0600885,46.8854876 47.6109157,45.0755442 C47.6109907,45.2949769 47.6113139,45.5145082 47.611702,45.7342657 C47.8071477,45.4329442 47.8932056,45.1324697 47.8177745,44.8324056 C48.8739359,43.5634927 49.7985343,42.1797407 50.568691,40.7026512 L50.660385,40.705181 C51.251688,40.721621 51.7338392,40.7053894 52.112082,40.671101 C51.0164752,42.9342704 49.5847974,45.0041429 47.8810788,46.8151687 Z M26.78161,31.3398451 C25.3537696,30.8643559 25.9534794,31.2262788 26.6420963,31.4145971 L26.7763606,31.4486986 C26.8520905,31.4663854 26.9273829,31.4812097 26.999697,31.4918463 L27.3879802,33.3816496 L25.4082907,34.1021976 L25.9287822,36.5401873 L27.7915491,35.4983971 L28.5867677,39.251166 L26.7240008,40.2929561 L26.876494,41.0177757 C26.6612515,41.4036839 26.3473894,42.0261609 25.9090909,42.965204 L26.052027,43.0146395 C26.9936511,43.3209661 26.7156839,42.812862 26.3460526,42.7333752 L26.2990909,42.7255265 L26.314941,42.70715 C26.5052912,42.4636234 26.7071631,42.0854501 26.8762453,41.7099371 L26.9465724,41.5495661 C26.955895,41.5277316 26.9650827,41.5059738 26.9741267,41.4843208 L27.8229091,45.5520729 L23.5755752,47.097976 L22.6415032,42.6277268 L21.851,43.068 L21.8409703,42.9987823 C21.8307176,42.9422354 21.8218405,42.9065301 21.8144954,42.889219 L21.8076669,42.8779485 C21.8185506,42.7475617 21.8320003,42.5579186 21.8484004,42.2973713 L21.8550909,42.1815265 L21.8497497,42.2097916 L21.8496331,42.1487939 C21.8511356,42.0261512 21.8592063,41.7957628 21.8606123,41.8951932 L21.86,41.928 L21.8620827,41.8830794 C21.8649429,41.6237781 21.8667459,41.4063573 21.8676423,41.2262547 L21.868147,41.0981037 L21.868193,40.882074 C21.8675303,40.6603643 21.8644374,40.5424633 21.8597216,40.503921 L21.8983641,40.4739232 C22.1227674,40.2875385 21.4814228,40.6324459 21.7615844,40.5474816 L21.8052563,40.5327617 L21.8363751,40.5223451 L21.8504029,40.5096146 C21.834033,40.6210277 21.8097163,41.1783191 21.7917445,41.7487431 L21.7851897,41.9673657 C21.7759408,42.2926204 21.7693841,42.603968 21.7681867,42.819275 L21.768535,42.978388 C21.7697252,43.0662291 21.7729141,43.1150474 21.7785994,43.1095177 L18.801019,44.7725086 C18.8892433,44.5872803 18.9840863,44.3727952 19.0909091,44.1269387 C18.4502954,43.5391348 17.989288,43.193848 17.6320302,43.124777 L17.2728574,41.4288343 L21.8462846,38.8749579 L21.1609568,35.6481007 L16.9856117,37.1678021 L16.25535,33.593501 L16.1911571,30.1623326 C16.4503379,29.8101792 16.3950316,29.4813181 16.1730797,29.2240422 L16.1627336,28.7042172 C16.1865261,28.7076446 16.2194653,28.7105845 16.2567497,28.7129371 C16.2170373,28.9164186 16.2335477,29.1019312 16.386048,28.8150753 C16.4576696,28.8660713 16.4945697,28.8558242 16.5044192,28.8175026 C16.6627616,28.840219 16.9640794,28.8578166 17.4551095,28.8668838 L17.4157742,28.8650896 C17.3003161,28.8539664 17.8600343,28.8029407 17.5442341,28.8533788 L17.545,28.853 L17.6900024,28.8322368 C19.1671864,28.6110315 19.2940626,28.5245058 18.8977782,28.5122822 L18.8455777,28.5111368 L18.7208931,28.511122 C18.5189183,28.5134155 18.2533305,28.5258629 17.9734313,28.5448656 L17.7537053,28.5609045 L17.5333625,28.5792108 C17.3387554,28.5963793 17.1495269,28.6157891 16.9825146,28.6363576 C16.802212,28.6280527 16.6278304,28.6235409 16.5103831,28.6253448 L16.4700909,28.6265265 L16.476,28.61 L16.4719255,28.6196168 C16.4564569,28.6430998 16.4615596,28.5990917 16.4726056,28.5812193 L16.4850909,28.5755265 L16.4699663,28.5134099 C16.4171226,28.350192 16.3527988,28.413818 16.3056484,28.5358872 C16.2961411,28.5404224 16.2866006,28.5469443 16.2770991,28.5556967 L16.2580909,28.5775265 L16.1997668,28.5717047 C16.1880079,28.5706712 16.1755611,28.569666 16.1624109,28.5686902 L16.1568924,28.3792602 C16.2242143,28.3534676 16.29312,28.3259072 16.3636364,28.2965221 L16.3124576,28.0957343 C16.2581147,27.8920967 16.2008184,27.7064502 16.1411092,27.5376496 L16.1393729,27.45114 L16.1130909,27.4601461 C15.5538051,25.9465017 14.7951531,25.8598001 14.265395,26.2927587 L13.8873369,24.5115636 L16.0829925,23.7124104 L16.0824923,23.4238791 C16.5032586,23.3864654 16.4083378,23.368761 16.0829028,23.3686167 L16.0772692,22.0167675 L15.3275838,21.0769692 L19.6469063,19.5048644 L19.7184223,22.3892221 L25.1535699,20.4109902 L25.8938431,23.9008032 L20.1640523,25.9853572 C19.8435079,26.0035278 19.5453571,26.0260724 19.344665,26.0495592 L19.2548875,26.0429869 C19.1838372,26.0378909 19.1329238,26.0345532 19.1080366,26.0334667 L19.0900909,26.0325265 L19.3250323,26.0524051 C19.1441774,26.0747465 19.0510233,26.098061 19.1075862,26.1197491 C19.0732827,26.1337581 19.0901627,26.1466794 19.1744809,26.1577598 C18.6466288,26.8243186 18.8045319,27.3088838 19.0243063,27.3708904 L19.2654569,26.1665938 C19.3754839,26.1751217 19.5415183,26.1818867 19.7746523,26.1862622 L19.9073052,31.9223413 C19.6998984,32.0710604 19.4779506,32.2510378 19.2426435,32.4665939 L19.0909091,32.6088029 L19.2840857,32.6181165 C22.0951427,32.7166418 22.3622724,31.0712523 21.0862838,31.341142 L20.2395132,27.2927385 L21.732,26.748 L21.7380516,26.8451982 C21.7682544,27.296134 21.8340485,27.6664231 21.8940563,27.0607914 L21.9039969,26.950663 L21.912,26.83 C21.9067044,26.8663798 21.9006171,26.8396088 21.896209,26.8035429 L21.8932612,26.7755004 C22.4512381,27.1797522 23.1423001,27.0227027 23.9768051,27.2020842 L24.3610753,29.0423246 C23.7809271,29.2681686 23.3761872,28.6325143 24.0701512,28.7815848 L24.159,28.803 L24.1213282,28.7923197 C23.6818209,28.6694892 23.2903002,28.6650767 22.9595168,28.7317367 L22.8215083,28.7645186 C22.336295,28.6331262 22.0559897,28.5623305 21.9205083,28.5323575 L21.8509833,28.5182064 C21.7110499,28.4940173 22.0401947,28.5998016 22.4334885,28.7022948 L22.5655539,28.7359424 C22.630888,28.7521966 22.6967343,28.7679765 22.7613612,28.7827122 L22.7284513,28.7926463 C21.2696584,29.2728139 21.352994,31.1623299 24.5454545,28.9429463 L24.366,29.064 L24.6650376,30.492203 L26.6447272,29.771655 L26.9798938,31.4068296 Z M36.3485401,24.1782315 L36.8012785,26.3315762 C34.4087451,27.1182014 35.6954733,28.5417231 36.8985231,28.6782243 L36.892,28.682 C37.034522,28.6935746 37.1684451,28.6925988 37.2959848,28.6726927 L37.3125841,28.7556087 C37.0675937,28.742563 36.8867887,28.7334592 36.8339765,28.7319684 L36.8180909,28.7315265 L37.0734048,28.7461888 C37.156376,28.7508117 37.2368807,28.7552949 37.3149636,28.7596366 L39.4354949,38.8192703 L39.4785152,39.0704609 C39.5586485,39.6499414 39.4970518,40.1830049 39.293725,40.6696515 C39.0613515,41.2258191 38.7052023,41.5912421 38.2252776,41.7659204 L36.7248579,42.310812 C35.5944769,42.4112486 35.3353662,42.5929165 35.4993229,42.7578894 L35.02178,42.9318981 L35.8279557,40.77906 L35.2135445,37.9710338 L33.3058437,38.6653801 L34.2658986,43.2070165 L30.5224857,44.5695074 L27.4533579,29.967637 C27.5009799,28.3479332 27.3918868,28.5031577 27.2796417,29.1428733 L26.9540136,27.5975595 L29.070276,26.8268368 C28.3456879,27.394679 27.4599312,28.114875 27.2969127,28.5864182 L27.283,28.638 C27.1781022,28.5520802 27.1801059,28.8164707 27.2920802,28.7457072 L27.3392305,28.7021245 L27.3273499,28.7091786 C27.3223593,28.7072458 27.3230355,28.6954205 27.3282192,28.6939747 L27.337,28.699 L27.3292896,28.6875429 C28.7903748,28.6456334 29.1305364,27.9159634 29.3998161,27.1898501 L29.4837203,26.9614757 C29.5258523,26.8477942 29.5689792,26.7360277 29.6172737,26.6289235 L36.3485401,24.1782315 Z M38.2231838,40.3843162 C38.1390904,40.4186019 38.1024203,40.4563408 38.0958146,40.4896766 C37.9135768,40.496069 37.4153671,40.6876927 36.3558804,41.1829347 C36.7567605,41.4311545 37.071214,41.6501785 37.3122527,41.8428499 L37.3250909,41.8535265 L37.3277057,41.8390813 C37.4007381,41.4297128 38.0717303,40.8245716 38.1696423,40.5894752 C38.2426095,40.6114341 38.3265438,40.5681733 38.2231838,40.3843162 L38.223,40.385 L38.2298107,40.4075759 C38.2276511,40.4171019 38.2150732,40.4157188 38.2084958,40.4097383 L38.2051823,40.3981084 Z M53.281614,28.814176 C53.4115319,28.8351316 53.6566043,28.8457031 53.9468091,28.8476193 L54.2182884,28.8470536 L54.3122368,28.8458748 L54.5027956,28.8420941 L54.5185791,28.8411034 C54.53643,29.2251623 54.5454545,29.6115273 54.5454545,30 C54.5454545,33.6762518 53.7372613,37.1637399 52.288857,40.2944823 C51.8736892,40.3395977 51.3195861,40.4455784 50.6378363,40.6437119 L50.5927408,40.6563987 C52.030107,37.8844284 52.9242067,34.7853914 53.1340499,31.500278 C53.1785666,31.4977321 53.1943467,31.4859162 53.1711263,31.4623933 L53.1818182,31.4607268 C53.1669955,31.4497545 53.1522111,31.4390412 53.1374444,31.4285893 C53.1448857,31.3239981 53.1506469,31.2173663 53.1556852,31.1105452 L53.171,31.202 L53.1694651,31.1846988 C53.1538639,31.0640691 53.1859063,31.1125608 53.1929484,31.2168267 L53.1942241,31.2645964 L53.194,31.273 L53.2144882,31.0598751 C53.3212592,29.8397026 53.3263616,29.1619416 53.2895232,28.8679124 Z M22.1674042,40.438645 C24.9821552,39.5137748 20.9307997,38.1134223 22.0038891,40.4895105 L22.0024869,40.4697877 C22.0259029,40.3938471 22.373081,40.3556153 22.1607624,40.4379263 L22.0960909,40.4605265 Z M45.2591689,20.7733396 L47.4863502,31.336334 C47.2990313,31.3130959 47.0206382,31.2882849 46.7171519,31.2663316 L46.5035283,31.2516233 L46.2064126,31.2335407 C45.1543918,31.1744096 44.2288842,31.1756957 45.9795776,31.4086056 L46.2198395,31.4130924 C46.4498314,31.4170716 46.6493189,31.4195483 46.8210509,31.4207073 L47.128322,31.4213228 C47.2880881,31.4207163 47.4120512,31.4184596 47.5046732,31.4148525 L48.3461237,35.4143785 L48.3822518,35.6239544 C48.4222734,35.9192194 48.4153274,36.209752 48.3614137,36.4955522 C48.0754096,36.5145335 47.8993132,36.5315165 47.808129,36.5460172 C47.8119012,36.5062369 47.8110581,36.4771137 47.8062696,36.4601476 C47.8215931,36.3949309 47.8361711,36.2937254 47.849337,36.1484646 L47.856,36.044 L47.8549513,36.0596635 C47.8447812,36.1149287 47.8324927,36.0204042 47.8342336,35.9612751 L47.837,35.932 L47.8469271,35.9505402 L47.857,35.994 L47.8233849,35.8343333 C47.6214228,34.928328 47.5755042,35.2232396 47.5998524,35.6792422 L47.6037994,35.745369 L47.6155742,35.8952429 C47.6362091,36.1219776 47.6695556,36.3492994 47.7066265,36.468263 C47.6427677,36.551479 47.5962025,36.7070178 47.7304625,36.6932492 L47.7490909,36.6885265 L47.7388922,36.6852508 C47.7349572,36.6752137 47.7737843,36.6487488 47.7842916,36.6623394 L47.7857515,36.6809253 L47.8000532,36.6020806 C47.8990721,36.6183313 48.091455,36.6317442 48.3293603,36.6417167 C48.2614047,36.9160373 48.1530119,37.1796967 48.0028689,37.4391493 C47.6275112,38.0877809 47.091887,38.5387385 46.3959961,38.7920221 L42.3646284,40.2593199 L42.802872,39.2526415 C43.6268601,39.354449 44.289694,39.3635539 45,39.1987895 C44.3642133,39.1028401 43.7121325,38.9643546 42.8822949,39.0657226 L44.0939022,36.2748858 L42.0484777,26.5192931 C42.1453228,26.388935 42.2158718,26.271181 42.2502064,26.1732229 C42.2722,26.1453563 42.2775722,26.1232298 42.2678094,26.1065847 C42.2704164,26.0926625 42.2720686,26.0792695 42.2727273,26.0664336 L42.2484018,26.0875071 C42.2036866,26.0622761 42.0998045,26.0602761 41.9574733,26.0784317 L41.1558124,22.2668392 L45.2591689,20.7733396 Z M30.0632013,39.0982918 C29.7986997,38.7079094 29.834878,39.727775 30.1163325,39.1887398 L30.0894656,39.234259 C30.3174454,39.3119733 30.9700365,39.3616155 31.9201658,39.2595546 C32.0299257,39.2615877 32.1338789,39.2629629 32.2283958,39.2635753 L32.4637817,39.2632313 C32.7822656,39.2593982 32.8632692,39.2396287 32.4165742,39.1958485 C32.4644471,39.1887137 32.5128985,39.1812173 32.5619161,39.1733474 L32.684,39.152 L32.6053076,39.1655132 C32.5662445,39.1713979 32.5287879,39.1765909 32.492981,39.181141 L32.3905526,39.1929116 C32.2706266,39.1813326 32.1155149,39.1681363 31.9176914,39.1526297 C31.9964564,39.1221625 32.2627947,39.099359 32.7272727,39.1457353 L32.5117373,39.1249957 C31.0617128,38.9910157 30.2981988,39.0355433 30.0724858,39.1152836 Z M35.459,39.019 L35.4746226,39.0224291 L35.49,39.024 L35.5230909,39.0295265 L35.5665832,39.0371946 C35.5889907,39.0407924 35.613888,39.0447899 35.6404451,39.049054 L35.718,39.061 L35.6670909,39.0525265 L35.8599443,39.0828262 C37.0253975,39.2613382 37.7355331,39.3304318 38.0274238,39.3369259 L38.1092809,39.3368363 C38.4527007,39.325058 37.5678027,39.1430358 35.6439607,39.0299282 L35.459,39.019 Z M55.9690478,39.1783217 C59.9787404,35.7649974 58.6309815,36.2820672 57.2926135,37.400714 L57.1544152,37.5184456 L57.0857538,37.5786649 L56.947896,37.7033639 C56.3798247,38.2283447 55.9029959,38.8133744 55.9690478,39.1783217 Z M45.0581499,38.3200107 C44.7139181,36.5777299 45.0844162,40.5602508 45.0881689,38.6426883 L45.0870909,38.5025265 L45.0876482,38.4740515 Z M40.67871,23.5318856 L41.2499457,26.2456229 C40.5325838,26.4722469 39.6786451,26.8920007 39.5454545,27.3776224 C40.3338998,27.0942976 40.9197835,26.8630658 41.3419191,26.6782335 L41.3769911,26.8610108 C40.1613726,27.9524402 39.6523324,28.4738794 39.561072,28.6337901 C39.5459594,28.6368965 39.5414676,28.6405882 39.5505872,28.644881 C39.4804495,28.6530933 39.406258,28.7876032 39.612993,28.7080831 C39.5986832,28.7136025 39.5934299,28.6952163 39.592932,28.682086 L39.6025005,28.6784934 L39.606,28.688 L39.6047381,28.6775937 C39.6093073,28.6757358 39.6141228,28.6736532 39.6190826,28.6713389 L39.6342927,28.6636941 C39.7439726,28.6801733 39.9611305,28.7019807 40.3181578,28.7301608 C40.3726657,28.7344606 40.4283031,28.7387485 40.4870733,28.7431777 L40.556,28.748 L40.5020039,28.7432477 C40.4197915,28.7357885 40.3849851,28.7305285 40.3835135,28.7270191 L40.421455,28.7221789 C40.4682523,28.7204595 40.5532788,28.7210602 40.6480276,28.7230722 L40.7815965,28.7266374 C41.0947521,28.7366212 41.3736358,28.7568323 40.6787806,28.7573193 L40.8684501,28.7570463 C41.2619341,28.7561542 41.5598278,28.7533228 41.7776999,28.7490542 L43.2451732,35.7349348 L39.7897152,36.9926187 L38.2312645,29.5785102 C38.3048479,29.1883011 38.325976,28.9462684 38.3171922,28.8152639 C39.0835033,28.857632 39.4373964,28.8767007 39.5238423,28.8808112 L39.5356332,28.8808529 C39.4559215,28.8753739 38.9029597,28.8435664 38.31718,28.8099672 C38.3133363,28.756706 38.3044399,28.7223748 38.2921033,28.7043196 L38.3078505,28.6938633 L38.2507529,28.6448421 C38.0308944,28.4886363 37.9757663,28.8440304 38.1966121,28.7576868 C38.1889317,28.770956 38.1811889,28.7859617 38.1735542,28.8027463 C38.1682479,28.8024504 38.1629417,28.8021547 38.1576361,28.8018591 L38.066,28.796 L37.958191,28.2824653 C38.2190366,27.9172445 38.2876436,27.2804012 37.9683529,26.2718991 L37.903,26.079 L37.9183553,26.1353418 C37.9590772,26.3552789 37.7869791,26.4672599 37.5849057,26.5067292 L37.5073456,26.1486704 C37.575302,26.1313277 37.6518967,26.1139667 37.7378689,26.0967306 L37.722,26.099 L37.6810732,26.1070622 C37.6218438,26.1187289 37.5640045,26.1306818 37.5075314,26.1429088 L37.2232519,24.7895695 L38.11,24.466 L38.1387307,24.5173725 C38.1358805,24.5795637 38.1339771,24.63316 38.1333277,24.6736589 L38.1337923,24.7358595 C38.1364976,24.7849403 38.1471466,24.746371 38.1696439,24.5629539 C38.2266413,24.6372349 38.2982341,24.7008263 38.3870469,24.7552448 C38.3921945,24.6114828 38.3861438,24.4853413 38.3705197,24.3711454 L40.67871,23.5318856 Z M23.7307833,36.4248082 C24.9665144,35.928101 25.0842355,34.2772882 22.0273928,36.0360098 L21.8540909,36.1375265 L21.8181818,36.1587752 L21.9383746,36.2335475 C22.2900777,36.4403593 22.6289694,36.535264 22.9384572,36.552235 C20.6246495,36.9496984 22.2756485,36.9365379 24.4535156,36.3185066 L24.2293163,36.3505864 C24.0515854,36.3762858 23.8850242,36.4010309 23.7307833,36.4248082 Z M34.2115357,33.2021352 L32.3038349,33.8964815 L32.6574955,35.5898015 C32.6775243,36.1876208 32.7838921,37.2334588 32.8002993,35.9327086 L32.799,35.98 L34.651099,35.3057819 L34.2115357,33.2021352 Z M24.6805209,32.2424677 C24.6618769,31.1751804 24.5471185,30.4754583 24.4187787,33.3233333 L24.4120909,33.4615265 L24.4154739,33.4196619 C24.4197749,33.3507259 24.4223928,33.3466753 24.4234347,33.3717552 L24.4231642,33.4622591 C24.4215864,33.523089 24.4176711,33.5875356 24.4080909,33.5795265 L24.4275489,33.661251 C24.5825887,34.2913129 24.6569538,33.727107 24.6772552,32.9939572 L24.6812196,32.8077434 C24.6831322,32.6820456 24.6836046,32.5540284 24.68276,32.4284385 Z M30.047745,29.0438142 C29.963606,28.4274063 29.9279003,28.7169766 29.9247011,29.133184 L29.924994,29.2936758 C29.927918,29.5659818 29.9427622,29.8497017 29.9656382,29.9545667 C29.9376181,30.3142149 29.906111,30.7618012 29.8729787,31.3048028 L29.8780909,31.2825265 L29.8879088,31.247835 C29.9754154,30.8999123 30.0382666,30.3954121 30.0777805,29.9261567 L30.0915069,29.7522127 C30.1146758,29.4377178 30.126892,29.1512149 30.1285837,28.9550368 L30.1284653,28.857363 C30.1252397,28.6121227 30.0978574,28.6019573 30.047745,29.0438142 Z M33.2095268,28.4332365 L32.846,28.565 L32.80865,28.5353398 C32.8285045,28.4759146 32.8244134,28.4727966 32.8070912,28.5003165 L32.7917861,28.5262999 C32.668295,28.4507904 32.6075527,28.4950262 32.5889577,28.5746253 C32.5120532,28.5727404 32.4762549,28.6043848 32.5635433,28.6979531 L32.545,28.675 L31.301826,29.1275828 L31.7154065,31.1598424 L33.6231073,30.4654961 L33.2095268,28.4332365 Z M30,5.45454545 C35.6527494,5.45454545 40.8591984,7.36538481 45.008649,10.5763655 C45.0209672,10.821618 45.0457208,11.0993219 45.0852881,11.4135944 L45.103,11.541 L45.1021586,11.5270127 C45.0292985,10.7465391 45.5524867,11.4913351 45.2294524,11.6239581 L45.1773923,11.638509 L45.1159608,11.6433566 C45.5213188,11.6433566 45.8099987,11.547722 46.0068536,11.392979 C50.8914174,15.5969179 54.1018786,21.6925437 54.5029221,28.5429173 C53.8687503,28.614492 53.498731,28.6712221 53.3189549,28.7155731 C53.2981779,28.7105069 53.2783169,28.7058095 53.2594551,28.7014731 L53.2544969,28.6773914 C53.224301,28.5769256 53.1646187,28.595413 53.1272629,28.6421043 L53.1418597,28.6274754 C53.1148019,28.1640652 53.0741316,27.7043107 53.0202427,27.248606 C53.1362922,26.9470915 53.1901911,26.6221149 53.1807649,26.2678938 L53.1710909,26.1235265 L53.1869619,26.1188193 C53.246246,26.2439389 53.2730408,26.225796 53.2305307,26.1260997 L53.2996075,26.1348545 C53.5926117,26.1696167 53.4271737,26.1054169 53.2286119,26.0512761 L53.2231927,26.0381926 C53.2064184,26.0053991 53.1862245,26.0007309 53.1699313,26.0117287 C53.1535439,25.9851576 53.1344206,25.9564705 53.1123316,25.9260526 L53.113,25.928 L53.1265265,25.9678669 L53.1402281,26.0059834 L53.1468718,26.0300292 C52.9339151,25.9773609 52.7490333,25.9529813 53.1079306,26.0890801 L53.114,26.091 L52.9487618,26.1766287 C52.9230026,26.1908243 52.8979644,26.2051365 52.8736257,26.2195614 C52.7624989,25.5328355 52.6194273,24.8551298 52.4474899,24.1890279 C52.6158057,24.0197322 52.796695,23.8364367 52.9907185,23.6388948 L53.1079938,23.5176946 C53.1040117,23.5777974 53.1389275,23.5995549 53.2559428,23.4749061 C53.2559428,23.238631 53.1747912,23.3218837 53.1300817,23.4257091 C53.1128149,23.4408931 53.1087666,23.4555443 53.1140586,23.4686469 C52.945175,23.5434992 52.6875023,23.7418033 52.3978166,23.9975231 C49.7528953,14.1046058 40.7273654,6.81818182 30,6.81818182 C29.1602761,6.81818182 28.3309804,6.86282974 27.5143571,6.94988117 C27.4798479,6.62602734 27.4071562,6.18526493 27.2831874,5.60588723 C28.1748649,5.50499113 29.0815413,5.45454545 30,5.45454545 Z M41.4476618,27.1874447 L41.7596499,28.6712126 C41.6060744,28.6631592 41.4285379,28.6554541 41.2421591,28.6485846 L41.0605121,28.642246 L40.9685767,28.6393005 L40.7443701,28.6328416 C40.3218858,28.6216502 39.9208074,28.6166731 39.7071214,28.6239183 C39.9502885,28.4787455 40.4332281,28.106948 40.9151808,27.6820501 L41.1227304,27.4955933 C41.1456246,27.4746238 41.1684365,27.4535894 41.1911394,27.4325095 L41.3258357,27.3056365 C41.3670634,27.2662225 41.4077292,27.2267838 41.4476618,27.1874447 Z M39.8297278,12.2397622 L42.5468472,16.1956803 C42.3566042,16.3957183 42.237449,16.6129245 42.3027666,16.7958347 L42.2686055,16.804137 L42.213,16.884 L42.255,16.8 L42.2496528,16.8096381 C42.2400528,16.8125872 42.2305426,16.815759 42.2212346,16.819122 L42.1940297,16.829753 L42.164646,16.8220945 C42.0793333,16.8047828 42.0700332,16.8398984 42.111976,16.8788547 C42.0678227,16.921887 42.0932975,16.9682817 42.2879586,16.9902002 C42.2558878,16.9866288 42.2502296,16.9818669 42.2552617,16.9782954 L42.265182,16.9805996 C42.274547,16.9813905 42.2840902,16.9806947 42.2920909,16.9855265 L42.3136022,16.9707025 C42.3176508,16.9684309 42.321428,16.965787 42.3294822,16.9577663 L42.391927,16.9575349 L42.4577388,16.9486586 C42.431989,16.9342829 42.4077528,16.9213046 42.389625,16.9097625 C42.4415173,16.8621589 42.4574688,16.8304941 42.4499638,16.8104342 C42.5720352,16.7129458 42.6829962,16.6222321 42.7835902,16.5379558 L45.2052955,20.0653511 L40.4540407,21.7946664 L39.193,19.453 L39.3048611,19.4369481 C39.3563771,19.4290352 39.3988895,19.4220184 39.4330747,19.4158489 L39.4781917,19.407224 C39.5446341,19.6608732 39.6309218,19.4923588 39.718746,18.3915364 L39.725,18.294 L39.7205683,18.3403989 C39.6926136,18.5788077 39.6913985,18.0649655 39.7196526,18.1018375 L39.7280909,18.1265265 L39.7030033,17.9528888 C39.6369905,17.526718 39.5817901,17.2471144 39.5365959,17.0834578 C39.5725214,17.0722173 39.6171369,17.0510205 39.6733446,17.0103958 C39.6756562,16.9956209 39.679525,16.9611925 39.6810909,16.9335265 L39.68,16.941 L39.677,16.958 L39.6807421,16.9136372 C39.6951235,16.6354917 39.6025903,16.6488285 39.5191348,16.7451908 L39.4918116,16.7801007 C39.4196085,16.7934874 39.4157414,16.8329367 39.4427336,16.8751877 C39.4403878,16.8805512 39.4381358,16.8859264 39.4366788,16.88955 C39.3841663,16.9126525 39.3594383,17.2115351 39.3558048,17.5997886 L39.3558381,17.8152697 C39.3610203,18.3974961 39.4055172,19.090523 39.470898,19.3754452 C39.4038542,19.3746668 39.2950788,19.3784386 39.158934,19.3856179 L38.3103968,17.8144238 C38.3102196,17.505692 38.3100084,17.1972369 38.309682,16.8881119 C38.1983737,17.0532216 38.1160587,17.2182041 38.0774554,17.3830595 L37.6874728,16.6574636 L32.8499185,18.4183834 C32.8386545,18.0593138 32.7806491,18.1899589 32.723654,18.4641907 L32.2189713,18.6485287 C31.8148298,18.2373835 31.1426874,17.6634336 30.1090909,16.8945265 L30.114,16.898 L30.1876295,16.9577058 C30.6453022,17.3481557 30.6151737,17.7787521 30.4626212,17.9895679 L30.4254099,18.0341979 L30.4010909,18.0565265 L30.4364214,18.106511 C30.7646644,18.554587 31.2620908,18.9447626 31.7095847,19.1996135 L31.2806384,23.3896063 C30.0323739,23.5389803 29.1719862,23.7524367 31.270736,23.4787237 L31.0955085,25.2008936 L26.0922932,27.021915 L27.1865334,17.9329039 L26.0798843,17.244296 L27.1076217,16.8705587 C27.1321946,16.8884579 27.1615912,16.8924015 27.1931369,16.881462 C27.2189362,16.896773 27.2525571,16.9125685 27.2885897,16.9231886 C27.0557131,17.1838626 29.4553767,18.7857853 30,17.9257389 L29.7681859,17.8099294 C28.2133524,17.0398697 27.5155553,16.8344934 27.327008,16.8990859 C27.2898578,16.8814039 27.2594327,16.8683525 27.2352268,16.8598311 C27.2537836,16.8464317 27.2726595,16.828193 27.2913757,16.8049616 L37.6949953,13.0168726 C38.392367,13.8242829 39.2882724,14.6001074 39.5202273,14.1159952 L39.5389673,14.0699249 C39.0456817,13.5532331 38.631852,13.1340553 38.2879927,12.7988012 L39.8297278,12.2397622 Z M32.715,23.279 L32.72,23.278 C32.5500748,23.2806507 32.3594836,23.2901443 32.1643661,23.303969 L31.9680682,23.3191671 C31.9003399,23.3248358 31.8324261,23.3309408 31.7646865,23.3374052 L31.4759479,21.9903493 L38.05,19.597 L38.1246766,19.5892184 C38.128394,19.5999727 38.135871,19.6071343 38.1453139,19.6102977 L38.1607283,19.6119935 L38.1864361,19.6026269 L38.2112114,19.5780555 C38.6143097,19.5304575 38.9120275,19.4926878 39.122626,19.4634247 L39.045,19.473 L39.6421418,22.2518616 L39.417,22.333 L39.434,22.306 L39.415,22.334 L38.8254744,22.5481136 C38.9633123,22.3588688 39.1633818,22.1862517 39.4029676,22.1452739 L39.4769286,22.1369951 L39.5454545,22.1370581 C38.5935479,22.0848499 37.8727626,22.5276201 37.4119455,23.0631987 L32.1193216,24.9899442 L31.7789699,23.4107368 C32.0565223,23.3728005 32.3715112,23.3285897 32.7272727,23.2773893 L32.586,23.297 L32.4811713,23.3127674 C32.467499,23.3147328 32.4542539,23.3166369 32.4417566,23.3184334 L32.42,23.321 L32.4494473,23.3173278 C32.489396,23.311585 32.5425898,23.3039382 32.6115922,23.2940188 L32.713,23.279 L32.717,23.278 L32.715,23.279 Z M21.9465822,22.2138725 C21.938662,21.8895899 21.8112427,22.5924086 21.7400177,23.3727079 L21.7185983,23.6343746 C21.6892666,24.0418231 21.680292,24.4417346 21.7161677,24.7017229 L21.7230909,24.7485265 L21.724,24.752 L21.7560007,24.4673312 C21.7860327,24.1892594 21.8118328,23.9404916 21.833599,23.719034 L21.8540278,23.506606 C21.9278579,23.5139818 22.1071522,23.5091379 22.3109689,23.4980616 C22.4016536,23.4968246 22.5066155,23.4948658 22.6272575,23.4920894 L22.7654152,23.4744371 C22.8768114,23.4597973 22.9628706,23.4473505 23.0253995,23.4374082 C23.1262274,23.4242182 23.1881579,23.4113852 23.1809995,23.4010737 C23.1855141,23.3957787 23.1711856,23.3923005 23.1431137,23.3905815 C23.0629258,23.3800914 22.851285,23.3750034 22.4452073,23.3798094 C22.7286384,23.3762675 22.3174952,23.4035161 22.4033495,23.3863627 L22.2893222,23.4016659 C22.1130001,23.4271193 21.9930383,23.4473018 21.9194572,23.4628162 C21.894782,23.4660504 21.8739532,23.4691889 21.8582631,23.4718201 C21.8600876,23.4527947 21.86188,23.4340028 21.8639555,23.4182809 C21.8787411,23.3772772 21.8933824,23.3293898 21.9070705,23.2742133 L21.8727384,23.3185741 C21.9207164,22.8023519 21.942373,22.4793896 21.9463037,22.3032283 Z M33.6770565,23.2026567 C31.8802626,23.1334946 32.9875585,23.3966966 34.0930118,23.5653741 L34.3132169,23.5977228 C35.4419191,23.7570389 36.3617946,23.7850356 33.8665238,23.2106966 Z M42.2664772,19.5064138 C40.3206056,19.2062591 40.3197783,19.2067211 39.5454545,19.6391924 C40.4047383,19.7502675 41.2092487,19.7967316 42.2663685,19.5080106 C42.2702219,19.5274403 42.2747285,19.5488997 42.2799483,19.5723659 L42.2928801,19.6286861 L42.297,19.642 L42.2882587,19.5692029 C42.2592849,19.3508806 42.2337072,19.3162495 42.2558501,19.4488723 Z M30.084,16.963 L30.0640415,17.0520432 C29.8631013,18.0474484 30.1805561,18.2368123 30.4010909,18.0565265 L30.3856498,18.0347331 C30.1556849,17.697597 30.025422,17.3308062 30.084562,16.9661974 L30.084,16.963 Z M39.4533701,14.3340424 C36.1123552,13.9068361 36.2997105,14.325321 38.0696649,14.380258 C38.0609904,14.4590221 38.0559575,14.574225 38.0539931,14.7125839 L38.0539861,15.0162405 C38.0552344,15.1251271 38.0576768,15.2403695 38.0611435,15.3580321 L38.0678406,15.5557024 L38.071846,15.6549528 L38.0610909,15.6645265 L38.0500805,15.6374126 L38.0444803,15.6243271 L38.024,15.577 L38.0328183,15.6325193 L38.0413549,15.6867317 L38.0133963,15.7123341 C37.7281101,15.9912998 37.3966287,16.3170274 37.0138623,16.6948403 L36.8181818,16.8881119 C36.9116114,16.871015 37.29129,16.535512 37.7389869,16.109847 L37.8685626,15.9859723 C37.9318054,15.9251982 37.9959462,15.8631234 38.0600379,15.8025429 C38.0691747,15.8582198 38.0781409,15.9114413 38.0869568,15.9612874 C38.1256113,16.6457244 38.1905378,17.176885 38.2451667,16.7129289 L38.245,16.713 L38.2652322,16.7784034 C38.3474801,17.0269912 38.36775,16.8258649 38.2930172,16.449496 L38.2740697,16.3596558 C38.2854473,16.1665556 38.2959709,15.9143571 38.3052159,15.5932172 L38.3060909,15.5585265 L38.4197803,15.4466649 L38.6604107,15.2059292 C39.0329298,14.8308425 39.3502708,14.4999166 39.4812516,14.3503529 L39.5160909,14.3475265 L39.5290909,14.3465265 L39.5454545,14.3459157 L39.4917779,14.3382594 C39.5687583,14.2492302 39.5681601,14.2358076 39.4533701,14.3340424 Z M39.4310909,14.3535265 L39.3570909,14.3595265 L39.3884667,14.3576224 L39.4320305,14.3546535 C39.2815993,14.487988 38.9719134,14.780161 38.4465139,15.2902221 L38.3090909,15.4225265 L38.2791843,15.453105 C38.2786048,15.4378841 38.2781267,15.422487 38.2777678,15.4073571 L38.2771857,15.3233305 C38.2783164,15.2496036 38.2850107,15.2174153 38.3010909,15.3225265 L38.3,15.315 L38.2861109,15.1982596 C38.2392539,14.8366215 38.200701,14.5948955 38.1694847,14.4489391 L38.1544835,14.3838299 C38.510737,14.3925152 38.9264886,14.3865705 39.3871223,14.356923 L39.4310909,14.3535265 Z M9.68190917,11.6917144 L9.682,11.679 L9.682,11.66 L9.683,11.658 L9.683,11.651 L9.6529761,11.8189472 C9.65142184,11.8281348 9.64987628,11.837299 9.64833936,11.8464393 C9.6130289,11.8839382 9.57837022,11.9229881 9.54382217,11.9621379 C9.54407201,11.8810311 9.52461073,11.8127369 9.48919456,11.7592972 C9.49832285,11.7442239 9.50699949,11.729807 9.51524061,11.716026 L9.52811342,11.7064345 L9.61009091,11.6405265 L9.65802811,11.5739202 C9.71513073,11.4847545 9.69154667,11.4869843 9.64034566,11.5264779 L9.611,11.549 L9.6349832,11.5025414 C9.68485765,11.3988032 9.61314882,11.4815321 9.54005568,11.5972114 L9.51281562,11.6418359 L9.49161039,11.6650937 C9.47485853,11.6826769 9.45921038,11.6998106 9.44687859,11.7146711 C9.42141109,11.6922001 9.39125824,11.6746941 9.35557775,11.6618461 C9.33998624,11.6392918 9.33138305,11.6382096 9.32861028,11.6543054 C8.92155,11.5532671 7.98740976,12.1354546 6.92245999,14.0724743 L6.886,14.137 L6.882,14.145 L6.881,14.146 L6.88,14.149 L6.878,14.153 L6.877,14.154 L6.88,14.149 L6.878,14.153 L6.877,14.154 L6.86520096,14.1769664 L6.842,14.22 L6.841,14.221 L6.84,14.224 L6.838,14.227 L6.837,14.229 L6.82988436,14.2436409 L6.81818182,14.2657343 C7.38358274,14.0544211 7.84863489,13.8189453 8.2244927,13.5782103 C4.77331247,18.1464488 2.72727273,23.8342853 2.72727273,30 C2.72727273,32.9467492 3.1946134,35.7843452 4.05921994,38.4427132 C4.00859409,38.6615846 3.96094302,38.9233433 3.9370217,39.1783217 L3.94,39.149 L3.939,39.157 L3.939,39.161 L3.938,39.165 L3.938,39.173 L3.98981894,38.9859191 C4.00642928,38.9247657 4.0220547,38.8665911 4.03670667,38.8113884 L4.077,38.655 L4.07653607,38.7815359 C4.07618603,38.8206198 4.07589076,38.8565446 4.0756471,38.8894277 L4.07506773,38.9790695 L4.074,39.086 L4.07134512,39.1001651 L4.06811926,39.1166514 C3.97811318,39.1804222 3.90344624,39.2984394 4.02758576,39.2758527 L4.04378404,39.272354 L4.06214527,39.267234 C4.06443469,39.2919909 4.06846696,39.3173593 4.07467541,39.3427404 L4.074,39.341 L4.08495854,39.2972119 L4.09179943,39.2576065 C4.12551644,39.2455212 4.16682753,39.2277572 4.21687447,39.2031018 L4.19767909,39.2069573 C4.18356621,39.2003827 4.21028742,39.1554963 4.21676567,39.1748956 L4.216,39.188 L4.21913509,39.1471404 C4.21677603,39.1160392 4.20712912,39.0968789 4.19286082,39.0868275 L4.16832562,39.0782281 L4.13885817,39.0811682 L4.12086832,39.0862723 C4.1280967,38.9879678 4.10117722,38.9992422 4.0810848,39.0649915 L4.081,39.063 L4.0828334,38.9976182 C4.08466141,38.9232536 4.08673403,38.8284217 4.08910893,38.7176824 L4.09158672,38.6018094 C4.09467844,38.5897751 4.09771625,38.5779084 4.10070075,38.566208 C6.20886601,44.9457105 10.6079027,50.2814627 16.3231917,53.6006797 C16.3599962,53.8048564 16.433287,54.0101258 16.4234261,53.5781255 L16.4241868,53.6590449 C20.4219279,55.9579436 25.0574219,57.2727273 30,57.2727273 C45.0623114,57.2727273 57.2727273,45.0623114 57.2727273,30 C57.2727273,29.5710442 57.2628241,29.1444015 57.2432341,28.7202879 C57.7275694,28.7501526 58.0720459,28.7637522 58.2974642,28.7662094 L58.4286757,28.7662771 C58.9247793,28.7601124 58.4903295,28.6732045 57.5810033,28.6306921 C58.0679292,27.9689223 58.384263,27.7267816 58.5343457,27.6466645 L58.5550909,27.6355265 L58.5190453,27.6362326 C58.3137941,27.6315784 57.8403948,27.4931403 57.1080785,26.6731312 L57.2663877,26.697154 C59.3822466,26.9912272 58.3287686,25.705643 57.0045852,26.167732 C56.4637343,22.314098 55.1162703,18.7186101 53.1389909,15.5574217 L53.162282,15.4231011 L53.1791763,15.2519813 C53.2467866,15.6247965 53.3157071,15.804361 53.2853294,15.0759223 L53.2780909,14.9295265 L53.2774157,14.9085871 L53.2387728,14.7451698 C53.0406063,13.9274399 53.0482548,14.303467 53.1093371,14.7828584 C53.00111,14.5394379 52.7591205,14.3636982 52.3012861,14.2961861 C51.2928099,12.8675575 50.1502207,11.539096 48.8918858,10.3302214 L48.8972252,10.3100856 C48.9054133,10.2804613 48.913399,10.250852 48.9211708,10.2213182 L48.965144,10.0455063 L48.9993884,9.89352495 C49.1846704,9.02507125 49.1245573,8.44678627 48.4818568,9.94453152 C43.6224189,5.46395273 37.1308024,2.72727273 30,2.72727273 L29.957,2.727 L29.9568951,2.71035728 L29.9540909,2.68252647 L29.9530909,2.66952647 L29.9520909,2.65452647 L29.9516535,2.63199043 L29.950742,2.61836141 L29.9483206,2.58215933 L29.9468963,2.56086399 L29.9450909,2.54652647 L29.9430909,2.51452647 L29.9420909,2.48852647 L29.94,2.474 L29.9432533,2.65515905 C29.9436397,2.67978817 29.9440342,2.70423832 29.9444367,2.7285091 L30,2.72727273 C26.5401984,2.72727273 23.2308678,3.37151557 20.1854272,4.54658224 C19.9832627,4.35069259 19.6510471,4.09526271 19.1452988,3.77622378 L19.1949761,3.81317762 C19.3871455,3.98205922 19.2866807,4.25631539 19.1920681,4.31018851 L19.1800909,4.31452647 L19.1847609,4.32743628 C19.2617958,4.51813411 19.3995206,4.67752985 19.5569172,4.80000746 C19.4213201,4.85440966 19.2863082,4.91170949 19.1518586,4.97006089 L19.0909091,4.97258638 C19.1040631,4.97526381 19.1170956,4.97800694 19.1300148,4.9808091 C18.1783754,5.39365647 17.2569636,5.85930147 16.3673095,6.37375363 C16.3851178,6.32706986 16.4043305,6.2031994 16.4254842,5.97372233 L16.4370909,5.83652647 L16.43826,5.82494729 L16.4213632,5.651592 C16.4014856,5.45685404 16.3840632,5.31999993 16.3680281,5.23517754 C16.3833,5.19624489 16.4017134,5.14345291 16.4237048,5.07415288 L16.4140087,5.09927886 C16.4030863,5.11701056 16.4162309,5.02804237 16.421612,5.04274474 L16.423,5.066 L16.4221812,4.97581529 C16.4129799,4.73925608 16.3643892,4.87372513 16.3322865,5.03891938 L16.3232062,5.08905911 C16.3029761,5.10711129 16.2922305,5.27150018 16.289637,5.47808113 L16.2891996,5.63930058 C16.2912636,5.96552328 16.3103389,6.32689511 16.34215,6.38921095 C13.8424472,7.83734451 11.5939699,9.67204239 9.67822587,11.8109591 L9.68,11.738 L9.68,11.724 L9.681,11.721 L9.681,11.695 L9.682,11.691 L9.681,11.692 Z M14.7032719,10.805034 C15.2502407,11.2585627 15.640995,11.5023306 15.9054413,11.5966327 L15.7837318,11.6883014 C15.5740313,11.655136 15.3269637,11.6216666 15.0764639,11.5908683 L14.8217774,11.5605755 C14.4664297,11.5196843 14.1275368,11.486292 13.9038165,11.469053 C14.1342355,11.2683538 14.3683282,11.0723503 14.6060694,10.8806903 Z M7.01212249,11.6104917 C8.54654192,12.0085421 11.9499432,8.602187 6.81818182,11.5332294 L6.829,11.527 L6.92219294,11.4781512 C7.44062079,11.2267176 7.42026422,11.6102702 7.10890243,11.6176543 L7.04282342,11.613816 L6.97809091,11.5995265 Z M27.034325,5.63188303 L27.0293264,5.66791134 C26.969556,6.14034422 27.0189633,6.6214019 27.1068106,6.9978319 C23.1194295,7.493243 19.4456731,9.00268505 16.3519671,11.2595948 C16.2969333,10.9345167 16.0408275,10.4572406 15.6954516,10.052674 C18.9652138,7.70239788 22.8367285,6.13741027 27.034325,5.63188303 Z M40.7777766,2.62334865 C39.2804323,1.64319131 39.0037471,2.73055592 40.7540795,2.71647741 L40.7940909,2.71452647 L40.7045658,2.71335343 C40.2560523,2.69299902 40.5518368,2.51263765 40.8527834,2.67743225 L40.906,2.71 Z M32.7272727,2.66890604 C32.0340487,2.2283944 31.0163907,2.24893432 30,2.2676795 C30.6292244,2.52173646 31.3851808,2.6862553 32.7272727,2.66890604 Z M27.229,39.173 L27.218,39.047 L27.2176565,39.0609825 C27.1669981,39.0765397 27.1434919,39.1008296 27.1375193,39.128281 L27.137035,39.1565799 C26.9294267,39.159636 27.0095394,39.17364 27.1497351,39.1846743 C27.1516393,39.1883096 27.1537404,39.1919384 27.1560218,39.1955502 L27.1213816,39.2020551 C27.1089013,39.2045241 27.0976304,39.2068101 27.0879345,39.2088488 L27.0515809,39.2176019 C27.0438421,39.220776 27.072995,39.2179435 27.1624259,39.2050022 C27.2362609,39.3070918 27.4453131,39.3876868 27.4026126,39.19936 C27.4168386,39.1998093 27.4303805,39.2001524 27.4429933,39.2003746 L27.5055612,39.2001406 C27.553061,39.1982224 27.5494779,39.1909006 27.4419058,39.1750189 L27.393,39.168 L27.3892075,39.1560199 C27.3779467,39.1243597 27.3612436,39.0871368 27.3380462,39.0436808 L27.338,39.044 L27.3390702,39.0611664 C27.3297897,39.0717858 27.29586,39.0638229 27.2936609,39.0554244 L27.3041267,39.0475529 L27.3380462,39.0436808 L27.2946048,39.0471441 C27.3910984,38.8341785 27.4146724,38.6842762 27.4033669,38.6037824 L27.3980909,38.5815265 L27.4045453,38.5380211 C27.475764,37.9503749 27.4048808,37.23471 27.3149,36.8446467 L27.309,36.823 L27.2899786,36.7466794 C27.2815753,36.7169418 27.2731066,36.6902359 27.2646648,36.6669025 L27.239513,36.6073609 C27.2680514,36.6315096 27.3086287,36.6278476 27.3415309,36.5418463 L27.2861432,36.5061414 C27.205486,36.4651783 27.1929312,36.5194173 27.2112351,36.5648946 C27.108134,36.4719371 27.0446638,37.0866823 27.2298508,39.1783217 L27.218,39.043 L27.306,36.904 L27.229,39.173 Z" id="Combined-Shape"></path>
            </g>
        </g>
    </g>
</svg>