<?xml version="1.0" encoding="UTF-8"?>
<svg width="100%" height="100%" viewBox="0 0 60 60" version="1.1" xmlns="http://www.w3.org/2000/svg" xmlns:xlink="http://www.w3.org/1999/xlink">
    <title>91E7D723-AFEB-4872-A5EA-85303FB7EA5C</title>
    <defs>
        <path d="M6.84916052,31.3410673 L6.85567163,31.3295657 C7.01734469,34.1887525 7.6971721,36.9093743 8.80274147,39.3990186 C8.58900001,39.3805896 8.37418215,39.3957137 8.18181818,39.5365615 C8.46177257,39.6253158 8.71306745,39.6982304 8.9387465,39.6988884 C11.4773335,45.2037831 16.1122734,49.5445217 21.8202733,51.6974609 C21.8200066,51.7201449 21.8415776,51.7465849 21.8872395,51.7759095 C21.7671869,51.7981376 21.7859014,51.8294397 22.0863975,51.8687899 C22.2698575,51.9364492 22.5559462,52.0153866 22.970246,52.1066046 L22.9933467,52.1041151 C25.2038894,52.8041806 27.5578437,53.1818182 30,53.1818182 C32.6774572,53.1818182 35.2488972,52.7279044 37.641565,51.8928317 C37.7533317,51.8998406 37.8710756,51.9065115 37.990828,51.9124895 C38.0110526,51.9232035 38.0340715,51.9319284 38.0594865,51.9377899 C38.0676164,51.9611839 38.0907252,51.9684813 38.1351825,51.9447909 C38.1718412,51.9444614 38.2116404,51.9384385 38.253485,51.9244734 C38.775234,51.945739 39.2836418,51.9522918 39.473575,51.9331709 C39.4883312,51.9316048 39.5009868,51.9298708 39.5113805,51.9279632 L39.5524427,51.9027833 L39.518,51.929 L39.5286238,51.9240546 C39.5373941,51.9215288 39.5428499,51.9187547 39.5468685,51.9093147 C39.5913196,51.9147109 39.6350726,51.8811101 39.6122776,51.830783 C39.6704589,51.7489648 39.599644,51.6865672 39.530576,51.7040058 C39.5229448,51.7064384 39.5154659,51.710027 39.5078195,51.7178913 C39.5342402,51.6112964 39.567653,51.4145204 39.6091914,51.1030419 C39.8641472,50.9863736 40.1158727,50.8659733 40.3650374,50.7412154 C40.6959847,51.0012133 41.1426287,51.2797146 41.7271593,51.5663137 C38.243916,53.4663354 34.2479789,54.5454545 30,54.5454545 C27.153968,54.5454545 24.4210685,54.0610767 21.8792426,53.1702621 L21.8783229,53.1318616 L21.8696453,52.9047716 L21.8650909,52.8144675 L21.8651548,52.8726157 C21.860274,52.8798923 21.8360053,52.4793062 21.8540909,52.6134675 L21.8424973,52.5051876 C21.6814694,51.1117711 21.7126479,52.1043967 21.7764128,53.1336549 C20.8193258,52.793705 19.8899664,52.3959244 18.992117,51.9446633 C19.0034633,51.9406645 19.0384006,51.9099818 19.1105862,51.8359198 C19.0607882,51.8871635 19.1261839,51.8044608 19.1225349,51.81592 L19.12,51.819 L19.1578158,51.762435 C19.3011735,51.5297938 18.9605223,51.9443085 18.9905079,51.9448047 C10.9631232,47.9088123 5.45454545,39.5977048 5.45454545,30 C5.45454545,22.2707366 9.02711686,15.375892 14.6110486,10.8766773 C15.0289302,10.9343295 15.6016689,11.008743 16.3636364,11.1035792 L16.1568561,11.0787009 C16.1619806,11.1874089 16.1674899,11.2911125 16.1759586,11.3898643 C15.3567997,11.9988214 14.5804128,12.6600666 13.8505343,13.3689394 C13.6157823,13.352459 13.5853412,13.3919683 13.7042767,13.4562066 L13.7422551,13.4751962 C13.2054152,14.0029893 12.6941527,14.5571998 12.210548,15.1353396 L12.1865986,15.0236417 L12.186,15.021 L12.185,15.02 L12.185,15.017 L12.184,15.014 L12.184,15.011 L12.183,15.009 L12.183,15.007 L12.182,15.005 L12.182,15.002 L12.181,15.001 L12.1786572,15.1735472 C11.8997591,15.5084149 11.6301211,15.8512665 11.3701366,16.2017088 C11.0255694,16.2758502 10.5691416,16.3852106 9.98521909,16.5390647 L9.793,16.589 L9.75047525,16.6011262 L9.72909091,16.6064675 L9.62209091,16.6354675 L9.60309091,16.6404675 L9.599,16.641 L9.6,16.641 L9.589,16.644 L9.597,16.642 C9.58208567,16.6469017 9.57385077,16.6491403 9.56632577,16.6511859 L9.54545455,16.6568596 C10.1479824,16.6275386 10.7282665,16.5394601 11.1973705,16.4402841 C10.6004984,17.2639251 10.0580616,18.1286494 9.57342556,19.0290938 L9.5524081,19.0176567 C9.4118472,18.9586376 9.38466109,19.1618966 9.49740438,19.174296 C8.99922866,20.1129815 8.56456756,21.091309 8.19823688,22.102375 C6.30734735,21.0235816 6.63476772,23.3046954 7.54916009,24.2028571 C7.40139318,24.775866 7.27504455,25.3583251 7.17102097,25.9484827 C6.71414193,26.0764083 6.74533726,26.5040747 7.01282641,26.9817036 C6.88442804,27.9697516 6.81818182,28.9771395 6.81818182,30 C6.81818182,30.4327334 6.83003867,30.8626976 6.85344521,31.2895852 C6.71971678,31.5021157 6.53628752,31.820202 6.87216051,31.3089606 L6.852,31.338 Z M12.2727273,51.8928103 C11.3846261,51.680232 10.7922478,51.4908818 9.54545455,51.7457683 C10.6080041,52.009158 11.2446942,52.1143065 12.2727273,51.8928103 Z M39.4231925,51.1860605 C39.4198617,51.5333742 39.42959,51.7904064 39.4585332,51.8143738 C39.4632097,51.7709356 39.4783104,51.7414556 39.4978199,51.7233237 L39.4599745,51.8817007 C39.4155931,51.8722045 39.3529385,51.861512 39.2696732,51.8495341 L39.0749695,51.8238382 C38.8886616,51.8009527 38.6407737,51.7743317 38.3204852,51.7435627 L38.2821707,51.7315001 L38.2620746,51.6979641 C38.2508261,51.6859844 38.2387972,51.6795321 38.2264165,51.6776067 C38.6076972,51.5350293 38.9838472,51.3806381 39.3548901,51.2167992 Z M53.281614,28.766743 C53.4818828,28.8003383 53.9557857,28.8082715 54.446833,28.7971285 L54.5163985,28.7951073 C54.5356949,29.1943101 54.5454545,29.5960153 54.5454545,30 C54.5454545,33.8496097 53.6592416,37.4922332 52.0797002,40.7349861 C51.6539036,40.7966177 51.1088997,40.9187988 50.4545455,41.12622 L50.660385,41.1333883 C51.1421678,41.147319 51.5514882,41.1386926 51.8911822,41.1157304 C49.7568735,45.3083553 46.45458,48.8062774 42.4125722,51.1801966 C42.2987307,50.6292011 42.0783677,50.0408398 42.0668728,50.8580156 L42.066,50.968 L41.9794555,50.7312626 C41.8758556,50.4732619 41.7560937,50.2495469 41.6263914,50.0574843 C43.4325788,49.0109731 45.0850245,47.72414 46.5399941,46.242708 C46.9632269,46.5515674 47.1659457,46.2713026 47.3885667,45.3318015 C47.4631066,45.2467795 47.5368903,45.1619282 47.6100637,45.0765385 L47.611702,46.3636364 C47.8960656,45.9076923 47.9488687,45.4536131 47.6096414,45 L47.639001,45.0427047 C47.6758413,44.9995474 47.7125259,44.9562533 47.7490541,44.9128232 C47.7658886,45.037517 47.7800421,45.0458598 47.783306,44.8212466 L47.7818872,44.8736994 C50.8404062,41.2210569 52.7944081,36.612002 53.1301391,31.5602883 C53.1776752,31.5584452 53.1952922,31.5460632 53.1707901,31.5205369 L53.1818182,31.5191559 C53.1661172,31.5070685 53.1504591,31.4952834 53.1348196,31.4838034 L53.1536679,31.1525161 L53.1696002,31.2472144 L53.171,31.255 L53.1694651,31.2320867 C53.1538639,31.1066318 53.1859063,31.1570633 53.1929484,31.2654998 L53.1942241,31.3151802 L53.194,31.321 L53.2140045,31.108018 C53.321525,29.8321355 53.3265191,29.1252402 53.2895494,28.8220478 Z M12.1109871,42.13704 C13.1522507,40.592905 11.9571471,40.4146105 12.0086309,42.1217698 L12.01,42.152 L12.0111581,42.0826521 C12.021353,41.7574121 12.1504286,41.9504552 12.0716326,42.1679941 L12.0474139,42.2226034 L12.022,42.263 Z M12.5132241,38.4025214 C12.4363202,38.6716693 12.5036979,38.0180638 12.5286878,38.2525136 L12.532,38.302 L12.522194,38.0925008 C12.4887228,37.4729979 12.4448616,37.1136484 12.3974911,36.9441073 L12.3815804,36.8945271 C12.4224465,36.853529 12.4099841,36.7850843 12.2534296,36.6994846 L12.269217,36.7130733 C12.2769177,36.7291128 12.2383373,36.7357917 12.2388679,36.7205628 L12.2534296,36.6994846 C12.0746725,36.8602269 12.1471192,36.9306105 12.2422178,36.9353786 C12.1727635,37.1321215 12.1079468,37.5512967 12.0648708,37.9972994 L12.0449418,38.225221 C11.9584599,39.3288155 12.0204976,40.3944666 12.4842044,38.5269763 Z M55.9690478,39.5454545 C59.7212999,36.2235143 58.7819614,36.4811476 57.5490972,37.4813107 L57.4111278,37.5953514 C57.2955191,37.6926916 57.1787904,37.7954969 57.0644331,37.9015151 L56.928566,38.0301352 C56.9061856,38.0517809 56.883956,38.073519 56.8619051,38.0953316 L56.7319665,38.2269569 C56.2862485,38.689764 55.9439482,39.1695207 55.9637306,39.4993709 L55.9670909,39.5384675 Z M25.4799143,29.0637211 L21.6485312,30.4582305 L22.8583074,35.8269992 C22.6122844,35.9442611 22.3360183,36.0927832 22.0273928,36.2774502 L21.8210909,36.4024675 L21.9383746,36.4828894 C22.2904507,36.6982017 22.6296882,36.7968838 22.9394805,36.8141416 C22.8365775,36.8325216 22.7415095,36.8500578 22.6539746,36.8667325 L22.4136672,36.9141544 C21.2906968,37.1446103 21.8897084,37.1656908 23.1010738,36.9121931 L23.1165317,36.9794207 L23.629409,36.7926596 C23.8897849,36.7294294 24.1670938,36.6557783 24.4535156,36.5712469 L24.2293163,36.6046098 C24.1810938,36.6118616 24.1336936,36.6190403 24.087107,36.6261454 L26.7979912,35.639479 L25.4799143,29.0637211 Z M24.6549295,36.6916081 C24.6269363,36.6051309 24.5740623,36.6258551 24.5257569,36.686723 C24.3249636,36.6786677 24.1417019,36.7509638 24.5131262,36.9502405 L24.4193454,36.9196803 C24.4059655,37.0046959 24.4405071,37.0479686 24.5729793,36.93237 L24.6182216,36.9152056 C24.8821618,36.8159661 24.8035231,36.7375581 24.6583029,36.7039404 Z M38.9872747,22.6811661 L39.5839304,25.194232 L37.1721078,26.0717093 C36.8619345,26.1561319 36.6006955,26.2501703 36.38302,26.3509685 L36.1459137,25.1816148 L33.0974654,26.2911593 L33.4874621,28.8657677 L35.7420494,28.0447499 C36.0215137,28.3498356 36.4661226,28.574642 36.899702,28.625492 C37.5914193,28.7066162 38.2550643,28.3449883 38.1752816,27.1602314 L39.8842061,26.5375433 L39.9289534,26.7605517 C39.7344827,26.9183119 39.593356,27.0910893 39.5454545,27.2727273 C39.705778,27.2128112 39.8577259,27.1551352 40.0016234,27.0996503 L40.1645388,27.9013776 C39.7951376,28.2735468 39.6111165,28.4865098 39.5603063,28.5793069 C39.5458389,28.5824971 39.5416277,28.586274 39.5505872,28.5906762 C39.4804495,28.5992171 39.406258,28.7391073 39.612993,28.6564064 C39.598236,28.662326 39.5931104,28.6418056 39.6024838,28.62564 L39.602,28.626 L39.61,28.648 L39.6085895,28.6363613 L39.6043568,28.6248584 C39.6131146,28.6211688 39.6227837,28.6166147 39.6321652,28.609881 C39.7411663,28.6270486 39.9588845,28.6498183 40.3183756,28.6792943 C40.2981614,28.6809583 40.277777,28.6826363 40.2573056,28.6843214 L40.245,28.685 L40.3200579,28.6795231 L40.8215338,31.082411 L40.8566396,31.1999198 C40.8844096,31.3183299 40.8901721,31.4394444 40.8739273,31.563263 C40.8522675,31.7283546 40.7985469,31.8831063 40.7127653,32.0275181 C40.6269838,32.1719298 40.5192363,32.2991832 40.3895229,32.4092782 C40.2598095,32.5193733 40.1116619,32.6047362 39.94508,32.6653671 L31.6326445,35.6908462 L31.0154351,33.0102867 L31.7349828,33.4841266 L37.4987156,31.3862994 L37.1179665,29.3554092 L30.7212225,31.6836336 L30.128,28.863 L30.1281244,28.7901215 C30.1252445,28.6401904 30.1130087,28.5876778 30.0918385,28.68721 L29.6261443,26.4738097 C29.7205802,26.2600241 29.8352039,26.064941 30,25.9090909 L29.981,25.928 L29.9350909,25.9744675 L29.8512319,26.0538535 C29.7783088,26.1191865 29.6887425,26.1948868 29.5872447,26.2787312 L29.4836192,25.7954546 L37.2800859,22.9574366 C36.504206,24.0461368 36.6797697,25.3311065 38.0055637,23.9333838 C38.0309086,24.075603 38.0733615,24.1965424 38.1386943,24.2988937 C38.1361776,24.3561002 38.1344043,24.4062819 38.1335921,24.44618 L38.1335876,24.520222 C38.1359062,24.578518 38.1465798,24.5419753 38.1692304,24.3449112 C38.226295,24.4224043 38.2980192,24.4887225 38.3870469,24.5454545 C38.3999939,24.1694029 38.3420995,23.9092802 38.2404378,23.6705603 C38.462204,23.410166 38.7109155,23.0837597 38.9872747,22.6811661 Z M19.2810797,32.7227309 C23.0719091,32.8625647 22.241752,29.705904 19.2402631,32.5675263 L19.1100909,32.6934675 L19.0909091,32.713155 Z M48.895167,18.730229 L49.3272994,20.3839828 L44.046654,22.3059805 L44.4819709,24.4867944 L49.4294525,22.6860583 L49.8615849,24.3398121 L44.7308632,26.207242 L45.0406066,27.5525518 C44.9444147,27.8422621 45.0262286,28.1014018 45.2111044,28.2935905 L45.3480727,28.8878015 L46.0435975,28.63528 C46.3871451,28.6486113 46.7594158,28.5397613 47.0663365,28.2630629 L49.3316557,27.4357837 C49.2596595,27.7297104 49.1886049,28.1114689 49.0909091,28.6363636 C49.6655929,28.3729794 50.172704,27.994457 50.3685653,27.0613598 L50.9452236,26.8506052 L51.377356,28.5043589 L49.9362844,29.0283543 C49.547787,28.317973 49.1054396,28.6673954 49.092952,29.3347933 L42.4152512,31.7662983 L41.7809233,28.6989505 C42.5529629,28.6831097 42.3138385,28.6483954 41.7638739,28.6182919 L41.4455097,27.0771462 C41.8389044,26.6743187 42.1615449,26.2812214 42.2500412,26.0203692 C42.2595064,26.0079308 42.2659153,25.99659 42.2694438,25.9863196 C42.274481,25.9716576 42.2736481,25.9591769 42.26868,25.9458196 L42.2727273,25.9090909 L42.2485943,25.9311207 C42.1453268,25.8701278 41.7239159,25.9390052 41.2424863,26.0979042 L40.4966231,22.5039179 L39.7831385,22.0467362 L47.562985,19.2160135 C47.5702464,19.2300605 47.5845724,19.2360402 47.6033706,19.235794 L47.6150793,19.2357593 C47.8220026,19.3934982 47.981688,19.2135167 47.9949427,19.0585803 L48.895167,18.730229 Z M27.2727273,31.5689702 C25.2946582,30.843819 25.8487134,31.2312429 26.5756048,31.4516406 L26.7091462,31.4895875 C26.8883402,31.5369698 27.0692885,31.5699784 27.2183778,31.5703825 L27.2610909,31.5684675 L27.255,31.569 Z M27.452662,29.9907017 C27.5135736,27.8802096 27.3324492,28.6171854 27.2019645,29.6438082 L27.179523,29.827463 L27.1536646,30.0591188 C27.0391209,31.1412741 27.0178315,32.1736907 27.4025034,30.423486 L27.436,30.266 L27.4321811,30.2814367 C27.4011332,30.3966044 27.4358169,30.083497 27.4446203,30.1250666 L27.4465294,30.1588099 L27.4460909,30.1744675 Z M38.2507529,28.5906357 C38.0308944,28.4281817 37.9757663,28.7977916 38.1964324,28.7083176 C38.1887757,28.7221012 38.1810578,28.7376777 38.1725592,28.7547984 C38.1675846,28.75451 38.1626101,28.7542217 38.1576361,28.7539335 L37.8968484,28.7388872 C37.3818455,28.709312 36.9236017,28.6838783 36.8339765,28.6812472 L36.835,28.681 L37.0734048,28.6960364 C37.4176834,28.7159857 37.7194976,28.7334341 37.9820672,28.7481607 L38.1716864,28.7586918 C38.0689843,28.9920359 37.9738645,29.5145612 38.1172755,29.9309209 L38.138,29.986 L38.137,29.985 L38.143,29.998 L38.1840411,29.8071812 C38.2834685,29.3157522 38.3196118,29.0044648 38.3190651,28.8278718 L38.3171922,28.7678745 C39.1384606,28.8150973 39.4860354,28.8344886 39.5439426,28.8367291 C39.5124932,28.8338354 38.994989,28.8027768 38.4192208,28.7691516 L38.3171922,28.762542 C38.3132988,28.7062354 38.3041906,28.6702442 38.2915573,28.6516756 L38.3078505,28.6416178 Z M32.808744,28.4764607 C32.8334741,28.399419 32.820798,28.413859 32.7917861,28.4673519 C32.6803767,28.396505 32.6200388,28.4270174 32.5951098,28.4946195 L32.5894022,28.517622 C32.5120638,28.5155201 32.4759696,28.5484854 32.5635433,28.6458712 C32.3630094,28.758875 32.4525083,28.7588449 32.6019244,28.7188257 C32.6128797,28.7538262 32.6276826,28.7851723 32.6442241,28.8087244 C32.6291526,28.8499999 32.6268065,28.86563 32.6485001,28.8296523 L32.6550662,28.8196829 C32.6967083,28.8637676 32.7508249,28.8594199 32.8064166,28.7469714 C32.9739409,28.7259023 32.9654591,28.6708506 32.8933139,28.6203529 C33.0402505,28.556608 33.0916637,28.5006193 32.75773,28.5456523 L32.773,28.543 L32.852099,28.5330839 C32.8541942,28.5288453 32.8569701,28.5258154 32.860494,28.5249664 L32.873377,28.5299341 Z M47.9051015,28.8338997 C50.4063202,28.9476541 48.250181,27.9234084 47.7581663,28.7641 L47.7272727,28.824345 Z M30,5.45454545 C35.6858462,5.45454545 40.9201505,7.3878262 45.0814251,10.6328998 L45.0860208,10.6761813 L45.103,10.805 L45.102547,10.7923738 C45.0972458,10.7345711 45.0949388,10.684723 45.0951159,10.6420432 C45.1676094,10.7002 45.2395374,10.7570232 45.3111381,10.8142389 C45.2880393,10.8592715 45.2448597,10.8926003 45.1752454,10.9044222 L45.1159608,10.9090909 C45.2199877,10.9090909 45.3163304,10.9025406 45.4054089,10.890082 C50.6124184,15.0926419 54.0668576,21.3807087 54.4994613,28.4849648 C53.8675928,28.5592566 53.4984609,28.6181461 53.3191382,28.6642426 C53.2982947,28.6589559 53.2783724,28.6540551 53.2594551,28.649532 L53.2544969,28.6244871 C53.2281898,28.533459 53.1795023,28.5363291 53.1430639,28.5703486 C53.110039,28.1015821 53.0670665,27.6314552 53.0102747,27.1655949 C53.1552217,26.7864496 53.2091547,26.3711277 53.1688526,25.9090909 C53.0510732,25.9649272 52.9454992,26.0228419 52.8508027,26.0825745 C52.732676,25.3800916 52.5813067,24.687507 52.3997726,24.0072379 C52.5811281,23.8170603 52.7790164,23.6086205 52.9928442,23.3821998 L53.1079544,23.2590409 C53.104913,23.3099744 53.1280251,23.3339391 53.2009737,23.2693264 L53.2292694,23.2369435 L53.2425897,23.2264823 C53.2456009,23.2223501 53.248001,23.2175787 53.2559428,23.2139023 C53.2559428,22.9687022 53.1751382,23.0543899 53.1300817,23.1627374 C53.1123352,23.1789675 53.1085519,23.1946122 53.1139118,23.2074605 C52.9347811,23.290084 52.6558391,23.5170399 52.3447746,23.8064506 C49.6359768,14.0105789 40.6579256,6.81818182 30,6.81818182 C24.9386204,6.81818182 20.2560925,8.44023883 16.443891,11.1928781 C16.3760689,11.0847764 16.278992,10.9913319 16.1490039,10.9090909 L16.1556073,11.0262964 C15.9185724,10.9716883 15.5100047,10.9101369 15.0900532,10.8562438 L14.9159283,10.8344036 C14.8422624,10.8253715 14.7689263,10.816637 14.6967838,10.8082788 C14.8578653,10.6793015 15.0205267,10.5527344 15.1848045,10.428188 C16.54425,11.4487063 16.5619084,10.6578199 16.0661798,9.7919137 C19.2550948,7.58704063 22.9926785,6.11896554 27.0323205,5.63212453 C27.1716154,6.84014745 27.7588632,7.56618706 27.4574655,5.58680628 C28.2931918,5.49862506 29.1414483,5.45454545 30,5.45454545 Z M40.2244187,28.1859236 L40.3013181,28.5683111 C40.2035829,28.5667317 40.1110843,28.5656976 40.0265239,28.5652995 L39.8628684,28.5654196 C39.804248,28.5658481 39.7520882,28.5667367 39.7081921,28.5682097 C39.8303099,28.4922608 40.0124622,28.3572788 40.2244187,28.1859236 Z M48.5871366,23.1818182 L48.5217277,23.266957 C48.0340594,23.9663866 49.5484215,23.6764252 48.5871366,23.1818182 Z M38.9121532,22.3637489 L38.9748704,22.6291999 C38.5894411,23.0648134 38.5445556,22.7812187 38.715441,22.4354322 L38.9121532,22.3637489 Z M16.4223241,3.97878938 C16.4126224,3.7024912 16.3544927,3.89934589 16.3232945,4.09254056 C16.3036495,4.1103176 16.2929258,4.27136598 16.2899083,4.47690872 L16.2897005,4.72170644 C16.2961785,5.28426398 16.3479724,5.89340287 16.426097,5.00573322 L16.437,4.871 L16.4337084,4.90259744 C16.4224066,4.97702426 16.4166254,4.73897939 16.4265719,4.76640146 L16.4318274,4.79609181 L16.435,4.831 L16.4221617,4.68580947 C16.4060405,4.52079366 16.3915249,4.39521501 16.3782696,4.30462548 L16.3685591,4.2431743 C16.3837263,4.20282269 16.4019677,4.14835765 16.4237048,4.077119 Z M19.1452988,2.72727273 L19.1949761,2.76570473 C19.3871455,2.94134159 19.2866807,3.226568 19.1920681,3.28259605 L19.1800909,3.28646753 C19.3007827,3.60878581 19.5763821,3.8441063 19.8414094,3.97239311 C19.6117337,3.94787705 19.3628628,3.96641654 19.0909091,3.97148984 C19.5699936,4.07290523 19.8877305,4.26495156 20.4545455,4.2131032 C20.3917638,4.16203525 20.3274019,4.12093079 20.2610753,4.09090475 C20.6190433,4.08937308 20.6011962,3.68242657 19.1452988,2.72727273 Z M32.7272727,1.57566228 C32.0340487,1.11753017 31.0163907,1.1388917 30,1.15838668 C30.6292244,1.42260592 31.3851808,1.59370551 32.7272727,1.57566228 Z M27.305,37.08 L27.2868775,37.005889 C27.270767,36.9483874 27.2544404,36.9025284 27.2385337,36.8707779 C27.2671176,36.8968462 27.3082505,36.8939896 27.3415309,36.8035202 L27.2861432,36.766387 C27.2061374,36.7241295 27.1931384,36.7792893 27.2114529,36.8276956 C27.1597765,36.7787471 27.1180086,36.9143596 27.1124267,37.3350989 L21.4497326,39.397123 L21.3333128,39.4336011 C21.2170806,39.4641155 21.1014111,39.4767393 20.9863043,39.4714723 C20.8328285,39.4644497 20.6907031,39.4281425 20.5599282,39.3625509 C20.4945408,39.3297551 20.4350199,39.2893217 20.3813657,39.2412508 L20.357,39.217 L20.063324,38.0906974 L19.982,38.119 L18.1846087,29.9079581 L21.9925396,28.5215357 C22.1772056,28.5804269 22.4802228,28.6672459 22.7605113,28.7336955 C21.297864,29.2054924 21.3279831,31.1473413 24.3599238,29.0324688 L24.536,28.906 L24.465699,28.9525647 C23.8601889,29.304003 23.3786492,28.631861 23.9811785,28.716455 L24.0701512,28.7328482 L24.1530909,28.7534675 L24.1278488,28.7459157 C23.6230596,28.5979576 23.1813468,28.6124284 22.8225411,28.7153903 C22.7292137,28.6891055 22.6434596,28.66515 22.5648519,28.6433776 L22.3337024,28.580039 C22.2140528,28.5476692 22.1180544,28.5224643 22.0428663,28.5034518 L24.2989318,27.6836526 C24.2958333,27.7734629 24.2938457,27.8606501 24.2930613,27.9434446 L24.2930748,28.0981664 C24.3003454,28.7826293 24.4090541,29.0222593 24.685565,27.5430696 L27.1467135,26.6460188 L27.2631332,26.6095407 C27.3793654,26.5790263 27.4950349,26.5664025 27.6101418,26.5716695 C27.7636176,26.5786921 27.9057429,26.6149992 28.0365178,26.6805909 C28.1672927,26.7461825 28.2735907,26.839548 28.3554117,26.9606874 C28.4033111,27.0316043 28.4399675,27.1130787 28.4653808,27.2051105 C27.8629385,27.7255409 27.3120354,28.2749434 27.2727273,28.6363636 C27.9371491,28.6251308 28.3759834,28.4698244 28.6823546,28.2342071 L30.4118374,36.1351836 L27.3416685,37.2524099 C27.3317513,37.1975767 27.3213976,37.1467107 27.3108017,37.100565 L27.305,37.081 L27.305,37.08 Z M59.0043817,37.0862068 C58.6353603,37.3314192 58.480123,37.7390199 58.8412511,38.284644 C55.2462331,50.8238432 43.6947197,60 30,60 C19.0531349,60 9.47569151,54.1368087 4.23671125,45.3794676 C4.24699554,44.9443936 4.25192559,44.6056692 4.25337153,44.3468078 L4.25318192,44.0301025 C4.24981538,43.6464332 4.23374586,43.5728142 4.21405538,43.6828469 L4.20474343,43.7462113 C4.18098613,43.934922 4.15426825,44.3422499 4.13854145,44.7740233 L4.13286998,44.9475761 C4.13049899,45.0297419 4.12858685,45.1118561 4.12722768,45.1926088 C1.50385146,40.7368073 0,35.5440253 0,30 C0,24.5178472 1.47047216,19.3791415 4.03850963,14.9567899 C3.94992667,15.5475339 3.91055357,15.9771098 3.90651492,16.1970307 L3.90690095,16.2781924 C3.91731907,16.5667928 4.03713526,16.1431564 4.17967312,14.7188217 C5.02431437,13.2922829 5.98418398,11.9432237 7.04596495,10.6828415 C7.48959838,10.5240911 7.3718805,10.9790748 6.97393706,10.8634073 L7.01212249,10.8749113 C8.52364014,11.2827051 11.8487655,7.85114261 7.04229272,10.6624379 L7.08482226,10.6368095 C12.587856,4.13087391 20.8115194,0 30,0 C36.5609656,0 42.6300127,2.10615367 47.5679214,5.67924116 C47.4632308,6.69356922 47.4664056,7.536612 47.8430215,5.88299008 C49.7803658,7.31641055 51.537747,8.97890118 53.0767511,10.8294516 C52.8493128,10.7877823 52.3084441,10.7967714 51.8863279,10.9774554 L51.8181818,11.0086731 C52.4565473,11.0087366 52.8323512,10.9806008 53.0213867,10.945455 C52.8880493,11.1328175 52.9789967,11.2556488 53.1338346,11.1149723 C53.1534175,11.184866 53.1785949,11.2181934 53.2041853,11.1667806 L53.219,11.126 L53.2316747,11.1544607 C53.2506452,11.1955342 53.2627822,11.1973355 53.2586888,11.1255069 L53.25421,11.0732992 C53.3266071,11.1743261 53.449195,11.316037 53.6031358,11.4815144 C57.6106466,16.5817405 60,23.0118386 60,30 C60,32.4061961 59.7167196,34.7462285 59.1816899,36.9885661 C59.1410355,37.0067261 59.1035613,37.0261243 59.0677341,37.0468915 L59.03,37.069 Z M9.63924627,36.8646722 L9.63530529,36.8458229 L9.655,36.874 L9.633,36.837 L8.98171235,33.9744073 L8.26822771,33.5172256 L12.0996108,32.1227162 L13.8331619,40.358291 L19.982,38.119 L20.0939892,38.6266203 C20.1061562,38.7982649 20.1541607,38.9474333 20.2380028,39.0741253 L20.3052843,39.1634162 L20.357,39.217 L20.4954564,39.7444511 L12.1830209,42.7699302 L12.0475744,42.8119138 C11.7818383,42.8793738 11.5470439,42.8477922 11.3431911,42.7171689 C11.1053629,42.564775 10.927839,42.3275489 10.8106194,42.0054906 L9.6786084,37.0346805 C9.67862262,37.001964 9.67358989,36.953506 9.66211984,36.8858917 L9.662,36.888 L9.66227317,36.9019559 C9.6585936,36.9049554 9.64647922,36.882198 9.63924627,36.8646722 Z M39.4535068,4.29969671 C39.4359957,4.33344024 39.4184402,4.36413453 39.4009446,4.39196981 C39.2911193,4.35052148 39.1804412,4.31069298 39.0694339,4.27156257 C39.1421031,4.19812375 39.2628696,4.13341269 39.4451548,4.10330505 L39.517,4.095 L39.518,4.093 C39.2514806,4.1164134 39.0084359,4.14383842 38.7871655,4.174779 C38.628644,4.11988037 38.4679857,4.0668959 38.3066749,4.0153719 C38.2906239,3.9678188 38.2219997,3.95590282 38.1603145,3.96967989 C35.5897292,3.16401907 32.855019,2.72921631 30.0190351,2.72727923 C30.005592,2.45339335 29.9881735,2.1357017 29.9662143,1.77431122 L29.9570909,1.62846753 L29.9560909,1.61446753 L29.9540909,1.58946753 L29.9530909,1.57246753 L29.9520909,1.55846753 L29.9516535,1.53727004 L29.9500909,1.52246753 L29.9480909,1.49146753 L29.9460909,1.46246753 L29.9450909,1.44846753 L29.9430909,1.41446753 L29.9410909,1.38746753 L29.94,1.377 L29.9431981,1.55770056 C29.9499346,2.00557621 29.959187,2.39662536 29.9695516,2.7287103 L30,2.72727273 C25.6461993,2.72727273 21.5306785,3.74747036 17.8794529,5.56185026 C18.4543362,5.0061803 18.995068,4.40765994 19.0909091,4.09090909 C18.208654,4.91113776 17.5800396,5.51274144 17.1504208,5.93890188 C14.3314068,7.44657998 11.8088,9.43568579 9.69166788,11.7959622 C9.67866321,11.7571003 9.66671356,11.7226629 9.65531196,11.6921648 C9.66342074,11.5140071 9.67078058,11.3229126 9.6771707,11.1185997 L9.68009091,11.0084675 L9.68109091,10.9854675 L9.68209091,10.9584675 L9.683,10.918 L9.65350807,11.0884358 C9.64182673,11.1601993 9.63063535,11.2305942 9.61984723,11.2994521 L9.58860585,11.501247 C9.57003024,11.4494306 9.55260685,11.40152 9.53646682,11.3581028 C9.55811704,11.2215694 9.5401473,11.109466 9.48883416,11.030288 C9.49813996,11.0143094 9.50697737,10.9990387 9.51536342,10.9844534 L9.52811342,10.9746919 L9.61365958,10.9043729 L9.65802811,10.836877 C9.71513073,10.7441447 9.69154667,10.7464637 9.64034566,10.7875371 L9.61071511,10.8117895 C9.71310723,10.6135881 9.60142487,10.7506279 9.51281562,10.9075093 L9.49161039,10.9316975 C9.4747628,10.9500884 9.45903158,10.9680067 9.44716324,10.9835196 C9.42141125,10.9598172 9.39085437,10.9414071 9.35486743,10.9272596 C9.33952741,10.9045412 9.33112257,10.9039716 9.32879434,10.9205252 C8.92165756,10.8151702 7.98677094,11.4210871 6.92109312,13.4379596 L6.85409091,13.5654675 L6.84009091,13.5924675 L6.82809091,13.6154675 L6.81818182,13.6363636 C8.44502355,13.0040263 9.24107846,12.1636462 9.47150298,11.5842948 C9.49477305,11.6668348 9.51931877,11.749504 9.54322705,11.8277007 C9.53590158,11.8821242 9.52891778,11.935416 9.52226522,11.9875627 C5.29254416,16.791397 2.72727273,23.0961229 2.72727273,30 C2.72727273,32.973699 3.20320069,35.836239 4.08304155,38.5156051 L4.08314332,38.5263755 L4.08141168,38.6805364 C4.02824719,38.9064424 3.97529357,39.1843507 3.9454796,39.4602486 L3.94109091,39.4944675 L3.93924503,39.5208115 C3.93856568,39.5283413 3.93800985,39.5345021 3.9370217,39.5454545 L3.937,39.544 L3.989728,39.3457208 C4.00631744,39.2822208 4.02193411,39.2217915 4.03659767,39.1644112 L4.077,39.002 L4.07666707,39.1177244 C4.0760317,39.1901809 4.07556489,39.252554 4.07524965,39.3054961 L4.07488833,39.3779176 L4.07471034,39.448947 C4.07233209,39.4589104 4.07012823,39.4696799 4.06811926,39.4813174 C3.97077703,39.5530448 3.89137634,39.6907598 4.06213154,39.6377688 C4.06441856,39.6635649 4.06845453,39.6900008 4.07467541,39.71645 L4.074,39.715 L4.08498522,39.6689788 L4.09179943,39.6279108 C4.12551644,39.615342 4.16682753,39.5968674 4.21687447,39.5712259 L4.19767909,39.5752356 C4.18356621,39.568398 4.21028742,39.5217161 4.21676567,39.5418915 L4.216,39.554 L4.21913509,39.513026 C4.21677603,39.4806808 4.20712912,39.460754 4.19286082,39.4503006 L4.16832562,39.4413572 L4.13885817,39.4444149 L4.12083733,39.4501592 C4.12809671,39.3485233 4.1017643,39.3588859 4.08113621,39.4256605 C4.08390438,39.3214547 4.08728378,39.1550066 4.09105713,38.9480252 C4.11281005,38.8600021 4.13190267,38.7805783 4.14854967,38.7092486 C7.78170107,49.5009345 17.9832508,57.2727273 30,57.2727273 C45.0623114,57.2727273 57.2727273,45.0623114 57.2727273,30 C57.2727273,29.5535221 57.2619986,29.10955 57.2407849,28.6683275 C57.7270032,28.7001724 58.0724511,28.7143847 58.2981782,28.7169921 L58.4292572,28.7170979 C58.9241354,28.7108702 58.489313,28.6211778 57.5808864,28.5760852 C58.0550336,27.9058758 58.367443,27.6494494 58.5221219,27.5594814 L58.5570909,27.5404675 L58.5420104,27.5416422 C58.3506184,27.547067 57.8691867,27.4263952 57.1080785,26.5400564 L57.2636084,26.5646377 C59.3938367,26.873594 58.3186594,25.5201439 56.9845615,26.0218397 C56.4203085,22.1597536 55.046265,18.5600577 53.040405,15.4009883 C53.1114511,15.1409941 53.1676978,14.8897458 53.1792514,14.6624911 C53.2469595,15.0506251 53.3159442,15.2369263 53.2851642,14.4748533 L53.278,14.333 L53.2798998,14.3693641 C53.2829327,14.512083 53.2504562,14.2513204 53.2613015,14.2516295 L53.2675532,14.2652811 L53.2710909,14.2794675 L53.2397052,14.1389807 C53.0504277,13.3256198 53.0479168,13.6391586 53.0997401,14.1011233 L53.1079562,14.1709631 C52.9657973,13.8426567 52.5970246,13.633591 51.8213401,13.6363914 C50.8805173,12.3853971 49.8360357,11.2181008 48.6996228,10.1472949 C49.1814656,8.86141633 49.4029348,6.6761371 48.2496063,9.73337415 C45.6940112,7.42990099 42.7001685,5.60344925 39.4084419,4.3936068 L39.4471588,4.31810243 L39.4985787,4.20683272 Z" id="path-1"></path>
    </defs>
    <g id="Page-1" stroke="none" stroke-width="1" fill="none" fill-rule="evenodd">
        <g id="UiKit_Icons" transform="translate(-335.000000, -3076.000000)">
            <g id="Group" transform="translate(335.000000, 3076.000000)">
                <mask id="mask-2" fill="white">
                    <use xlink:href="#path-1"></use>
                </mask>
                <use id="Combined-Shape" fill="#4C9EEA" opacity="0.150319417" xlink:href="#path-1"></use>
            </g>
        </g>
    </g>
</svg>