<?xml version="1.0" encoding="UTF-8"?>
<svg width="100%" height="100%" viewBox="0 0 60 60" version="1.1" xmlns="http://www.w3.org/2000/svg" xmlns:xlink="http://www.w3.org/1999/xlink">
    <title>2FD758A4-B461-4CE8-94B9-D953B87F35A4</title>
    <g id="Page-1" stroke="none" stroke-width="1" fill="none" fill-rule="evenodd" opacity="0.151733398">
        <g id="UiKit_Icons" transform="translate(-575.000000, -3076.000000)" fill="#4C9EEA">
            <g id="Group" transform="translate(575.000000, 3076.000000)">
                <path d="M6.84916052,31.3410673 L6.85567163,31.3295657 C7.01734469,34.1887525 7.6971721,36.9093743 8.80274147,39.3990186 C8.58900001,39.3805896 8.37418215,39.3957137 8.18181818,39.5365615 C8.46177257,39.6253158 8.71306745,39.6982304 8.9387465,39.6988884 C11.4773335,45.2037831 16.1122734,49.5445217 21.8202733,51.6974609 C21.8200066,51.7201449 21.8415776,51.7465849 21.8872395,51.7759095 C21.7671869,51.7981376 21.7859014,51.8294397 22.0863975,51.8687899 C22.2698575,51.9364492 22.5559462,52.0153866 22.970246,52.1066046 L22.9933467,52.1041151 C25.2038894,52.8041806 27.5578437,53.1818182 30,53.1818182 C32.6774572,53.1818182 35.2488972,52.7279044 37.641565,51.8928317 C37.7533317,51.8998406 37.8710756,51.9065115 37.990828,51.9124895 C38.0110526,51.9232035 38.0340715,51.9319284 38.0594865,51.9377899 C38.0676164,51.9611839 38.0907252,51.9684813 38.1351825,51.9447909 C38.1718412,51.9444614 38.2116404,51.9384385 38.253485,51.9244734 C38.775234,51.945739 39.2836418,51.9522918 39.473575,51.9331709 C39.4883312,51.9316048 39.5009868,51.9298708 39.5113805,51.9279632 L39.5524427,51.9027833 L39.518,51.929 L39.5286238,51.9240546 C39.5373941,51.9215288 39.5428499,51.9187547 39.5468685,51.9093147 C39.5913196,51.9147109 39.6350726,51.8811101 39.6122776,51.830783 C39.6704589,51.7489648 39.599644,51.6865672 39.530576,51.7040058 C39.5229448,51.7064384 39.5154659,51.710027 39.5078195,51.7178913 C39.5342402,51.6112964 39.567653,51.4145204 39.6091914,51.1030419 C39.8641472,50.9863736 40.1158727,50.8659733 40.3650374,50.7412154 C40.6959847,51.0012133 41.1426287,51.2797146 41.7271593,51.5663137 C38.243916,53.4663354 34.2479789,54.5454545 30,54.5454545 C27.153968,54.5454545 24.4210685,54.0610767 21.8792426,53.1702621 L21.8783229,53.1318616 L21.8696453,52.9047716 L21.8650909,52.8144675 L21.8651548,52.8726157 C21.860274,52.8798923 21.8360053,52.4793062 21.8540909,52.6134675 L21.8424973,52.5051876 C21.6814694,51.1117711 21.7126479,52.1043967 21.7764128,53.1336549 C20.8193258,52.793705 19.8899664,52.3959244 18.992117,51.9446633 C19.0034633,51.9406645 19.0384006,51.9099818 19.1105862,51.8359198 C19.0607882,51.8871635 19.1261839,51.8044608 19.1225349,51.81592 L19.12,51.819 L19.1578158,51.762435 C19.3011735,51.5297938 18.9605223,51.9443085 18.9905079,51.9448047 C10.9631232,47.9088123 5.45454545,39.5977048 5.45454545,30 C5.45454545,22.2707366 9.02711686,15.375892 14.6110486,10.8766773 C15.0289302,10.9343295 15.6016689,11.008743 16.3636364,11.1035792 L16.1568561,11.0787009 C16.1619806,11.1874089 16.1674899,11.2911125 16.1759586,11.3898643 C15.3567997,11.9988214 14.5804128,12.6600666 13.8505343,13.3689394 C13.6157823,13.352459 13.5853412,13.3919683 13.7042767,13.4562066 L13.7422551,13.4751962 C13.2054152,14.0029893 12.6941527,14.5571998 12.210548,15.1353396 L12.1865986,15.0236417 L12.186,15.021 L12.185,15.02 L12.185,15.017 L12.184,15.014 L12.184,15.011 L12.183,15.009 L12.183,15.007 L12.182,15.005 L12.182,15.002 L12.181,15.001 L12.1786572,15.1735472 C11.8997591,15.5084149 11.6301211,15.8512665 11.3701366,16.2017088 C11.0255694,16.2758502 10.5691416,16.3852106 9.98521909,16.5390647 L9.793,16.589 L9.75047525,16.6011262 L9.72909091,16.6064675 L9.62209091,16.6354675 L9.60309091,16.6404675 L9.599,16.641 L9.6,16.641 L9.589,16.644 L9.597,16.642 C9.58208567,16.6469017 9.57385077,16.6491403 9.56632577,16.6511859 L9.54545455,16.6568596 C10.1479824,16.6275386 10.7282665,16.5394601 11.1973705,16.4402841 C10.6004984,17.2639251 10.0580616,18.1286494 9.57342556,19.0290938 L9.5524081,19.0176567 C9.4118472,18.9586376 9.38466109,19.1618966 9.49740438,19.174296 C8.99922866,20.1129815 8.56456756,21.091309 8.19823688,22.102375 C6.30734735,21.0235816 6.63476772,23.3046954 7.54916009,24.2028571 C7.40139318,24.775866 7.27504455,25.3583251 7.17102097,25.9484827 C6.71414193,26.0764083 6.74533726,26.5040747 7.01282641,26.9817036 C6.88442804,27.9697516 6.81818182,28.9771395 6.81818182,30 C6.81818182,30.4327334 6.83003867,30.8626976 6.85344521,31.2895852 C6.71971678,31.5021157 6.53628752,31.820202 6.87216051,31.3089606 L6.852,31.338 Z M12.2727273,51.8928103 C11.3846261,51.680232 10.7922478,51.4908818 9.54545455,51.7457683 C10.6080041,52.009158 11.2446942,52.1143065 12.2727273,51.8928103 Z M39.4231925,51.1860605 C39.4198617,51.5333742 39.42959,51.7904064 39.4585332,51.8143738 C39.4632097,51.7709356 39.4783104,51.7414556 39.4978199,51.7233237 L39.4599745,51.8817007 C39.4155931,51.8722045 39.3529385,51.861512 39.2696732,51.8495341 L39.0749695,51.8238382 C38.8886616,51.8009527 38.6407737,51.7743317 38.3204852,51.7435627 L38.2821707,51.7315001 L38.2620746,51.6979641 C38.2508261,51.6859844 38.2387972,51.6795321 38.2264165,51.6776067 C38.6076972,51.5350293 38.9838472,51.3806381 39.3548901,51.2167992 Z M53.281614,28.766743 C53.4818828,28.8003383 53.9557857,28.8082715 54.446833,28.7971285 L54.5163985,28.7951073 C54.5356949,29.1943101 54.5454545,29.5960153 54.5454545,30 C54.5454545,33.8496097 53.6592416,37.4922332 52.0797002,40.7349861 C51.6539036,40.7966177 51.1088997,40.9187988 50.4545455,41.12622 L50.660385,41.1333883 C51.1421678,41.147319 51.5514882,41.1386926 51.8911822,41.1157304 C49.7568735,45.3083553 46.45458,48.8062774 42.4125722,51.1801966 C42.2987307,50.6292011 42.0783677,50.0408398 42.0668728,50.8580156 L42.066,50.968 L41.9794555,50.7312626 C41.8758556,50.4732619 41.7560937,50.2495469 41.6263914,50.0574843 C43.4325788,49.0109731 45.0850245,47.72414 46.5399941,46.242708 C46.9632269,46.5515674 47.1659457,46.2713026 47.3885667,45.3318015 C47.4631066,45.2467795 47.5368903,45.1619282 47.6100637,45.0765385 L47.611702,46.3636364 C47.8960656,45.9076923 47.9488687,45.4536131 47.6096414,45 L47.639001,45.0427047 C47.6758413,44.9995474 47.7125259,44.9562533 47.7490541,44.9128232 C47.7658886,45.037517 47.7800421,45.0458598 47.783306,44.8212466 L47.7818872,44.8736994 C50.8404062,41.2210569 52.7944081,36.612002 53.1301391,31.5602883 C53.1776752,31.5584452 53.1952922,31.5460632 53.1707901,31.5205369 L53.1818182,31.5191559 C53.1661172,31.5070685 53.1504591,31.4952834 53.1348196,31.4838034 L53.1536679,31.1525161 L53.1696002,31.2472144 L53.171,31.255 L53.1694651,31.2320867 C53.1538639,31.1066318 53.1859063,31.1570633 53.1929484,31.2654998 L53.1942241,31.3151802 L53.194,31.321 L53.2140045,31.108018 C53.321525,29.8321355 53.3265191,29.1252402 53.2895494,28.8220478 Z M12.5132241,38.4025214 C12.4363202,38.6716693 12.5036979,38.0180638 12.5286878,38.2525136 L12.532,38.302 L12.522194,38.0925008 C12.4887228,37.4729979 12.4448616,37.1136484 12.3974911,36.9441073 L12.3815804,36.8945271 C12.4224465,36.853529 12.4099841,36.7850843 12.2534296,36.6994846 L12.269217,36.7130733 C12.2769177,36.7291128 12.2383373,36.7357917 12.2388679,36.7205628 L12.2534296,36.6994846 C12.0746725,36.8602269 12.1471192,36.9306105 12.2422178,36.9353786 C12.1727635,37.1321215 12.1079468,37.5512967 12.0648708,37.9972994 L12.0449418,38.225221 C11.9584599,39.3288155 12.0204976,40.3944666 12.4842044,38.5269763 Z M55.9690478,39.5454545 C59.7212999,36.2235143 58.7819614,36.4811476 57.5490972,37.4813107 L57.4111278,37.5953514 C57.2955191,37.6926916 57.1787904,37.7954969 57.0644331,37.9015151 L56.928566,38.0301352 C56.9061856,38.0517809 56.883956,38.073519 56.8619051,38.0953316 L56.7319665,38.2269569 C56.2862485,38.689764 55.9439482,39.1695207 55.9637306,39.4993709 L55.9670909,39.5384675 Z M23.7307833,36.6818006 C24.9665144,36.1652251 25.0842355,34.4483798 22.0273928,36.2774502 L21.8210909,36.4024675 L21.9383746,36.4828894 C22.2904507,36.6982017 22.6296882,36.7968838 22.9394805,36.8141416 C22.8365775,36.8325216 22.7415095,36.8500578 22.6539746,36.8667325 L22.4136672,36.9141544 C20.9218674,37.2203014 22.4689443,37.1569522 24.4535156,36.5712469 L24.2293163,36.6046098 C24.0836228,36.6265195 23.9454349,36.6477621 23.8145164,36.6683239 Z M24.6549295,36.6916081 C24.6269363,36.6051309 24.5740623,36.6258551 24.5257569,36.686723 C24.3249636,36.6786677 24.1417019,36.7509638 24.5131262,36.9502405 L24.4193454,36.9196803 C24.4059655,37.0046959 24.4405071,37.0479686 24.5729793,36.93237 L24.6182216,36.9152056 C24.8821618,36.8159661 24.8035231,36.7375581 24.6583029,36.7039404 Z M48.1930919,16.1267511 L48.2552127,16.4064473 C48.1130314,16.3599571 47.9404274,16.348817 47.7272727,16.3855106 C47.8904901,16.979502 48.1096338,17.4198344 48.5152971,17.6153711 L50.3360826,26.0013192 C49.448601,26.714576 49.434901,26.7881827 49.0909091,28.6363636 C49.7719412,28.3242387 50.3580772,27.8504188 50.4437798,26.4835763 L51.1686654,29.8280625 L50.2942143,30.1463099 C49.7522766,27.3753967 48.4811176,28.9923214 49.4409113,30.4572951 L47.0126063,31.3408779 C46.8795269,31.329287 46.7356934,31.318019 46.5882576,31.3075735 L41.5694209,26.948045 C41.9054068,26.5915342 42.1710346,26.2532497 42.2500412,26.0203692 C42.2595064,26.0079308 42.2659153,25.99659 42.2694438,25.9863196 C42.274481,25.9716576 42.2736481,25.9591769 42.26868,25.9458196 L42.2727273,25.9090909 L42.2485943,25.9311207 C42.1133761,25.8512567 41.432693,25.9940585 40.7860344,26.2700659 L39.4069516,25.0712046 L39.7925173,26.8827979 C39.6691719,27.0061079 39.5812638,27.1369418 39.5454545,27.2727273 C39.6520934,27.2328742 39.7550267,27.1940122 39.8543501,27.1561269 L40.039102,28.028929 C39.7527632,28.3230782 39.605,28.4976806 39.5603063,28.5793069 C39.5458389,28.5824971 39.5416277,28.586274 39.5505872,28.5906762 C39.4804495,28.5992171 39.406258,28.7391073 39.612993,28.6564064 C39.598236,28.662326 39.5931104,28.6418056 39.6024838,28.62564 L39.602,28.626 L39.61,28.648 L39.6085895,28.6363613 L39.6043568,28.6248584 C39.6131146,28.6211688 39.6227837,28.6166147 39.6321652,28.609881 C39.7411663,28.6270486 39.9588845,28.6498183 40.3183756,28.6792943 L40.177,28.667 L41.2045066,33.4547197 L37.21423,34.9070616 L35.8060643,28.1104766 C36.086603,28.3818427 36.4978888,28.5783675 36.899702,28.625492 C37.7924866,28.7301972 38.638507,28.0973436 37.8996933,25.9090909 L37.902,25.919 L37.9183553,25.9807554 C38.0441122,26.6871305 36.1402268,26.3227575 37.5917901,25.973286 L37.728,25.942 L37.6810116,25.9513574 C36.4435782,26.2048587 35.8128672,26.588281 35.5726469,26.9866471 L34.8326957,23.4094326 C35.5007658,23.4836264 35.8273868,23.4566532 34.785504,23.1716009 L34.557668,22.0822272 L33.3391144,21.5331568 L38.6671715,19.5939026 L46.2835124,26.0946393 L44.410402,17.5035376 L44.7547123,17.3761445 C44.7476323,17.4848406 44.7458173,17.6018232 44.749199,17.7272727 C44.7863352,17.6576013 44.83086,17.5999265 44.8778593,17.5458597 L44.9737011,17.4400509 C45.0272056,17.3811307 45.0797188,17.3197564 45.1244832,17.2443924 L46.773802,16.643491 C47.3932148,16.6122252 47.7288278,16.4421467 47.727145,16.2963619 L48.1930919,16.1267511 Z M24.6818014,32.4213544 C24.6679523,31.2625374 24.5503429,30.4144845 24.4184688,33.463425 L24.4140909,33.5624675 L24.4178874,33.5208013 C24.4204338,33.4885886 24.422159,33.4860032 24.4231,33.500119 L24.4236077,33.5796444 L24.4214423,33.650033 C24.4188261,33.7065018 24.4142036,33.7495206 24.4077468,33.719247 L24.4270027,33.8053887 C24.6155733,34.60494 24.6850454,33.5697537 24.6831236,32.6114283 Z M30.047941,29.0070613 C29.9637115,28.3644172 29.9279452,28.6649615 29.9247134,29.0978205 L29.9249953,29.2647611 L29.9281407,29.4346038 C29.9341606,29.6587722 29.9473185,29.8653396 29.9656234,29.9529468 C29.937607,30.3269473 29.9061048,30.7923738 29.8729787,31.3569949 L29.872,31.355 L29.8770909,31.3384675 L29.8840909,31.3114675 L29.8876524,31.298808 C29.9684524,30.9651774 30.0282535,30.4926969 30.0680915,30.03816 L30.0829645,29.8576739 C30.1105909,29.5001022 30.1255293,29.1673941 30.1283101,28.9398278 L30.1281244,28.7901215 C30.1236318,28.5562289 30.0963707,28.5594141 30.047941,29.0070613 Z M38.2507529,28.5906357 C38.0308944,28.4281817 37.9757663,28.7977916 38.1964324,28.7083176 C38.1887757,28.7221012 38.1810578,28.7376777 38.1725592,28.7547984 C38.1675846,28.75451 38.1626101,28.7542217 38.1576361,28.7539335 L37.8968484,28.7388872 C37.3818455,28.709312 36.9236017,28.6838783 36.8339765,28.6812472 L36.835,28.681 L37.0734048,28.6960364 C37.4176834,28.7159857 37.7194976,28.7334341 37.9820672,28.7481607 L38.1716864,28.7586918 C38.0689843,28.9920359 37.9738645,29.5145612 38.1172755,29.9309209 L38.138,29.986 L38.137,29.985 L38.143,29.998 L38.1840411,29.8071812 C38.2834685,29.3157522 38.3196118,29.0044648 38.3190651,28.8278718 L38.3171922,28.7678745 C39.1384606,28.8150973 39.4860354,28.8344886 39.5439426,28.8367291 C39.5124932,28.8338354 38.994989,28.8027768 38.4192208,28.7691516 L38.3171922,28.762542 C38.3132988,28.7062354 38.3041906,28.6702442 38.2915573,28.6516756 L38.3078505,28.6416178 Z M22.1141479,28.5591534 C22.2955095,28.6137868 22.5353445,28.6803139 22.7605113,28.7336955 C22.4836677,28.8229952 22.2603029,28.9649599 22.1006495,29.1221134 Z M32.808744,28.4764607 C32.8334741,28.399419 32.820798,28.413859 32.7917861,28.4673519 C32.6803767,28.396505 32.6200388,28.4270174 32.5951098,28.4946195 L32.5894022,28.517622 C32.5120638,28.5155201 32.4759696,28.5484854 32.5635433,28.6458712 C32.3630094,28.758875 32.4525083,28.7588449 32.6019244,28.7188257 C32.6128797,28.7538262 32.6276826,28.7851723 32.6442241,28.8087244 C32.6291526,28.8499999 32.6268065,28.86563 32.6485001,28.8296523 L32.6550662,28.8196829 C32.6967083,28.8637676 32.7508249,28.8594199 32.8064166,28.7469714 C32.9739409,28.7259023 32.9654591,28.6708506 32.8933139,28.6203529 C33.0402505,28.556608 33.0916637,28.5006193 32.75773,28.5456523 L32.773,28.543 L32.852099,28.5330839 C32.8541942,28.5288453 32.8569701,28.5258154 32.860494,28.5249664 L32.873377,28.5299341 Z M47.9051015,28.8338997 C50.4063202,28.9476541 48.250181,27.9234084 47.7581663,28.7641 L47.7272727,28.824345 Z M30,5.45454545 C35.6858462,5.45454545 40.9201505,7.3878262 45.0814251,10.6328998 L45.0860208,10.6761813 L45.103,10.805 L45.102547,10.7923738 C45.0972458,10.7345711 45.0949388,10.684723 45.0951159,10.6420432 C45.1676094,10.7002 45.2395374,10.7570232 45.3111381,10.8142389 C45.2880393,10.8592715 45.2448597,10.8926003 45.1752454,10.9044222 L45.1159608,10.9090909 C45.2199877,10.9090909 45.3163304,10.9025406 45.4054089,10.890082 C50.6124184,15.0926419 54.0668576,21.3807087 54.4994613,28.4849648 C53.8675928,28.5592566 53.4984609,28.6181461 53.3191382,28.6642426 C53.2982947,28.6589559 53.2783724,28.6540551 53.2594551,28.649532 L53.2544969,28.6244871 C53.2281898,28.533459 53.1795023,28.5363291 53.1430639,28.5703486 C53.1100596,28.1019211 53.0671279,27.6321277 53.0103966,27.1665945 C53.155127,26.7871782 53.20919,26.371533 53.1688526,25.9090909 C53.0510732,25.9649272 52.9454992,26.0228419 52.8508027,26.0825745 C52.732676,25.3800916 52.5813067,24.687507 52.3997726,24.0072379 C52.5811281,23.8170603 52.7790164,23.6086205 52.9928442,23.3821998 L53.1079544,23.2590409 C53.104913,23.3099744 53.1280251,23.3339391 53.2009737,23.2693264 L53.2292694,23.2369435 L53.2425897,23.2264823 C53.2456009,23.2223501 53.248001,23.2175787 53.2559428,23.2139023 C53.2559428,22.9687022 53.1751382,23.0543899 53.1300817,23.1627374 C53.1123352,23.1789675 53.1085519,23.1946122 53.1139118,23.2074605 C52.9347811,23.290084 52.6558391,23.5170399 52.3447746,23.8064506 C49.6359768,14.0105789 40.6579256,6.81818182 30,6.81818182 C24.9386204,6.81818182 20.2560925,8.44023883 16.443891,11.1928781 C16.3760689,11.0847764 16.278992,10.9913319 16.1490039,10.9090909 L16.1556073,11.0262964 C15.9185724,10.9716883 15.5100047,10.9101369 15.0900532,10.8562438 L14.9159283,10.8344036 C14.8422624,10.8253715 14.7689263,10.816637 14.6967838,10.8082788 C14.8578653,10.6793015 15.0205267,10.5527344 15.1848045,10.428188 C16.54425,11.4487063 16.5619084,10.6578199 16.0661798,9.7919137 C19.2550948,7.58704063 22.9926785,6.11896554 27.0323205,5.63212453 C27.1716154,6.84014745 27.7588632,7.56618706 27.4574655,5.58680628 C28.2931918,5.49862506 29.1414483,5.45454545 30,5.45454545 Z M47.713,26.022 L47.7209803,26.1574506 C47.7401242,27.023414 47.3141128,26.1539366 47.6382091,25.9418447 L47.6164267,25.9436633 L47.5830909,25.9454675 L47.4945141,25.9725683 C41.5577712,27.8078422 48.1385568,30.9469147 47.7067179,25.9090909 L47.7160909,26.0524675 L47.7163229,26.0424514 L47.715,26.036 L47.715,26.033 L47.714,26.03 L47.714,26.027 L47.715,26.027 L47.714,26.024 L47.713,26.022 Z M39.4204619,21.8183204 C36.6642077,21.7900232 35.9431272,26.1077143 38.0055637,23.9333838 C38.0309086,24.075603 38.0733615,24.1965424 38.1386943,24.2988937 C38.1361776,24.3561002 38.1344043,24.4062819 38.1335921,24.44618 L38.1335876,24.520222 C38.1359062,24.578518 38.1465798,24.5419753 38.1692304,24.3449112 C38.226295,24.4224043 38.2980192,24.4887225 38.3870469,24.5454545 C38.3999939,24.1694029 38.3420995,23.9092802 38.2404378,23.6705603 C38.5687102,23.2851083 38.9560245,22.755012 39.4046589,22.0472681 L39.437,21.993 L39.3593526,22.1131297 C38.1696884,23.9026997 38.5727333,21.8804788 39.4715156,21.8227982 L39.5454545,21.8225405 Z M48.5871366,23.1818182 L48.5217277,23.266957 C48.0340594,23.9663866 49.5484215,23.6764252 48.5871366,23.1818182 Z M47.6150793,19.2357593 C48.0356151,19.5563365 48.2610419,18.4820082 47.4587119,19.0579134 L47.5191416,19.1407948 C47.5327245,19.1573765 47.5461828,19.172448 47.5578399,19.1853221 C47.5558789,19.2216296 47.5742638,19.2361753 47.6033706,19.235794 Z M16.4223241,3.97878938 C16.4126224,3.7024912 16.3544927,3.89934589 16.3232945,4.09254056 C16.3036495,4.1103176 16.2929258,4.27136598 16.2899083,4.47690872 L16.2897005,4.72170644 C16.2961785,5.28426398 16.3479724,5.89340287 16.426097,5.00573322 L16.437,4.871 L16.4337084,4.90259744 C16.4224066,4.97702426 16.4166254,4.73897939 16.4265719,4.76640146 L16.4318274,4.79609181 L16.435,4.831 L16.4221617,4.68580947 C16.4060405,4.52079366 16.3915249,4.39521501 16.3782696,4.30462548 L16.3685591,4.2431743 C16.3837263,4.20282269 16.4019677,4.14835765 16.4237048,4.077119 Z M19.1452988,2.72727273 L19.1949761,2.76570473 C19.3871455,2.94134159 19.2866807,3.226568 19.1920681,3.28259605 L19.1800909,3.28646753 C19.3007827,3.60878581 19.5763821,3.8441063 19.8414094,3.97239311 C19.6117337,3.94787705 19.3628628,3.96641654 19.0909091,3.97148984 C19.5699936,4.07290523 19.8877305,4.26495156 20.4545455,4.2131032 C20.3917638,4.16203525 20.3274019,4.12093079 20.2610753,4.09090475 C20.6190433,4.08937308 20.6011962,3.68242657 19.1452988,2.72727273 Z M32.7272727,1.57566228 C32.0340487,1.11753017 31.0163907,1.1388917 30,1.15838668 C30.6292244,1.42260592 31.3851808,1.59370551 32.7272727,1.57566228 Z M59.0043817,37.0862068 C58.6353603,37.3314192 58.480123,37.7390199 58.8412511,38.284644 C55.2462331,50.8238432 43.6947197,60 30,60 C19.0531349,60 9.47569151,54.1368087 4.23671125,45.3794676 C4.24699554,44.9443936 4.25192559,44.6056692 4.25337153,44.3468078 L4.25318192,44.0301025 C4.24981538,43.6464332 4.23374586,43.5728142 4.21405538,43.6828469 L4.20474343,43.7462113 C4.18098613,43.934922 4.15426825,44.3422499 4.13854145,44.7740233 L4.13286998,44.9475761 C4.13049899,45.0297419 4.12858685,45.1118561 4.12722768,45.1926088 C1.50385146,40.7368073 0,35.5440253 0,30 C0,24.5178472 1.47047216,19.3791415 4.03850963,14.9567899 C3.94992667,15.5475339 3.91055357,15.9771098 3.90651492,16.1970307 L3.90690095,16.2781924 C3.91731907,16.5667928 4.03713526,16.1431564 4.17967312,14.7188217 C5.02431437,13.2922829 5.98418398,11.9432237 7.04596495,10.6828415 C7.48959838,10.5240911 7.3718805,10.9790748 6.97393706,10.8634073 L7.01212249,10.8749113 C8.52364014,11.2827051 11.8487655,7.85114261 7.04229272,10.6624379 L7.08482226,10.6368095 C12.587856,4.13087391 20.8115194,0 30,0 C36.5609656,0 42.6300127,2.10615367 47.5679214,5.67924116 C47.4632308,6.69356922 47.4664056,7.536612 47.8430215,5.88299008 C49.7803658,7.31641055 51.537747,8.97890118 53.0767511,10.8294516 C52.8493128,10.7877823 52.3084441,10.7967714 51.8863279,10.9774554 L51.8181818,11.0086731 C52.4565473,11.0087366 52.8323512,10.9806008 53.0213867,10.945455 C52.8880493,11.1328175 52.9789967,11.2556488 53.1338346,11.1149723 C53.1534175,11.184866 53.1785949,11.2181934 53.2041853,11.1667806 L53.219,11.126 L53.2316747,11.1544607 C53.2506452,11.1955342 53.2627822,11.1973355 53.2586888,11.1255069 L53.25421,11.0732992 C53.3266071,11.1743261 53.449195,11.316037 53.6031358,11.4815144 C57.6106466,16.5817405 60,23.0118386 60,30 C60,32.4061961 59.7167196,34.7462285 59.1816899,36.9885661 C59.1410355,37.0067261 59.1035613,37.0261243 59.0677341,37.0468915 L59.03,37.069 Z M32.7854915,36.0753995 L32.791,36.105 L32.7772971,35.9970931 C32.6535005,35.0944009 32.6396482,35.4812598 32.6645723,35.9844298 L32.6748632,36.1649382 C32.6836414,36.3014849 32.6945628,36.4365008 32.7062955,36.5480282 L30.7955192,37.2432813 L28.7433027,28.1848283 C29.4653716,27.5688577 29.3986655,26.4777818 30,25.9090909 L29.981,25.928 L29.9350909,25.9744675 L29.8512319,26.0538535 C29.5656613,26.3097009 29.0248586,26.7245358 28.5117934,27.1648469 L27.9083054,24.5023972 L26.9204036,23.8693764 L32.2484607,21.9301222 L32.4641431,23.0176153 C32.4000983,23.0207331 32.3349926,23.0244931 32.2691766,23.0288172 L32.077378,23.042808 C32.0451865,23.0453781 32.0129087,23.0480614 31.9805835,23.0508493 L31.7863776,23.068762 L31.5929145,23.0887659 L31.4020722,23.1104422 C29.8937767,23.2890757 28.8156858,23.5875911 32.4695567,23.046846 L34.9933824,35.715384 L32.7923405,36.5192897 C32.7958521,36.4276143 32.7985734,36.3123177 32.8002993,36.1700169 C32.7979811,36.355822 32.7727302,36.0303344 32.7854915,36.0753995 Z M12.2915833,32.0086389 L12.292,32.022 L12.2923208,32.0329733 L12.291,32.035 L12.2905112,32.0229962 C12.2865194,31.9759829 12.2775187,31.829056 12.2800261,31.8330958 L12.281,31.839 L12.2730309,31.7501443 C12.2658588,31.6763152 12.2596139,31.6144436 12.2542163,31.5633843 L14.8869292,37.2608538 L14.9949822,31.0216871 C17.1282677,30.0496255 16.3815345,28.9840535 15.3486922,28.706283 C15.7141927,28.6741305 16.0438662,28.6362252 16.2227565,28.6011387 L16.2321115,28.6176362 C16.0486209,28.6367683 16.125944,28.6528698 16.2567357,28.6615288 C16.2170563,28.8730399 16.2335527,29.0658265 16.386048,28.7676784 C16.4584207,28.8212703 16.4953397,28.8098266 16.5070971,28.7695253 L16.5431755,28.7755152 C16.70984,28.7965685 17.0015394,28.8128487 17.4551095,28.8215592 L17.4157742,28.8196932 C17.3003161,28.8081251 17.8600343,28.7550583 17.5442341,28.8075139 L17.481,28.817 L17.6900024,28.7855262 C19.2287358,28.5458872 19.3022913,28.4582304 18.8455777,28.4515823 L18.7208931,28.4515669 C18.5189183,28.4539521 18.2533305,28.4668974 17.9734313,28.4866602 L17.7537053,28.5033407 C17.4841201,28.5252166 17.213157,28.5523608 16.98352,28.5818601 C16.8028605,28.5731923 16.6280487,28.568479 16.5103831,28.5703586 L16.4700909,28.5714675 L16.482,28.541 L16.4719255,28.5644014 C16.4554257,28.590452 16.4623314,28.5366409 16.4728898,28.5172028 L16.4811847,28.510854 L16.487,28.523 L16.4699663,28.4539463 C16.4236328,28.3051118 16.3684734,28.3376473 16.3233277,28.4333089 L16.3046475,28.4778268 C16.2894527,28.4855954 16.2741798,28.4986617 16.2603933,28.5201149 C16.1533534,28.5063757 15.9579166,28.4962871 15.6470994,28.4922523 C15.8648915,28.4281765 16.1032858,28.3412144 16.3636364,28.2283829 L16.359,28.209 L18.5853321,27.3993882 L20.5368601,31.6011269 C20.1710106,31.7874837 19.7351515,32.0956993 19.2402631,32.5675263 L19.1100909,32.6934675 L19.0909091,32.713155 L19.2810797,32.7227309 C20.0013373,32.7492993 20.5547773,32.6568643 20.9582018,32.5093159 L21.9679402,34.6835766 L22.0793216,29.980401 C22.4332871,30.0702022 23.1625021,29.8677076 24.3599238,29.0324688 L24.536,28.906 L24.465699,28.9525647 C23.8601889,29.304003 23.3786492,28.631861 23.9811785,28.716455 L24.0701512,28.7328482 L24.1530909,28.7534675 L24.1278488,28.7459157 C23.6230596,28.5979576 23.1813468,28.6124284 22.8225411,28.7153903 C22.7292137,28.6891055 22.6434596,28.66515 22.5648519,28.6433776 L22.3337024,28.580039 C22.249651,28.5572999 22.177271,28.5380965 22.1155775,28.5220917 L22.1555564,26.8004296 C22.7336913,27.0566432 23.4374853,26.8998433 24.2762762,27.1717247 L24.3250909,27.1894675 L24.3180437,27.2987073 L24.305923,27.5146541 C24.2987475,27.6640853 24.2943302,27.8095123 24.2930613,27.9434446 L24.2930748,28.0981664 C24.3009483,28.8393943 24.427783,29.0589464 24.7578614,27.1388537 L24.782,26.987 C24.7182176,27.3052448 24.7426927,26.6875442 24.7797179,26.7883094 L24.789192,26.8294243 L24.791,26.837 L24.7792614,26.7280379 C24.6151769,25.3281717 24.442595,25.9614845 24.3535714,26.8585902 L24.3443571,26.9556374 C23.5524026,25.7347197 23.2355288,25.6509946 22.1687042,26.348605 L22.1747693,25.9758457 C22.2288362,25.9816442 22.2898335,25.9875592 22.3582767,25.9935814 L22.5337773,25.975215 C23.4599084,25.8744683 23.2420011,25.8299938 22.8129516,25.8250652 L22.6542743,25.8249405 C22.4949567,25.8263581 22.3237791,25.8321715 22.1780642,25.8417113 L22.1854511,25.5927582 L25.9450759,24.2243667 L25.3916765,39.2101192 L23.1785095,40.0158121 C23.0971092,39.4379394 21.5437895,39.1867215 21.8607846,40.4947425 L21.4013999,40.6624611 L18.1680367,34.5777469 L17.8493618,41.9552972 L13.8590852,43.4076391 L7.72163117,31.353452 L7.12388694,31.0747192 L10.273,29.928 L10.4010225,30 L10.3846332,29.9862492 C10.3360431,29.9062103 11.0050034,29.7957349 10.5938942,29.9385969 L10.523,29.962 L10.6399367,29.9265416 C10.9289921,29.8351745 11.1734287,29.7482491 11.3779902,29.6659036 L12.2286076,31.5088728 C12.2436158,31.8436759 12.3007858,32.6468254 12.3164731,32.7216587 L12.318,32.726 C12.3224883,32.6805082 12.3160303,32.48876 12.294269,32.0539887 L12.292,32.022 L12.291,31.997 L12.2915833,32.0086389 Z M39.4535068,4.29969671 C39.4359957,4.33344024 39.4184402,4.36413453 39.4009446,4.39196981 C39.2911193,4.35052148 39.1804412,4.31069298 39.0694339,4.27156257 C39.1421031,4.19812375 39.2628696,4.13341269 39.4451548,4.10330505 L39.517,4.095 L39.518,4.093 C39.2514806,4.1164134 39.0084359,4.14383842 38.7871655,4.174779 C38.628644,4.11988037 38.4679857,4.0668959 38.3066749,4.0153719 C38.2906239,3.9678188 38.2219997,3.95590282 38.1603145,3.96967989 C35.5897292,3.16401907 32.855019,2.72921631 30.0190351,2.72727923 C30.005592,2.45339335 29.9881735,2.1357017 29.9662143,1.77431122 L29.9570909,1.62846753 L29.9560909,1.61446753 L29.9540909,1.58946753 L29.9530909,1.57246753 L29.9520909,1.55846753 L29.9516535,1.53727004 L29.9500909,1.52246753 L29.9480909,1.49146753 L29.9460909,1.46246753 L29.9450909,1.44846753 L29.9430909,1.41446753 L29.9410909,1.38746753 L29.94,1.377 L29.9431981,1.55770056 C29.9499346,2.00557621 29.959187,2.39662536 29.9695516,2.7287103 L30,2.72727273 C25.6461993,2.72727273 21.5306785,3.74747036 17.8794529,5.56185026 C18.4543362,5.0061803 18.995068,4.40765994 19.0909091,4.09090909 C18.208654,4.91113776 17.5800396,5.51274144 17.1504208,5.93890188 C14.3314068,7.44657998 11.8088,9.43568579 9.69166788,11.7959622 C9.67866321,11.7571003 9.66671356,11.7226629 9.65531196,11.6921648 C9.66342074,11.5140071 9.67078058,11.3229126 9.6771707,11.1185997 L9.68009091,11.0084675 L9.68109091,10.9854675 L9.68209091,10.9584675 L9.683,10.918 L9.65350807,11.0884358 C9.64182673,11.1601993 9.63063535,11.2305942 9.61984723,11.2994521 L9.58860585,11.501247 C9.57003024,11.4494306 9.55260685,11.40152 9.53646682,11.3581028 C9.55811704,11.2215694 9.5401473,11.109466 9.48883416,11.030288 C9.49813996,11.0143094 9.50697737,10.9990387 9.51536342,10.9844534 L9.52811342,10.9746919 L9.61365958,10.9043729 L9.65802811,10.836877 C9.71513073,10.7441447 9.69154667,10.7464637 9.64034566,10.7875371 L9.61071511,10.8117895 C9.71310723,10.6135881 9.60142487,10.7506279 9.51281562,10.9075093 L9.49161039,10.9316975 C9.4747628,10.9500884 9.45903158,10.9680067 9.44716324,10.9835196 C9.42141125,10.9598172 9.39085437,10.9414071 9.35486743,10.9272596 C9.33952741,10.9045412 9.33112257,10.9039716 9.32879434,10.9205252 C8.92165756,10.8151702 7.98677094,11.4210871 6.92109312,13.4379596 L6.85409091,13.5654675 L6.84009091,13.5924675 L6.82809091,13.6154675 L6.81818182,13.6363636 C8.44502355,13.0040263 9.24107846,12.1636462 9.47150298,11.5842948 C9.49477305,11.6668348 9.51931877,11.749504 9.54322705,11.8277007 C9.53590158,11.8821242 9.52891778,11.935416 9.52226522,11.9875627 C5.29254416,16.791397 2.72727273,23.0961229 2.72727273,30 C2.72727273,32.973699 3.20320069,35.836239 4.08304155,38.5156051 L4.08314332,38.5263755 L4.08141168,38.6805364 C4.02824719,38.9064424 3.97529357,39.1843507 3.9454796,39.4602486 L3.94109091,39.4944675 L3.93924503,39.5208115 C3.93856568,39.5283413 3.93800985,39.5345021 3.9370217,39.5454545 L3.937,39.544 L3.989728,39.3457208 C4.00631744,39.2822208 4.02193411,39.2217915 4.03659767,39.1644112 L4.077,39.002 L4.07666707,39.1177244 C4.0760317,39.1901809 4.07556489,39.252554 4.07524965,39.3054961 L4.07488833,39.3779176 L4.07471034,39.448947 C4.07233209,39.4589104 4.07012823,39.4696799 4.06811926,39.4813174 C3.97077703,39.5530448 3.89137634,39.6907598 4.06213154,39.6377688 C4.06441856,39.6635649 4.06845453,39.6900008 4.07467541,39.71645 L4.074,39.715 L4.08498522,39.6689788 L4.09179943,39.6279108 C4.12551644,39.615342 4.16682753,39.5968674 4.21687447,39.5712259 L4.19767909,39.5752356 C4.18356621,39.568398 4.21028742,39.5217161 4.21676567,39.5418915 L4.216,39.554 L4.21913509,39.513026 C4.21677603,39.4806808 4.20712912,39.460754 4.19286082,39.4503006 L4.16832562,39.4413572 L4.13885817,39.4444149 L4.12083733,39.4501592 C4.12809671,39.3485233 4.1017643,39.3588859 4.08113621,39.4256605 C4.08390438,39.3214547 4.08728378,39.1550066 4.09105713,38.9480252 C4.11281005,38.8600021 4.13190267,38.7805783 4.14854967,38.7092486 C7.78170107,49.5009345 17.9832508,57.2727273 30,57.2727273 C45.0623114,57.2727273 57.2727273,45.0623114 57.2727273,30 C57.2727273,29.5535221 57.2619986,29.10955 57.2407849,28.6683275 C57.7270032,28.7001724 58.0724511,28.7143847 58.2981782,28.7169921 L58.4292572,28.7170979 C58.9241354,28.7108702 58.489313,28.6211778 57.5808864,28.5760852 C58.0550336,27.9058758 58.367443,27.6494494 58.5221219,27.5594814 L58.5570909,27.5404675 L58.5420104,27.5416422 C58.3506184,27.547067 57.8691867,27.4263952 57.1080785,26.5400564 L57.2636084,26.5646377 C59.3938367,26.873594 58.3186594,25.5201439 56.9845615,26.0218397 C56.4203085,22.1597536 55.046265,18.5600577 53.040405,15.4009883 C53.1114511,15.1409941 53.1676978,14.8897458 53.1792514,14.6624911 C53.2469595,15.0506251 53.3159442,15.2369263 53.2851642,14.4748533 L53.278,14.333 L53.2798998,14.3693641 C53.2829327,14.512083 53.2504562,14.2513204 53.2613015,14.2516295 L53.2675532,14.2652811 L53.2710909,14.2794675 L53.2397052,14.1389807 C53.0504277,13.3256198 53.0479168,13.6391586 53.0997401,14.1011233 L53.1079562,14.1709631 C52.9657973,13.8426567 52.5970246,13.633591 51.8213401,13.6363914 C50.8805173,12.3853971 49.8360357,11.2181008 48.6996228,10.1472949 C49.1814656,8.86141633 49.4029348,6.6761371 48.2496063,9.73337415 C45.6940112,7.42990099 42.7001685,5.60344925 39.4084419,4.3936068 L39.4471588,4.31810243 L39.4985787,4.20683272 Z" id="Combined-Shape"></path>
            </g>
        </g>
    </g>
</svg>