<?xml version="1.0" encoding="UTF-8"?>
<svg width="100%" height="100%" viewBox="0 0 60 60" version="1.1" xmlns="http://www.w3.org/2000/svg" xmlns:xlink="http://www.w3.org/1999/xlink">
    <title>BFE2A439-C89F-4367-8434-EF41F7B1D00A</title>
    <g id="Page-1" stroke="none" stroke-width="1" fill="none" fill-rule="evenodd" opacity="0.151733398">
        <g id="UiKit_Icons" transform="translate(-415.000000, -3076.000000)" fill="#4C9EEA">
            <g id="Group" transform="translate(415.000000, 3076.000000)">
                <path d="M30,0 C36.6114687,0 42.7234166,2.13870271 47.6817487,5.76201317 C47.656769,5.90986276 47.6332064,6.07215282 47.6117336,6.23792137 L47.5834786,6.46848141 C47.5761579,6.53179917 47.5692245,6.59489902 47.562749,6.65718809 L47.5447669,6.84103009 C47.4624309,7.74214979 47.4990085,8.3274501 47.8927741,6.59602253 L47.922,6.46 L47.9077387,6.50918422 C47.8568909,6.65418839 47.925697,6.0486991 47.9402678,6.22293031 L47.94268,6.28361783 L47.942,6.3 L47.9450112,6.15736158 C47.945616,6.0838047 47.9458569,6.01459382 47.9457538,5.94956468 C50.6290723,7.96332189 52.9649864,10.4076485 54.8477202,13.1842359 C54.4847511,12.8365624 54.0152997,12.3922222 53.4195561,11.8344625 L53.284,11.707 L53.4179088,11.8218329 C54.1691757,12.4382865 54.0270179,11.7599736 53.3082881,11.653733 L53.234,11.645 L53.2927567,11.6518166 C53.2999548,11.6421562 53.3048035,11.6330595 53.3074793,11.6247487 L53.3091644,11.6023959 C53.3309088,11.5618583 53.3527665,11.516593 53.3744477,11.4662555 L53.4030909,11.3945265 C53.3450407,11.4172135 53.2906703,11.4483296 53.2430808,11.4795267 L53.2303524,11.4884553 C53.1747807,11.371842 53.1392118,11.3527038 53.1190516,11.3855028 C53.1045257,11.3701474 53.1013099,11.3879418 53.105072,11.4247174 C53.1002588,11.447377 53.0974817,11.4759554 53.09646,11.507876 L53.095632,11.5522459 C53.0864206,11.5566176 53.0782964,11.5618836 53.0741989,11.568349 C52.8476691,11.5267404 52.3078026,11.5356211 51.8863279,11.7090918 L51.8181818,11.7391088 C52.4565473,11.7391698 52.8323512,11.7121161 53.0215555,11.6780942 C52.8876837,11.8587687 52.9793263,11.9771538 53.1337307,11.8409625 C53.1572434,11.9218853 53.18885,11.9521346 53.220141,11.8528032 C53.2496033,11.9259139 53.2693659,11.9384663 53.2545648,11.8017251 C53.4244825,12.0295022 53.8694627,12.4716518 54.3475999,12.9192851 L54.627466,13.1785465 C54.6741463,13.2213534 54.7206979,13.263832 54.7669011,13.3057925 L54.9042452,13.4299297 L55.0381792,13.549819 C55.0811641,13.588106 55.1233944,13.6255333 55.1646639,13.6619232 C58.2233658,18.36316 60,23.9741024 60,30 C60,32.2996853 59.7412435,34.5389347 59.251257,36.6902217 C58.6944145,36.9066262 58.3796016,37.3763627 58.9052697,38.0533784 C55.3877608,50.7110094 43.7786604,60 30,60 C19.0435841,60 9.45898053,54.1265734 4.22300864,45.3565395 C4.24291189,44.6314177 4.25192357,44.1137558 4.25355592,43.7596648 L4.25358393,43.5468166 C4.24908779,42.6943153 4.18438903,43.2341723 4.14847702,43.9755158 L4.1410066,44.1430915 C4.12590626,44.5136621 4.11911487,44.9108361 4.130761,45.1990713 C1.50520344,40.7414746 0,35.5465168 0,30 C0,24.4140342 1.52669073,19.1846462 4.18557695,14.7063312 C3.68810019,17.2573665 3.94822661,17.9903409 4.24679505,14.6047007 C9.48804445,5.85563175 19.0601942,0 30,0 Z M41.7457684,49.9901205 L42.2727273,50.979021 L42.2140909,50.9535265 C42.1063954,51.0772089 42.5190348,51.0748825 42.2636526,50.9164422 L42.263,50.928 L42.2610314,50.9181728 L42.2431973,50.8174792 C42.2313978,50.7579148 42.2188112,50.6995886 42.2052429,50.6441043 C42.2556874,50.7474559 42.2979968,50.8238678 42.3314124,50.8754197 C42.2446872,50.8821839 42.2442661,50.9065042 42.3981631,50.9590434 C42.4209466,50.9794996 42.4383603,50.9835862 42.449564,50.9735943 C42.5103869,50.9919961 42.5884707,51.013319 42.6861827,51.0378689 L42.6623408,51.0315074 C38.9653952,53.2620939 34.6325701,54.5454545 30,54.5454545 C27.1647682,54.5454545 24.4418118,54.064746 21.9081882,53.180386 C21.9033461,52.9244978 21.8905785,52.536303 21.8679823,51.9829568 L21.8650909,51.9445265 L21.8651548,51.9928997 C21.8608163,51.9991191 21.841159,51.6954712 21.8493897,51.7152749 L21.8530909,51.7385265 L21.8503104,51.7087664 C24.3856147,52.660994 27.1319848,53.1818182 30,53.1818182 C33.9998087,53.1818182 37.7630201,52.1688245 41.0470781,50.3853932 C41.32208,50.5423984 41.6439028,50.7042033 42.015069,50.8681955 L42.2150909,50.9535265 L41.726723,50.0013231 C41.7330734,49.9975919 41.7394219,49.9938577 41.7457684,49.9901205 Z M13.8590906,11.507065 C14.1411358,11.5519099 14.7136363,11.6293391 15.7024467,11.7503862 C13.8654543,13.1922009 12.2508953,14.9055361 10.9199958,16.8300258 C10.6036162,16.9027552 10.2221745,16.9953321 9.77086365,17.1115547 L9.60309091,17.1545265 L9.56809091,17.1635265 L9.55809091,17.1665265 L9.54545455,17.1700573 C9.97946625,17.1497492 10.4019366,17.1001268 10.7796835,17.038281 C9.67221237,18.6743458 8.76996646,20.459652 8.10751654,22.3574372 C6.34891648,21.4562357 6.63904427,23.5040627 7.50341663,24.3810283 C7.36235762,24.9491656 7.24167015,25.5266117 7.14288796,26.1115022 C6.7217829,26.2423566 6.74991795,26.6362577 7.00148527,27.0780996 C6.88017433,28.0355263 6.81818182,29.0105236 6.81818182,30 C6.81818182,30.4171942 6.82920241,30.8318145 6.85096835,31.2435855 C6.71748566,31.4480648 6.53834809,31.7471784 6.87216051,31.258616 L6.85322628,31.2855862 C7.00274692,34.0210912 7.6265262,36.6303187 8.64375338,39.0324581 C8.48330412,39.0345582 8.32623353,39.0680975 8.18181818,39.1697707 C8.39226532,39.2339229 8.58651748,39.2894686 8.76583116,39.3132726 C11.2525959,44.9768757 15.938849,49.4551943 21.7432686,51.6682588 L21.7496853,51.7942848 L21.7605153,51.986184 L21.77262,52.1844641 L21.7861861,52.3920962 C21.80494,52.670097 21.8256447,52.9419525 21.8447396,53.1572692 C12.2976739,49.7963419 5.45454545,40.6973201 5.45454545,30 C5.45454545,22.6797167 8.65904701,16.1078848 13.7417831,11.6107714 Z M12.2727273,51.0507791 C11.3846261,50.8463769 10.7922478,50.6643094 9.54545455,50.9093926 C10.6080041,51.1626519 11.2446942,51.2637562 12.2727273,51.0507791 Z M42.9294979,50.8679814 L42.8632825,50.9076891 C42.7203188,50.8917107 42.582937,50.8799361 42.4784698,50.8770331 C42.4900823,50.6114281 42.3249199,49.9057819 42.2002299,49.715612 C44.2350814,48.453573 46.0600885,46.8854876 47.6109157,45.0755442 C47.6109907,45.2949769 47.6113139,45.5145082 47.611702,45.7342657 C47.8071477,45.4329442 47.8932056,45.1324697 47.8177745,44.8324056 C48.8739359,43.5634927 49.7985343,42.1797407 50.568691,40.7026512 L50.660385,40.705181 C51.251688,40.721621 51.7338392,40.7053894 52.112082,40.671101 C50.0763724,44.8786647 46.8761289,48.4175136 42.9294979,50.8679814 Z M25.6762695,32.0045087 L27.2007024,39.0669005 C27.1468733,39.0882203 27.1313913,39.1214384 27.137035,39.1565799 C26.9294267,39.159636 27.0095394,39.17364 27.1497351,39.1846743 C27.1516393,39.1883096 27.1537404,39.1919384 27.1560218,39.1955502 L27.1213816,39.2020551 C27.1089013,39.2045241 27.0976304,39.2068101 27.0879345,39.2088488 L27.0515809,39.2176019 C27.0438421,39.220776 27.072995,39.2179435 27.1624259,39.2050022 C27.1829356,39.2333604 27.2138788,39.2600601 27.2469612,39.2797981 L28.2343069,43.8468263 L28.2585834,44.0161 C28.2970022,44.4088636 28.2078362,44.7861679 27.9910855,45.1480131 C27.7433704,45.5615504 27.3968035,45.8493786 26.9513849,46.0114977 L23.8920623,47.1250001 L24.6681254,45.4277645 L24.127175,42.9567993 L22.2282851,43.6479387 L22.8371235,47.5089664 L19.5316485,48.7120609 L18.8587412,44.6492911 C18.9304703,44.4938497 19.0069933,44.320074 19.0909091,44.1269387 C18.9590123,44.005915 18.8347293,43.8951719 18.7173979,43.7950036 L17.2719235,35.0634405 L24.4643346,32.444494 C24.4494412,32.6898489 24.4342081,32.9809534 24.4187787,33.3233333 L24.4120909,33.4615265 L24.4154739,33.4196619 C24.4197749,33.3507259 24.4223928,33.3466753 24.4234347,33.3717552 L24.4231642,33.4622591 C24.4215864,33.523089 24.4176711,33.5875356 24.4116271,33.5857656 L24.4275489,33.661251 C24.5825887,34.2913129 24.6569538,33.727107 24.6772552,32.9939572 L24.6812196,32.8077434 C24.6831322,32.6820456 24.6836046,32.5540284 24.68276,32.4284385 L24.681,32.366 L25.6762695,32.0045087 Z M33.3173493,32.537991 L34.5665757,38.2678831 L35.571,39.025 L35.459,39.019 L35.4746226,39.0224291 L35.49,39.024 L35.5230909,39.0295265 L35.5665832,39.0371946 C35.5744561,39.0384586 35.5826364,39.0397721 35.591088,39.0411291 L37.670934,40.6082153 C37.3862605,40.7148599 36.9633194,40.898996 36.3558804,41.1829347 C36.7567605,41.4311545 37.071214,41.6501785 37.3122527,41.8428499 L37.3250909,41.8535265 L37.3277057,41.8390813 C37.3811781,41.5393523 37.755204,41.1346739 37.9901469,40.8471308 L39.0128522,41.6214826 L37.2136542,42.2758167 C35.7364655,42.3596764 35.3470469,42.5535347 35.4782893,42.7334858 L33.7307334,41.4420702 L32.61289,43.9508784 L28.9206041,45.2947606 L31.6078573,39.2886615 C31.7079905,39.2807986 31.8121556,39.2711568 31.9201658,39.2595546 C32.0299257,39.2615877 32.1338789,39.2629629 32.2283958,39.2635753 L32.4637817,39.2632313 C32.7822656,39.2593982 32.8632692,39.2396287 32.4165742,39.1958485 C32.4644471,39.1887137 32.5128985,39.1812173 32.5619161,39.1733474 L32.684,39.152 L32.6053076,39.1655132 C32.5662445,39.1713979 32.5287879,39.1765909 32.492981,39.181141 L32.3905526,39.1929116 C32.2706266,39.1813326 32.1155149,39.1681363 31.9176914,39.1526297 C31.9964564,39.1221625 32.2627947,39.099359 32.7272727,39.1457353 L32.5117373,39.1249957 C32.1750877,39.0938898 31.8754424,39.0724058 31.6109405,39.0587505 L30.4338499,33.587499 L33.3173493,32.537991 Z M23.038723,39.3916205 C22.6804686,39.0676487 21.7765024,39.0386835 21.819676,39.8340992 L21.6232562,39.9067905 L21.7243144,40.5234208 C21.6774714,40.5558078 21.6668911,40.5761992 21.7615844,40.5474816 L21.73,40.555 L21.8164126,41.0754302 C21.8096668,41.2328227 21.8029637,41.4105574 21.7967925,41.5938236 L21.7917445,41.7487431 L21.7851897,41.9673657 C21.7759408,42.2926204 21.7693841,42.603968 21.7681867,42.819275 L21.768535,42.978388 C21.7697252,43.0662291 21.7729141,43.1150474 21.7785994,43.1095177 C21.7821199,43.3218679 21.812729,43.5366337 21.858104,43.1046096 L21.857,43.112 L21.8534891,43.1316832 C21.8499212,43.1386628 21.8479306,43.1066257 21.8487383,43.0879355 L21.852,43.077 L21.853,43.078 L21.8409703,42.9987823 C21.8307176,42.9422354 21.8218405,42.9065301 21.8144954,42.889219 L21.8076669,42.8779485 C21.8185506,42.7475617 21.8320003,42.5579186 21.8484004,42.2973713 L21.8550909,42.1815265 L21.8497497,42.2097916 L21.8496331,42.1487939 C21.8511356,42.0261512 21.8592063,41.7957628 21.8606123,41.8951932 L21.86,41.928 L21.8620827,41.8830794 C21.8641729,41.69359 21.8656984,41.5264657 21.8667182,41.3799263 L21.8875778,41.5083113 L23.6809738,40.8555685 L23.3111584,39.2924444 Z M27.2838751,40.4305746 C27.210482,40.4059089 27.1994972,40.4613712 27.2171022,40.5047246 C27.0840967,40.6097977 26.6983401,41.274258 25.9090909,42.965204 L26.052027,43.0146395 C26.9936511,43.3209661 26.7156839,42.812862 26.3460526,42.7333752 L26.2990909,42.7255265 L26.314941,42.70715 C26.5052912,42.4636234 26.7071631,42.0854501 26.8762453,41.7099371 L26.9465724,41.5495661 C27.1337406,41.1111956 27.2665699,40.7037665 27.2723741,40.5540566 C27.2940811,40.5502962 27.3175699,40.5234675 27.3361097,40.4559791 Z M35.8829611,28.2502272 C35.888538,28.2547952 35.8941551,28.2593366 35.8998116,28.263851 L38.0508048,38.2123888 L36.1167503,38.9163271 L35.0680623,38.0045128 L33.6904847,31.5937399 L29.7520464,33.0272142 L31.0530964,39.0402093 C30.521639,39.0339266 30.2047409,39.0685603 30.0724858,39.1152836 L30.0632013,39.0982918 C29.7986997,38.7079094 29.834878,39.727775 30.1163325,39.1887398 L30.0894656,39.234259 C30.2454188,39.2874207 30.6000672,39.3274462 31.1127341,39.3147604 L31.1556068,39.5093742 L30.5034012,40.9998411 L28.5693467,41.7037794 L26.4017353,31.7000387 L26.9855991,31.4897257 C27.0680478,31.5023998 27.1468766,31.5097968 27.2183778,31.5099832 L27.2610909,31.5085265 L27.2490909,31.5095265 L27.2727273,31.5086252 C27.2116633,31.4871004 27.1530124,31.4665951 27.0967052,31.4470731 L29.9314989,30.4141643 C29.9128832,30.6765195 29.8932347,30.9728294 29.8729787,31.3048028 L29.8780909,31.2825265 L29.8879088,31.247835 C29.9475947,31.0105264 29.9958103,30.7003742 30.0329739,30.3782469 Z M40.1332922,26.7425314 C39.8356534,26.9301419 39.6088669,27.1464169 39.5454545,27.3776224 C40.7223116,26.9547233 41.4478727,26.6478847 41.8512121,26.4381722 C40.2910538,27.8205783 39.6634056,28.4544764 39.561072,28.6337901 C39.5459594,28.6368965 39.5414676,28.6405882 39.5505872,28.644881 C39.4804495,28.6530933 39.406258,28.7876032 39.612993,28.7080831 C39.5986832,28.7136025 39.5934299,28.6952163 39.592932,28.682086 L39.6025005,28.6784934 L39.606,28.688 L39.6047381,28.6775937 C39.6093073,28.6757358 39.6141228,28.6736532 39.6190826,28.6713389 L39.6342927,28.6636941 C39.7439726,28.6801733 39.9611305,28.7019807 40.3181578,28.7301608 C40.3726657,28.7344606 40.4283031,28.7387485 40.4870733,28.7431777 L40.556,28.748 L40.5020039,28.7432477 C40.4197915,28.7357885 40.3849851,28.7305285 40.3835135,28.7270191 L40.421455,28.7221789 C40.4682523,28.7204595 40.5532788,28.7210602 40.6480276,28.7230722 L40.7815965,28.7266374 C41.0947521,28.7366212 41.3736358,28.7568323 40.6787806,28.7573193 L40.8684501,28.7570463 C41.1126679,28.7564926 41.320063,28.7551919 41.4943579,28.7532642 L40.4069286,29.1491543 L40.9172081,32.5205679 L42.2182993,32.0470094 L42.8694318,33.5077426 L41.8753659,28.7469173 C42.4904274,28.7318927 42.3169351,28.7030635 41.8596666,28.6767055 L41.8486783,28.6244003 L41.7247596,28.6694099 C41.5794412,28.6620102 41.4145841,28.6549398 41.2421591,28.6485846 L41.0605121,28.642246 L40.9685767,28.6393005 L40.7443701,28.6328416 C40.3218858,28.6216502 39.9208074,28.6166731 39.7071214,28.6239183 C39.9502885,28.4787455 40.4332281,28.106948 40.9151808,27.6820501 L41.1227304,27.4955933 C41.1456246,27.4746238 41.1684365,27.4535894 41.1911394,27.4325095 L41.3258357,27.3056365 C41.7729197,26.8782209 42.1539316,26.4478995 42.2502064,26.1732229 C42.2722,26.1453563 42.2775722,26.1232298 42.2678094,26.1065847 C42.2704164,26.0926625 42.2720686,26.0792695 42.2727273,26.0664336 L42.2484018,26.0875071 C42.2036866,26.0622761 42.0998045,26.0602761 41.9574733,26.0784317 L44.6651684,25.0931148 L45.9723216,31.2212992 C45.0303363,31.1759127 44.3605281,31.1932094 45.9795776,31.4086056 L46.012,31.409 L47.0337072,36.1959632 L47.5963412,35.9911812 L47.6199672,35.9415713 C47.6407714,36.1524575 47.6720819,36.3574065 47.7066265,36.468263 C47.6427677,36.551479 47.5962025,36.7070178 47.7304625,36.6932492 L47.7490909,36.6885265 L47.7388922,36.6852508 C47.7349572,36.6752137 47.7737843,36.6487488 47.7842916,36.6623394 L47.7857515,36.6809253 L47.8000532,36.6020806 C47.935633,36.6243315 48.2462508,36.6412623 48.6090963,36.6513257 L48.8941125,38.024998 L44.2172171,39.7272487 L44.1288817,39.3197121 C44.4209647,39.3052846 44.7064278,39.2668873 45,39.1987895 C44.7005115,39.1535924 44.3974075,39.0989569 44.0738117,39.0643989 L43.2728492,35.382013 L42.0069226,35.8427726 L41.1647287,33.9665155 L41.6659177,37.1832295 C41.2276567,37.6486227 40.8818835,38.106468 40.7125969,38.9741731 C40.3752281,38.9953506 40.0526116,39.0500385 39.8274601,39.1529185 L39.7890909,39.1705265 L39.8208577,39.1654325 C40.0175339,39.1451116 40.1334771,39.3629267 39.6502438,39.3902329 L39.5454545,39.3930271 C39.9709689,39.3930271 40.3374942,39.388003 40.6496633,39.3789289 C40.6106883,39.7121999 40.5928799,40.098211 40.5993929,40.5526398 L40.6030909,40.7485265 L40.6098784,40.7353519 C40.7781638,40.3308103 40.9785079,39.8487674 41.1807739,39.3577846 C41.5546557,39.3376085 41.8186405,39.3101354 41.9932809,39.2790132 L42.1776687,40.4695836 L40.46,41.094 L40.4645644,41.0846413 L40.4870909,41.0275265 L40.4150038,40.9817885 C39.712577,40.5628238 39.3322377,40.9304625 39.6708023,41.3813949 L39.1535107,41.5702871 L38.3279666,36.5805664 C38.4138423,36.5774083 38.4484333,36.566964 38.3241761,36.5456975 L37.029,28.743 L37.0734048,28.7461888 C37.4176834,28.7653709 37.7194976,28.7821482 37.9820298,28.79639 L38.1716133,28.806594 C38.0690834,29.0307267 37.9741655,29.5319165 38.1166728,29.9318908 L38.143,29.999 L38.1840255,29.8146715 C38.2834176,29.3423222 38.3195765,29.0430288 38.3190552,28.8730358 L38.3171922,28.8152639 C39.0835033,28.857632 39.4373964,28.8767007 39.5238423,28.8808112 L39.5356332,28.8808529 C39.4559215,28.8753739 38.9029597,28.8435664 38.31718,28.8099672 C38.3133363,28.756706 38.3044399,28.7223748 38.2921033,28.7043196 L38.3078505,28.6938633 L38.2507529,28.6448421 C38.0308944,28.4886363 37.9757663,28.8440304 38.1966121,28.7576868 C38.1889317,28.770956 38.1811889,28.7859617 38.1735542,28.8027463 C38.1682479,28.8024504 38.1629417,28.8021547 38.1576361,28.8018591 L37.8968484,28.7873915 C37.5496368,28.768219 37.2282242,28.7508566 37.0281789,28.7408029 L37.0204883,28.6875963 C37.6281311,28.7115305 38.1809625,28.3846763 38.1818172,27.4528429 Z M53.281614,28.814176 C53.4115319,28.8351316 53.6566043,28.8457031 53.9468091,28.8476193 L54.2182884,28.8470536 L54.3122368,28.8458748 L54.5027956,28.8420941 L54.5185791,28.8411034 C54.53643,29.2251623 54.5454545,29.6115273 54.5454545,30 C54.5454545,33.6762518 53.7372613,37.1637399 52.288857,40.2944823 C51.8736892,40.3395977 51.3195861,40.4455784 50.6378363,40.6437119 L50.5927408,40.6563987 C52.030107,37.8844284 52.9242067,34.7853914 53.1340499,31.500278 C53.1785666,31.4977321 53.1943467,31.4859162 53.1711263,31.4623933 L53.1818182,31.4607268 C53.1669955,31.4497545 53.1522111,31.4390412 53.1374444,31.4285893 C53.1447443,31.3263209 53.1503951,31.2220204 53.1553543,31.1175387 L53.1692436,31.1973471 L53.172,31.21 L53.1694651,31.1846988 C53.1538639,31.0640691 53.1859063,31.1125608 53.1929484,31.2168267 L53.1942241,31.2645964 L53.193,31.282 L53.2144882,31.0598751 C53.3212592,29.8397026 53.3263616,29.1619416 53.2895232,28.8679124 Z M55.9690478,39.1783217 C59.9787404,35.7649974 58.6309815,36.2820672 57.2926135,37.400714 L57.1544152,37.5184456 L57.0857538,37.5786649 L56.947896,37.7033639 C56.3798247,38.2283447 55.9029959,38.8133744 55.9690478,39.1783217 Z M45.0581499,38.3200107 C44.7139181,36.5777299 45.0844162,40.5602508 45.0881689,38.6426883 L45.0870909,38.5025265 L45.0876482,38.4740515 Z M41.7771072,37.897751 L41.9560497,39.0354548 C41.7914726,39.0044992 41.5757688,38.9807429 41.3408092,38.9697829 C41.4941102,38.5965696 41.6439816,38.2290253 41.7771072,37.897751 Z M23.7307833,36.4248082 C24.8893001,35.9591376 25.0651589,34.4790833 22.5637286,35.7451527 L22.5432978,35.6509841 L21.0663834,36.188537 L21.2955404,37.8028567 L22.8779486,37.2269072 L22.7674804,36.7097649 C23.2277728,36.6275995 23.8182287,36.4987872 24.4535156,36.3185066 L24.2293163,36.3505864 C24.0515854,36.3762858 23.8850242,36.4010309 23.7307833,36.4248082 Z M48.2080099,34.7175788 L48.5729502,36.4828695 C48.1612572,36.5065585 47.9203675,36.5281683 47.808129,36.5460172 C47.8119012,36.5062369 47.8110581,36.4771137 47.8062696,36.4601476 C47.8215931,36.3949309 47.8361711,36.2937254 47.849337,36.1484646 L47.856,36.044 L47.8549513,36.0596635 C47.8447812,36.1149287 47.8324927,36.0204042 47.8342336,35.9612751 L47.837,35.932 L47.8469271,35.9505402 L47.857,35.994 L47.8233849,35.8343333 C47.8056159,35.7546213 47.7890548,35.6842053 47.7736432,35.6223772 L48.2080099,34.7175788 Z M19.2840857,32.6181165 C23.0704682,32.7508262 22.2413974,29.719547 19.2426435,32.4665939 L19.0909091,32.6088029 Z M30,5.45454545 C35.6527494,5.45454545 40.8591984,7.36538481 45.008649,10.5763655 C45.0209672,10.821618 45.0457208,11.0993219 45.0852881,11.4135944 L45.103,11.541 L45.1021586,11.5270127 C45.0292985,10.7465391 45.5524867,11.4913351 45.2294524,11.6239581 L45.1773923,11.638509 L45.1159608,11.6433566 C45.5213188,11.6433566 45.8099987,11.547722 46.0068536,11.392979 C50.8914174,15.5969179 54.1018786,21.6925437 54.5029221,28.5429173 C53.7920926,28.6230789 53.4127418,28.6847245 53.2626798,28.7299256 C53.2321603,28.647453 53.1914666,28.6929811 53.1540546,28.8313644 C53.1264394,28.2989175 53.0820296,27.7710998 53.0202427,27.248606 C53.1577689,26.8907548 53.2081825,26.4999828 53.1688526,26.0664336 C53.0605881,26.115785 52.9626367,26.1668251 52.8739668,26.2193592 C52.7623598,25.5321768 52.6193438,24.8548061 52.4474899,24.1890279 C52.6158057,24.0197322 52.796695,23.8364367 52.9907185,23.6388948 L53.1079938,23.5176946 C53.1040117,23.5777974 53.1389275,23.5995549 53.2559428,23.4749061 C53.2559428,23.238631 53.1747912,23.3218837 53.1300817,23.4257091 C53.1128149,23.4408931 53.1087666,23.4555443 53.1140586,23.4686469 C52.945175,23.5434992 52.6875023,23.7418033 52.3978166,23.9975231 C49.7528953,14.1046058 40.7273654,6.81818182 30,6.81818182 C29.1602761,6.81818182 28.3309804,6.86282974 27.5143571,6.94988117 C27.4798479,6.62602734 27.4071562,6.18526493 27.2831874,5.60588723 C28.1748649,5.50499113 29.0815413,5.45454545 30,5.45454545 Z M22.4804425,23.3894194 C22.4264574,23.3928148 22.3647978,23.3940652 22.4033495,23.3863627 L22.2893222,23.4016659 C22.1130001,23.4271193 21.9930383,23.4473018 21.9194572,23.4628162 C21.894782,23.4660504 21.8739532,23.4691889 21.8582631,23.4718201 C21.8600876,23.4527947 21.86188,23.4340028 21.8639555,23.4182809 C21.8787411,23.3772772 21.8933824,23.3293898 21.9070705,23.2742133 L21.8727384,23.3185741 C21.9207164,22.8023519 21.942373,22.4793896 21.9463037,22.3032283 L21.9465822,22.2138725 C21.938662,21.8895899 21.8112427,22.5924086 21.7400177,23.3727079 L21.7185983,23.6343746 C21.6892666,24.0418231 21.680292,24.4417346 21.7161677,24.7017229 L21.7230909,24.7485265 L21.724,24.752 L21.7560007,24.4673312 C21.7860327,24.1892594 21.8118328,23.9404916 21.833599,23.719034 L21.8540278,23.506606 C21.9278579,23.5139818 22.1071522,23.5091379 22.3109689,23.4980616 C22.3694101,23.4972645 22.4337808,23.4961675 22.5044565,23.4947451 L22.5139881,23.5350377 L22.633,23.491 L22.7654152,23.4744371 C22.8396793,23.4646772 22.9026826,23.455892 22.9549603,23.4481738 L23.0253995,23.4374082 C23.1262274,23.4242182 23.1881579,23.4113852 23.1809995,23.4010737 C23.1855141,23.3957787 23.1711856,23.3923005 23.1431137,23.3905815 C23.1061039,23.3857399 23.0410923,23.3820491 22.9418865,23.3799506 L33.0319418,19.7072659 C33.5658427,19.8072039 34.5499061,19.5824557 33.8460903,19.4114041 L37.2541142,18.1719527 C37.5636579,18.9481836 37.8349893,19.3532957 38.0024167,19.4715175 C36.9769858,19.5630906 36.0892896,19.6807686 37.71341,19.6357003 L37.9600105,19.6074062 L38.1246766,19.5892184 C38.1302527,19.6053498 38.1442879,19.6133978 38.1607283,19.6119935 L38.1864361,19.6026269 L38.2112114,19.5780555 C38.6143097,19.5304575 38.9120275,19.4926878 39.122626,19.4634247 L39.3048611,19.4369481 C39.3197354,19.4346634 39.3338592,19.4324534 39.3472486,19.4303169 L21.4542758,25.9421833 C21.4166767,25.9426274 21.3768864,25.9432918 21.3353749,25.9440641 C21.1309915,25.9455651 20.8804608,25.9524276 20.6217782,25.9630397 L20.3572552,25.9750676 C19.9658816,25.9946029 19.5852475,26.0214041 19.344665,26.0495592 L19.2548875,26.0429869 C19.1838372,26.0378909 19.1329238,26.0345532 19.1080366,26.0334667 L19.0900909,26.0325265 L19.3250323,26.0524051 C19.1441774,26.0747465 19.0510233,26.098061 19.1075862,26.1197491 C19.0732827,26.1337581 19.0901627,26.1466794 19.1744809,26.1577598 C18.9468817,26.4451665 18.8467754,26.6987376 18.8241495,26.8991888 L17.0097481,27.5595196 L16.4130224,24.8259005 L15.2174251,25.2610624 L14.8276924,23.5063542 C16.5013511,23.4139831 16.5888343,23.3706661 16.1140105,23.3686869 L15.9982862,23.3689347 C15.6917065,23.3712452 15.2360387,23.3860692 14.8054487,23.4120942 L14.6504919,22.71871 L26.3954775,18.4438848 L26.2839272,17.9185771 L25.535604,17.5037697 L27.2128696,16.8924291 C27.2351199,16.9040171 27.2611558,16.9151028 27.2885897,16.9231886 C27.0557131,17.1838626 29.4553767,18.7857853 30,17.9257389 L29.7681859,17.8099294 C28.2133524,17.0398697 27.5155553,16.8344934 27.327008,16.8990859 C27.2898578,16.8814039 27.2594327,16.8683525 27.2352268,16.8598311 L27.268,16.873 L33.3421514,14.6624188 L33.5690615,15.8329137 L37.6243208,14.3569173 C37.7584715,14.3671314 37.9074191,14.3752221 38.0696649,14.380258 C38.0609904,14.4590221 38.0559575,14.574225 38.0539931,14.7125839 L38.0539861,15.0162405 C38.0552344,15.1251271 38.0576768,15.2403695 38.0611435,15.3580321 L38.0678406,15.5557024 L38.071846,15.6549528 L38.0610909,15.6645265 L38.0500805,15.6374126 L38.0444803,15.6243271 L38.024,15.577 L38.0328183,15.6325193 L38.0413549,15.6867317 L38.0133963,15.7123341 C37.7281101,15.9912998 37.3966287,16.3170274 37.0138623,16.6948403 L36.8181818,16.8881119 C36.9116114,16.871015 37.29129,16.535512 37.7389869,16.109847 L37.8685626,15.9859723 C37.9318054,15.9251982 37.9959462,15.8631234 38.0600379,15.8025429 C38.0691747,15.8582198 38.0781409,15.9114413 38.0869568,15.9612874 C38.1256113,16.6457244 38.1905378,17.176885 38.2451667,16.7129289 L38.245,16.713 L38.2652322,16.7784034 C38.2775242,16.815555 38.2884318,16.842662 38.297845,16.8606406 L37.1377053,17.2834503 C37.0392604,17.1551986 36.9328845,17.0232485 36.8181818,16.8881119 L36.897,16.984 L36.9635501,17.0709921 C37.0245003,17.1535 37.0728913,17.2279163 37.1103498,17.2932452 L36.9862926,17.3396073 C36.9546761,17.2744847 36.9216553,17.1968351 36.8885012,17.1058802 L36.86,17.025 L36.893746,17.1393868 C36.9157857,17.210808 36.9377643,17.2804216 36.959662,17.348253 L32.828,18.851 L32.833,18.828 L32.825,18.852 C32.8180216,18.8255133 32.8357459,18.7177107 32.8446222,18.7117879 L32.848803,18.7232638 L32.849,18.735 L32.8516232,18.6203061 C32.8578113,17.8677047 32.74984,18.261073 32.6741112,18.7392182 L32.6624433,18.8152646 L32.648,18.916 L32.5077139,18.9690218 C32.1977039,18.5819054 31.5321101,17.9681107 30.3430255,17.0698696 L30.114,16.898 L30.1876295,16.9577058 C30.6453022,17.3481557 30.6151737,17.7787521 30.4626212,17.9895679 L30.4254099,18.0341979 L30.4010909,18.0565265 L30.4364214,18.106511 C30.780779,18.5765847 31.3113395,18.9829333 31.7751051,19.2361606 L22.3206799,22.6756891 L22.478,23.379 Z M20.5780711,26.1536523 C20.6642068,26.1605879 20.7451798,26.167099 20.8211892,26.1732012 L19.142,26.783 L19.2654569,26.1665938 C19.4161232,26.1782715 19.671811,26.1866436 20.0610024,26.190101 L20.2360554,26.1912771 L20.1588164,26.1902051 C20.1267483,26.1893344 20.1091237,26.1880272 20.1023474,26.1864706 L20.2147536,26.1891138 L20.3600909,26.1745265 L20.324,26.18 L20.4699734,26.1658233 Z M33.6770565,23.2026567 C31.8802626,23.1334946 32.9875585,23.3966966 34.0930118,23.5653741 L34.3132169,23.5977228 C35.4419191,23.7570389 36.3617946,23.7850356 33.8665238,23.2106966 Z M32.715,23.279 L32.72,23.278 C32.5500748,23.2806507 32.3594836,23.2901443 32.1643661,23.303969 L31.9680682,23.3191671 C31.9023516,23.3246674 31.8364604,23.3305785 31.7707232,23.3368301 L31.5743014,23.3565358 C29.9467734,23.5280868 28.6206696,23.8684027 32.7272727,23.2773893 L32.586,23.297 L32.4811713,23.3127674 C32.467499,23.3147328 32.4542539,23.3166369 32.4417566,23.3184334 L32.42,23.321 L32.4494473,23.3173278 C32.489396,23.311585 32.5425898,23.3039382 32.6115922,23.2940188 L32.713,23.279 L32.717,23.278 L32.715,23.279 Z M39.3597738,17.4024409 C39.3577606,17.464709 39.35645,17.5308395 39.3558048,17.5997886 L39.3558381,17.8152697 C39.3610203,18.3974961 39.4055172,19.090523 39.470898,19.3754452 C39.2851275,19.3732884 38.7789503,19.4060664 38.2579124,19.4494737 L38.183,19.599 L38.2191248,19.4428223 L38.2195328,19.4294859 L38.233,19.411 L38.2088532,19.4333849 L38.185554,19.4567127 L38.1652381,19.4581402 C38.2327303,19.2960007 38.1005799,18.7681216 37.6504342,18.0275256 L38.1015202,17.8612824 C38.142458,17.9740148 38.2105775,18.0866876 38.3106061,18.1993007 C38.3105332,18.0612449 38.3104603,17.9233227 38.3103801,17.7854497 Z M42.1006856,16.4060628 L42.191,16.828 L42.164646,16.8220945 C42.0963959,16.8082451 42.0767938,16.8279492 42.0931577,16.8563305 L42.111976,16.8788547 C42.0678227,16.921887 42.0932975,16.9682817 42.2879586,16.9902002 L42.224,16.98 L42.504103,18.2803333 L39.6075721,19.3358981 C39.6433694,19.1669189 39.6809152,18.8657232 39.718746,18.3915364 L39.725,18.294 L39.7205683,18.3403989 C39.6926136,18.5788077 39.6913985,18.0649655 39.7196526,18.1018375 L39.7280909,18.1265265 L39.7030033,17.9528888 C39.6617017,17.6862502 39.6246325,17.4769856 39.5915985,17.3175957 L42.1006856,16.4060628 Z M30.084,16.963 L30.0640415,17.0520432 C29.8631013,18.0474484 30.1805561,18.2368123 30.4010909,18.0565265 L30.3856498,18.0347331 C30.1556849,17.697597 30.025422,17.3308062 30.084562,16.9661974 L30.084,16.963 Z M42.6415354,12.5308033 L43.0389158,14.3132159 C42.6695331,14.4195066 42.368253,14.7151225 42.2727273,15.3078511 L42.454,15.348 L38.3380368,16.8478138 C38.3439316,16.7813375 38.3302909,16.6372135 38.2930172,16.449496 L38.2740697,16.3596558 C38.2854473,16.1665556 38.2959709,15.9143571 38.3052159,15.5932172 L38.3060909,15.5585265 L38.4197803,15.4466649 L38.6604107,15.2059292 C39.0329298,14.8308425 39.3502708,14.4999166 39.4812516,14.3503529 L39.5160909,14.3475265 L39.5290909,14.3465265 L39.5454545,14.3459157 L39.4917779,14.3382594 C39.5687583,14.2492302 39.5681601,14.2358076 39.4533701,14.3340424 C38.9065673,14.2641243 38.4542748,14.2168586 38.0879625,14.1869444 L38.6770483,13.974685 C39.0634291,14.2671066 39.3924962,14.3825822 39.5202273,14.1159952 L39.5389673,14.0699249 C39.4380944,13.9642656 39.3405441,13.8626841 39.2462353,13.7650641 L42.6415354,12.5308033 Z M39.4310909,14.3535265 L39.3570909,14.3595265 L39.3884667,14.3576224 L39.4320305,14.3546535 C39.2815993,14.487988 38.9719134,14.780161 38.4465139,15.2902221 L38.3090909,15.4225265 L38.2791843,15.453105 C38.2786048,15.4378841 38.2781267,15.422487 38.2777678,15.4073571 L38.2771857,15.3233305 C38.2783164,15.2496036 38.2850107,15.2174153 38.3010909,15.3225265 L38.3,15.315 L38.2861109,15.1982596 C38.2392539,14.8366215 38.200701,14.5948955 38.1694847,14.4489391 L38.1544835,14.3838299 C38.510737,14.3925152 38.9264886,14.3865705 39.3871223,14.356923 L39.4310909,14.3535265 Z M9.68190917,11.6917144 L9.682,11.679 L9.682,11.66 L9.683,11.658 L9.683,11.651 L9.6529761,11.8189472 C9.65142184,11.8281348 9.64987628,11.837299 9.64833936,11.8464393 C9.6130289,11.8839382 9.57837022,11.9229881 9.54382217,11.9621379 C9.54407201,11.8810311 9.52461073,11.8127369 9.48919456,11.7592972 C9.49832285,11.7442239 9.50699949,11.729807 9.51524061,11.716026 L9.52811342,11.7064345 L9.61009091,11.6405265 L9.65802811,11.5739202 C9.71513073,11.4847545 9.69154667,11.4869843 9.64034566,11.5264779 L9.611,11.549 L9.6349832,11.5025414 C9.68485765,11.3988032 9.61314882,11.4815321 9.54005568,11.5972114 L9.51281562,11.6418359 L9.49161039,11.6650937 C9.47485853,11.6826769 9.45921038,11.6998106 9.44687859,11.7146711 C9.42141109,11.6922001 9.39125824,11.6746941 9.35557775,11.6618461 C9.33998624,11.6392918 9.33138305,11.6382096 9.32861028,11.6543054 C8.92155,11.5532671 7.98740976,12.1354546 6.92245999,14.0724743 L6.886,14.137 L6.882,14.145 L6.881,14.146 L6.88,14.149 L6.878,14.153 L6.877,14.154 L6.88,14.149 L6.878,14.153 L6.877,14.154 L6.86520096,14.1769664 L6.842,14.22 L6.841,14.221 L6.84,14.224 L6.838,14.227 L6.837,14.229 L6.82988436,14.2436409 L6.81818182,14.2657343 C7.38358274,14.0544211 7.84863489,13.8189453 8.2244927,13.5782103 C4.77331247,18.1464488 2.72727273,23.8342853 2.72727273,30 C2.72727273,32.9467492 3.1946134,35.7843452 4.05921994,38.4427132 C4.00859409,38.6615846 3.96094302,38.9233433 3.9370217,39.1783217 L3.94,39.149 L3.939,39.157 L3.939,39.161 L3.938,39.165 L3.938,39.173 L3.98981894,38.9859191 C4.00642928,38.9247657 4.0220547,38.8665911 4.03670667,38.8113884 L4.077,38.655 L4.07653607,38.7815359 C4.07618603,38.8206198 4.07589076,38.8565446 4.0756471,38.8894277 L4.07506773,38.9790695 L4.074,39.086 L4.07134512,39.1001651 L4.06811926,39.1166514 C3.97811318,39.1804222 3.90344624,39.2984394 4.02758576,39.2758527 L4.04378404,39.272354 L4.06214527,39.267234 C4.06443469,39.2919909 4.06846696,39.3173593 4.07467541,39.3427404 L4.074,39.341 L4.08495854,39.2972119 L4.09179943,39.2576065 C4.12551644,39.2455212 4.16682753,39.2277572 4.21687447,39.2031018 L4.19767909,39.2069573 C4.18356621,39.2003827 4.21028742,39.1554963 4.21676567,39.1748956 L4.216,39.188 L4.21913509,39.1471404 C4.21677603,39.1160392 4.20712912,39.0968789 4.19286082,39.0868275 L4.16832562,39.0782281 L4.13885817,39.0811682 L4.12086832,39.0862723 C4.1280967,38.9879678 4.10117722,38.9992422 4.0810848,39.0649915 L4.081,39.063 L4.0828334,38.9976182 C4.08466141,38.9232536 4.08673403,38.8284217 4.08910893,38.7176824 L4.09158672,38.6018094 C4.09467844,38.5897751 4.09771625,38.5779084 4.10070075,38.566208 C6.20886601,44.9457105 10.6079027,50.2814627 16.3231917,53.6006797 C16.3599962,53.8048564 16.433287,54.0101258 16.4234261,53.5781255 L16.4241868,53.6590449 C20.4219279,55.9579436 25.0574219,57.2727273 30,57.2727273 C45.0623114,57.2727273 57.2727273,45.0623114 57.2727273,30 C57.2727273,29.5710442 57.2628241,29.1444015 57.2432341,28.7202879 C57.7275694,28.7501526 58.0720459,28.7637522 58.2974642,28.7662094 L58.4286757,28.7662771 C58.9247793,28.7601124 58.4903295,28.6732045 57.5810033,28.6306921 C58.0679292,27.9689223 58.384263,27.7267816 58.5343457,27.6466645 L58.5550909,27.6355265 L58.5190453,27.6362326 C58.3137941,27.6315784 57.8403948,27.4931403 57.1080785,26.6731312 L57.2663877,26.697154 C59.3822466,26.9912272 58.3287686,25.705643 57.0045852,26.167732 C56.4637343,22.314098 55.1162703,18.7186101 53.1389909,15.5574217 L53.162282,15.4231011 L53.1791763,15.2519813 C53.2467866,15.6247965 53.3157071,15.804361 53.2853294,15.0759223 L53.2780909,14.9295265 L53.2774157,14.9085871 L53.2387728,14.7451698 C53.0406063,13.9274399 53.0482548,14.303467 53.1093371,14.7828584 C53.00111,14.5394379 52.7591205,14.3636982 52.3012861,14.2961861 C51.2928099,12.8675575 50.1502207,11.539096 48.8918858,10.3302214 L48.8972252,10.3100856 C48.9054133,10.2804613 48.913399,10.250852 48.9211708,10.2213182 L48.965144,10.0455063 L48.9993884,9.89352495 C49.1846704,9.02507125 49.1245573,8.44678627 48.4818568,9.94453152 C43.6224189,5.46395273 37.1308024,2.72727273 30,2.72727273 L29.957,2.727 L29.9568951,2.71035728 L29.9540909,2.68252647 L29.9530909,2.66952647 L29.9520909,2.65452647 L29.9516535,2.63199043 L29.950742,2.61836141 L29.9483206,2.58215933 L29.9468963,2.56086399 L29.9450909,2.54652647 L29.9430909,2.51452647 L29.9420909,2.48852647 L29.94,2.474 L29.9432533,2.65515905 C29.9436397,2.67978817 29.9440342,2.70423832 29.9444367,2.7285091 L30,2.72727273 C26.5401984,2.72727273 23.2308678,3.37151557 20.1854272,4.54658224 C19.9832627,4.35069259 19.6510471,4.09526271 19.1452988,3.77622378 L19.1949761,3.81317762 C19.3871455,3.98205922 19.2866807,4.25631539 19.1920681,4.31018851 L19.1800909,4.31452647 L19.1847609,4.32743628 C19.2617958,4.51813411 19.3995206,4.67752985 19.5569172,4.80000746 C19.4213201,4.85440966 19.2863082,4.91170949 19.1518586,4.97006089 L19.0909091,4.97258638 C19.1040631,4.97526381 19.1170956,4.97800694 19.1300148,4.9808091 C18.1783754,5.39365647 17.2569636,5.85930147 16.3673095,6.37375363 C16.3851178,6.32706986 16.4043305,6.2031994 16.4254842,5.97372233 L16.4370909,5.83652647 L16.43826,5.82494729 L16.4213632,5.651592 C16.4014856,5.45685404 16.3840632,5.31999993 16.3680281,5.23517754 C16.3833,5.19624489 16.4017134,5.14345291 16.4237048,5.07415288 L16.4140087,5.09927886 C16.4030863,5.11701056 16.4162309,5.02804237 16.421612,5.04274474 L16.423,5.066 L16.4221812,4.97581529 C16.4129799,4.73925608 16.3643892,4.87372513 16.3322865,5.03891938 L16.3232062,5.08905911 C16.3029761,5.10711129 16.2922305,5.27150018 16.289637,5.47808113 L16.2891996,5.63930058 C16.2912636,5.96552328 16.3103389,6.32689511 16.34215,6.38921095 C13.8424472,7.83734451 11.5939699,9.67204239 9.67822587,11.8109591 L9.68,11.738 L9.68,11.724 L9.681,11.721 L9.681,11.695 L9.682,11.691 L9.681,11.692 Z M14.7032719,10.805034 C15.2502407,11.2585627 15.640995,11.5023306 15.9054413,11.5966327 L15.7837318,11.6883014 C15.5740313,11.655136 15.3269637,11.6216666 15.0764639,11.5908683 L14.8217774,11.5605755 C14.4664297,11.5196843 14.1275368,11.486292 13.9038165,11.469053 C14.1342355,11.2683538 14.3683282,11.0723503 14.6060694,10.8806903 Z M7.01212249,11.6104917 C8.54654192,12.0085421 11.9499432,8.602187 6.81818182,11.5332294 L6.829,11.527 L6.92219294,11.4781512 C7.44062079,11.2267176 7.42026422,11.6102702 7.10890243,11.6176543 L7.04282342,11.613816 L6.97809091,11.5995265 Z M27.034325,5.63188303 L27.0293264,5.66791134 C26.969556,6.14034422 27.0189633,6.6214019 27.1068106,6.9978319 C23.1194295,7.493243 19.4456731,9.00268505 16.3519671,11.2595948 C16.2969333,10.9345167 16.0408275,10.4572406 15.6954516,10.052674 C18.9652138,7.70239788 22.8367285,6.13741027 27.034325,5.63188303 Z M40.7777766,2.62334865 C39.2804323,1.64319131 39.0037471,2.73055592 40.7540795,2.71647741 L40.7940909,2.71452647 L40.7045658,2.71335343 C40.2560523,2.69299902 40.5518368,2.51263765 40.8527834,2.67743225 L40.906,2.71 Z M32.7272727,2.66890604 C32.0340487,2.2283944 31.0163907,2.24893432 30,2.2676795 C30.6292244,2.52173646 31.3851808,2.6862553 32.7272727,2.66890604 Z M21.9333993,44.9106069 L21.932,44.933 L21.9414851,44.8165463 C22.0538858,43.2066646 21.3494798,47.1933926 21.8873347,45.1230212 L21.9311931,44.9516185 C21.8627003,45.2228353 21.9330559,44.8258989 21.9333993,44.9106069 Z M32.7854915,35.8417303 L32.791,35.87 L32.776723,35.7624138 C32.508406,33.8843201 32.7588967,37.8549666 32.7975815,36.0930528 L32.799,35.961 L32.7987608,35.9752162 C32.7928391,36.0462174 32.7741481,35.8032131 32.7854915,35.8417303 Z M31.5109859,28.3431567 C31.6331648,28.116738 31.7444744,27.9102601 31.8456291,27.7224257 L32.0346102,27.3712305 C32.2286349,27.0103472 32.3755368,26.7360232 32.4829912,26.5343215 L37.4093368,24.74279 L37.3909664,24.6618674 C37.5579032,24.5716143 37.7622605,24.4117039 38.0052618,24.1650808 C38.0305325,24.3023295 38.0729744,24.4190039 38.1387307,24.5173725 C38.1358805,24.5795637 38.1339771,24.63316 38.1333277,24.6736589 L38.1337923,24.7358595 C38.1364976,24.7849403 38.1471466,24.746371 38.1696439,24.5629539 C38.2266413,24.6372349 38.2982341,24.7008263 38.3870469,24.7552448 C38.3999841,24.3939314 38.3421875,24.1439189 38.239449,23.9151164 C38.5670753,23.5453641 38.9535518,23.0370091 39.4011453,22.3584705 L39.434,22.306 L39.3552996,22.4223279 C38.2012017,24.0886164 38.5539912,22.2904792 39.4029676,22.1452739 L39.4769286,22.1369951 L39.5454545,22.1370581 C38.3697411,22.0725749 37.5466049,22.7631851 37.1303985,23.4511292 L37.0616945,23.1311733 L24.6856828,27.6369609 C24.7107961,27.5077644 24.7372932,27.3649385 24.7652237,27.207566 L24.789,27.066 L24.781841,27.1058655 C24.7182176,27.4088893 24.7426927,26.8149463 24.7797179,26.9118359 L24.789192,26.9513695 L24.7789644,26.8514481 C24.6090631,25.4602356 24.430112,26.1637055 24.3451079,27.0738415 C23.5042284,25.8270967 23.1989714,25.812269 21.9646191,26.62024 L21.8950909,26.6655265 L21.8891064,26.6284821 C21.880537,26.5736733 21.8723481,26.5234665 21.8645308,26.4776492 L22.9758252,26.0757942 C23.1743927,26.0451893 23.2142259,26.0230826 23.1593145,26.0083711 L40.4382468,19.72038 C40.9971032,19.7418698 41.5782123,19.6959601 42.2663685,19.5080106 C42.2702219,19.5274403 42.2747285,19.5488997 42.2799483,19.5723659 L42.2928801,19.6286861 L42.297,19.642 L42.2882587,19.5692029 C42.2592849,19.3508806 42.2337072,19.3162495 42.2558501,19.4488723 L42.2664772,19.5064138 C41.9146478,19.4521434 41.6264051,19.4077006 41.3856798,19.3738622 L42.5842983,18.9383194 L43.8075418,24.5968243 L38.0818977,26.6811591 C38.037476,26.4921595 37.9773363,26.2875553 37.8996933,26.0664336 L37.903,26.079 L37.9183553,26.1353418 C38.0441122,26.8145485 36.1402268,26.4641899 37.5917901,26.1281596 L37.722,26.099 L37.6810732,26.1070622 C35.8716785,26.4634673 35.3594673,27.0869646 35.4684617,27.63194 L32.864,28.579 L32.80865,28.5353398 C32.8285045,28.4759146 32.8244134,28.4727966 32.8070912,28.5003165 L32.7917861,28.5262999 C32.668295,28.4507904 32.6075527,28.4950262 32.5889577,28.5746253 C32.5120532,28.5727404 32.4762549,28.6043848 32.5635433,28.6979531 L32.558,28.691 L30.1030495,29.583999 C30.1149252,29.3970813 30.1226423,29.2251965 30.1263023,29.083084 L30.1285837,28.9550368 L30.1284653,28.857363 C30.1252397,28.6121227 30.0978574,28.6019573 30.047745,29.0438142 C29.963606,28.4274063 29.9279003,28.7169766 29.9247011,29.133184 L29.924994,29.2936758 C29.9262885,29.41423 29.9299193,29.5370212 29.9355491,29.6455397 L27.3615379,30.5828008 C27.3748613,30.5269408 27.3887398,30.4674512 27.40319,30.4041932 L27.435,30.261 C27.4011332,30.3813503 27.4358169,30.0802856 27.4446203,30.1202563 L27.4465294,30.1527018 L27.446,30.162 L27.4527659,29.9875925 C27.5343057,27.2628703 27.1784635,29.4867578 27.0969561,30.6784872 L25.9232316,31.1053605 C25.9165416,31.1062283 25.9123022,31.107953 25.9103513,31.1104501 L24.6505714,31.5692284 C24.6233145,31.2585072 24.5808747,31.1779209 24.5306472,31.6124022 L18.3835161,33.8504129 L17.305,28.863 L17.4551095,28.8668838 L17.4157742,28.8650896 C17.3003161,28.8539664 17.8600343,28.8029407 17.5442341,28.8533788 L17.545,28.853 L17.6900024,28.8322368 C19.1671864,28.6110315 19.2940626,28.5245058 18.8977782,28.5122822 L18.8455777,28.5111368 L18.7208931,28.511122 C18.5189183,28.5134155 18.2533305,28.5258629 17.9734313,28.5448656 L17.7537053,28.5609045 L17.5333625,28.5792108 C17.4365849,28.5877486 17.3411375,28.5968408 17.249091,28.606354 L17.1602725,28.191908 L21.7233091,26.5300778 C21.7246944,26.5831114 21.7267351,26.6379828 21.729359,26.6931275 L21.7380516,26.8451982 C21.7699323,27.321186 21.8414688,27.7073174 21.9039969,26.950663 L21.912,26.83 C21.9067044,26.8663798 21.9006171,26.8396088 21.896209,26.8035429 L21.8932612,26.7755004 C22.516684,27.2271675 23.3062423,26.9781396 24.2763827,27.2805377 L24.3250909,27.2985265 L24.313852,27.4680021 C24.3121147,27.4962602 24.3104767,27.5244621 24.3089408,27.552555 L24.3009746,27.7193803 C24.3001929,27.7386101 24.2994641,27.7577346 24.2987893,27.7767354 L23.5233129,28.0587413 L23.6618778,28.7030607 C23.347767,28.6695182 23.0656306,28.6974797 22.8215083,28.7645186 C22.336295,28.6331262 22.0559897,28.5623305 21.9205083,28.5323575 L21.8509833,28.5182064 C21.7110499,28.4940173 22.0401947,28.5998016 22.4334885,28.7022948 L22.5655539,28.7359424 C22.630888,28.7521966 22.6967343,28.7679765 22.7613612,28.7827122 L22.7284513,28.7926463 C21.3905822,29.2330113 21.3497745,30.8587583 23.8147542,29.4133041 L23.8709552,29.6703579 L27.3983358,28.3858571 C27.3274584,28.4965537 27.2829139,28.5987519 27.2727273,28.6888112 C28.3930196,28.6705998 28.8719695,28.2585427 29.1559785,27.7465379 L32.4600148,26.5435626 C32.36386,26.718931 32.2500902,26.9277951 32.1331455,27.1439331 L31.9720944,27.4425155 C31.691022,27.9653241 31.4297951,28.4608273 31.3894978,28.5638797 L31.387,28.572 C31.3424248,28.7278642 31.3692545,28.7065214 31.4140076,28.6280154 L31.4341343,28.5912076 L31.4773588,28.5046942 L31.5134128,28.4261437 C31.5752183,28.2860348 31.6055036,28.1851018 31.4738272,28.4157928 L31.449,28.457 Z" id="Combined-Shape"></path>
            </g>
        </g>
    </g>
</svg>