<?xml version="1.0" encoding="UTF-8"?>
<svg width="100%" height="100%" viewBox="0 0 20 20" version="1.1" xmlns="http://www.w3.org/2000/svg" xmlns:xlink="http://www.w3.org/1999/xlink">
                    <path d="M17.4923953,1.66675843 L2.50750815,1.66675843 C1.14158216,1.65686499 0.0248498298,2.75349613 0.0100269546,4.1193782 L0.0100269546,13.9095045 C-0.0490334881,14.547534 0.15458978,15.182064 0.573882226,15.6665881 C0.993174673,16.1511122 1.59188829,16.443743 2.23178622,16.4769151 L7.41655718,16.4769151 L9.99995173,19.4409258 L12.5833463,16.4789131 L17.7671182,16.4789131 C18.4086808,16.4420869 19.007745,16.1461641 19.4268702,15.659037 C19.8459954,15.1719099 20.0492046,14.5353927 19.9898765,13.8955186 L19.9898765,4.10539231 C19.9690604,2.74429645 18.8536001,1.65516109 17.4923953,1.66675843 Z M4.81617976,10.389055 C4.36190824,10.3971683 3.94783517,10.1297682 3.76834231,9.71238255 C3.58884946,9.29499692 3.6795806,8.81051041 3.99794306,8.48635954 C4.31630553,8.16220867 4.79907873,8.06276348 5.21963046,8.23470735 C5.64018218,8.40665122 5.91499904,8.81583945 5.91507149,9.27018342 C5.9182661,9.56443853 5.80415624,9.84785382 5.59795717,10.057802 C5.39175809,10.2677501 5.11044468,10.3869476 4.81617976,10.389055 L4.81617976,10.389055 Z M9.99995173,10.389055 C9.39305059,10.389055 8.90106001,9.89706441 8.90106001,9.29016327 C8.90106001,8.68105521 9.39483965,8.18727557 10.0039477,8.18727557 C10.6130558,8.18727557 11.1068354,8.68105521 11.1068354,9.29016327 C11.1068354,9.89706441 10.6148448,10.389055 10.0079437,10.389055 L9.99995173,10.389055 Z M15.1837237,10.389055 C14.7294522,10.3971683 14.3153791,10.1297682 14.1358862,9.71238255 C13.9563934,9.29499692 14.0471245,8.81051041 14.365487,8.48635954 C14.6838495,8.16220867 15.1666227,8.06276348 15.5871744,8.23470735 C16.0077261,8.40665122 16.282543,8.81583945 16.2826154,9.27018342 C16.28581,9.56443853 16.1717002,9.84785382 15.9655011,10.057802 C15.759302,10.2677501 15.4779886,10.3869476 15.1837237,10.389055 L15.1837237,10.389055 Z"></path>
</svg>