<?xml version="1.0" encoding="UTF-8"?>
<svg width="100%" height="100%" viewBox="0 0 28 28" version="1.1" xmlns="http://www.w3.org/2000/svg" xmlns:xlink="http://www.w3.org/1999/xlink">
                    <path d="M14.3,2.8 C14.7142136,2.8 15.05,3.13578644 15.05,3.55 L15.049,12.949 L24.45,12.95 C24.8642136,12.95 25.2,13.2857864 25.2,13.7 L25.2,14.3 C25.2,14.7142136 24.8642136,15.05 24.45,15.05 L15.049,15.05 L15.05,24.45 C15.05,24.8642136 14.7142136,25.2 14.3,25.2 L13.7,25.2 C13.2857864,25.2 12.95,24.8642136 12.95,24.45 L12.949,15.049 L3.55,15.05 C3.13578644,15.05 2.8,14.7142136 2.8,14.3 L2.8,13.7 C2.8,13.2857864 3.13578644,12.95 3.55,12.95 L12.949,12.949 L12.95,3.55 C12.95,3.13578644 13.2857864,2.8 13.7,2.8 L14.3,2.8 Z"></path>
</svg>