<?xml version="1.0" encoding="UTF-8"?>
<svg width="100%" height="100%" viewBox="0 0 28 28" version="1.1" xmlns="http://www.w3.org/2000/svg" xmlns:xlink="http://www.w3.org/1999/xlink">
                    <path d="M16.8,11.6853333 C20.9237261,11.6853333 24.2666667,15.0282739 24.2666667,19.152 C24.2666667,23.2757261 20.9237261,26.6186667 16.8,26.6186667 C12.6762739,26.6186667 9.33333333,23.2757261 9.33333333,19.152 C9.33333333,15.0282739 12.6762739,11.6853333 16.8,11.6853333 Z M14.9326667,1.41866667 L14.9333333,5.28533333 L14.9390055,5.4606674 C15.0292921,6.851695 16.186151,7.952 17.6,7.952 L21.4666667,7.95166667 L21.467129,11.4552261 C20.0183887,10.4246781 18.2466318,9.81866667 16.3333333,9.81866667 C11.4364086,9.81866667 7.46666667,13.7884086 7.46666667,18.6853333 C7.46666667,21.1267599 8.45340668,23.337721 10.049836,24.941166 L5.6,24.9407407 C5.08453423,24.9407407 4.66666667,24.4300137 4.66666667,23.8 L4.66666667,2.55940741 C4.66666667,1.92939369 5.08453423,1.41866667 5.6,1.41866667 L14.9326667,1.41866667 Z M13.0010813,20.4864146 C12.7774174,20.7100785 12.7774174,21.0727094 13.0010813,21.2963733 C15.0991661,23.3944582 18.5008339,23.3944582 20.5989187,21.2963733 C20.8225826,21.0727094 20.8225826,20.7100785 20.5989187,20.4864146 C20.3752548,20.2627507 20.012624,20.2627507 19.7889601,20.4864146 C18.138203,22.1371717 15.461797,22.1371717 13.8110399,20.4864146 C13.587376,20.2627507 13.2247452,20.2627507 13.0010813,20.4864146 Z M15.9996667,1.55166667 L21.3326667,6.88466667 L17.6,6.88533333 L17.4459093,6.87800898 C16.6345473,6.80047859 16,6.11700919 16,5.28533333 L15.9996667,1.55166667 Z" id="Combined-Shape"></path>
</svg>