<?xml version="1.0" encoding="UTF-8"?>
<svg width="20px" height="20px" viewBox="0 0 20 20" version="1.1" xmlns="http://www.w3.org/2000/svg" xmlns:xlink="http://www.w3.org/1999/xlink">
    <title>C4BB9EF8-C214-4A2A-9997-5D026A66230B</title>
    <g id="Page-1" stroke="none" stroke-width="1" fill="none" fill-rule="evenodd">
        <g id="UiKit_Icons" transform="translate(-335.000000, -2896.000000)" fill="#FFFFFF">
            <g id="zoom_in" transform="translate(335.000000, 2896.000000)">
                <path d="M9.097,10.903 C9.37148552,11.1774855 9.37148552,11.6225145 9.097,11.897 L5.387,15.6 L7.9,15.6 C8.28659932,15.6 8.6,15.9134007 8.6,16.3 C8.6,16.6865993 8.28659932,17 7.9,17 L3.7,17 C3.31340068,17 3,16.6865993 3,16.3 L3,12.1 C3,11.7134007 3.31340068,11.4 3.7,11.4 C4.08659932,11.4 4.4,11.7134007 4.4,12.1 L4.4,14.613 L8.103,10.903 C8.37748552,10.6285145 8.82251448,10.6285145 9.097,10.903 Z M11.897,10.903 L15.6,14.613 L15.6,12.1 C15.6,11.7134007 15.9134007,11.4 16.3,11.4 C16.6865993,11.4 17,11.7134007 17,12.1 L17,16.3 C17,16.6865993 16.6865993,17 16.3,17 L12.1,17 C11.7134007,17 11.4,16.6865993 11.4,16.3 C11.4,15.9134007 11.7134007,15.6 12.1,15.6 L14.613,15.6 L10.903,11.897 C10.725439,11.719439 10.6560935,11.4606382 10.7210854,11.2180854 C10.7860772,10.9755325 10.9755325,10.7860772 11.2180854,10.7210854 C11.4606382,10.6560935 11.719439,10.725439 11.897,10.903 Z M16.3,3 C16.6865993,3 17,3.31340068 17,3.7 L17,7.9 C17,8.28659932 16.6865993,8.6 16.3,8.6 C15.9134007,8.6 15.6,8.28659932 15.6,7.9 L15.6,5.387 L11.897,9.097 C11.719439,9.274561 11.4606382,9.34390646 11.2180854,9.27891463 C10.9755325,9.21392279 10.7860772,9.02446746 10.7210854,8.78191463 C10.6560935,8.53936179 10.725439,8.280561 10.903,8.103 L14.613,4.4 L12.1,4.4 C11.7134007,4.4 11.4,4.08659932 11.4,3.7 C11.4,3.31340068 11.7134007,3 12.1,3 L16.3,3 Z M7.9,3 C8.28659932,3 8.6,3.31340068 8.6,3.7 C8.6,4.08659932 8.28659932,4.4 7.9,4.4 L5.387,4.4 L9.097,8.103 C9.37148552,8.37748552 9.37148552,8.82251448 9.097,9.097 C8.82251448,9.37148552 8.37748552,9.37148552 8.103,9.097 L4.4,5.387 L4.4,7.9 C4.4,8.28659932 4.08659932,8.6 3.7,8.6 C3.31340068,8.6 3,8.28659932 3,7.9 L3,3.7 C3,3.31340068 3.31340068,3 3.7,3 L7.9,3 Z"></path>
            </g>
        </g>
    </g>
</svg>