<?xml version="1.0" encoding="UTF-8"?>
<svg width="100%" height="100%" viewBox="0 0 12 12" version="1.1" xmlns="http://www.w3.org/2000/svg" xmlns:xlink="http://www.w3.org/1999/xlink">
                                    <path d="M6.00000221,4.38073319e-06 C6.78805294,-0.000949318868 7.56863205,0.153822894 8.29849165,0.45616353 C8.48999674,0.540218357 8.57910368,0.762001725 8.49898676,0.955187331 C8.41886984,1.14837292 8.19895702,1.2420013 8.00251584,1.16518931 C7.3699918,0.903124755 6.69287255,0.768494195 6.00000221,0.768494195 C3.11074339,0.768494195 0.768474834,3.11075733 0.768474834,6.00000438 C0.768474834,8.88926698 3.11074128,11.2315318 6.00000221,11.2315318 C8.88925872,11.2315318 11.2315252,8.88926698 11.2315253,5.9998802 C11.2325046,5.31279774 11.0976864,4.63229213 10.8341591,3.99584221 C10.7580137,3.80105701 10.8516421,3.58114424 11.0448278,3.50102735 C11.2380134,3.42091047 11.4597969,3.51001736 11.5445622,3.70318717 C11.8453765,4.42841921 12.0000022,5.20575904 12.0000022,6.00000438 C12.0000022,9.31380501 9.31379673,12.0000044 6.00000221,12.0000044 C2.68620327,12.0000044 2.21066053e-06,9.31380501 2.21066053e-06,6.00000438 C2.21066053e-06,2.68621687 2.68620781,4.38073319e-06 6.00000221,4.38073319e-06 Z M3.24017086,7.34863123 C3.80966447,8.37071032 4.86284759,9.00019462 6.00245201,8.99963816 C7.1423269,9.00034723 8.19579571,8.37070731 8.76531752,7.34832167 C8.84863208,7.21279223 9.02057492,7.16914 9.15512502,7.2496683 C9.28967513,7.3301966 9.33896536,7.50625693 9.26686974,7.64881047 C8.59804285,8.84654436 7.36358866,9.60001146 6.00245201,9.60001146 C4.65568518,9.60062103 3.41106682,8.85668752 2.73804788,7.64881047 C2.6591288,7.50535062 2.70691196,7.32282899 2.8449996,7.24027742 C2.98308723,7.15772585 3.15963917,7.20613543 3.24017086,7.34863123 Z M4.2,3.60001109 C4.53149179,3.60001109 4.80000119,3.86940599 4.80000119,4.19941018 L4.80000119,4.80060928 C4.80031757,4.95978218 4.73718651,5.11251875 4.62457814,5.22501445 C4.51196977,5.33751016 4.35917074,5.40048764 4.2,5.40001377 C3.86850701,5.40001377 3.6,5.13061347 3.6,4.80060928 L3.6,4.19941018 C3.6,3.86821068 3.86639765,3.60001109 4.2,3.60001109 Z M7.8,3.60001109 C8.13149179,3.60001109 8.40000119,3.86940599 8.40000119,4.19941018 L8.40000119,4.80060928 C8.40031757,4.95978218 8.33718651,5.11251875 8.22457814,5.22501445 C8.11196977,5.33751016 7.95917074,5.40048764 7.8,5.40001377 C7.46850701,5.40001377 7.2,5.13061347 7.2,4.80060928 L7.2,4.19941018 C7.2,3.86821068 7.46639765,3.60001109 7.8,3.60001109 Z"></path>
</svg>
