<?xml version="1.0" encoding="UTF-8"?>
<svg width="100%" height="100%" viewBox="0 0 14 14" version="1.1" xmlns="http://www.w3.org/2000/svg" xmlns:xlink="http://www.w3.org/1999/xlink">
  <path d="M7.00002281,0 C10.8660287,0 14,3.13400675 14,7.00394654 L13.9924293,7.3293885 C13.8197872,11.0548385 10.7433235,14 7.00002281,14 C3.13401696,14 0,10.8659932 0,7 C0,3.13400675 3.13401696,0 7.00002281,0 Z M7.00002281,0.341463415 C10.677443,0.341463415 13.6585811,3.32259179 13.6585811,7 L13.6511934,7.31753854 C13.4871247,10.8569913 10.5606799,13.6585366 7.00002281,13.6585366 C3.32260261,13.6585366 0.341464527,10.6774082 0.341464527,7 C0.341464527,3.32259179 3.32260261,0.341463415 7.00002281,0.341463415 Z M7.00002281,0.758617886 C3.55299142,0.758617886 0.758620358,3.55297984 0.758620358,7 L0.762653236,7.22475343 C0.816329754,8.71949264 1.40391594,10.1377464 2.41119146,11.2307381 L2.57532546,11.4089756 L2.56322087,11.4102107 L2.88213627,11.6904894 C3.39238837,12.1389242 3.97576776,12.5029399 4.6115415,12.7662852 L4.81159931,12.8451606 C6.95439489,13.6477745 9.37024273,13.2129747 11.0987249,11.7070695 L11.3490094,11.4907494 L11.3571102,11.4813659 L11.3995282,11.4450008 L11.5897014,11.2296814 C13.2362616,9.44372972 13.6977927,6.86027673 12.7663268,4.61152647 C11.8002763,2.27928182 9.52443446,0.758617886 7.00002281,0.758617886 Z M3.56391389,11.286766 C3.52103167,11.4428837 3.41741693,11.5753275 3.27663033,11.6542837 L3.330645,11.6193171 L3.48187394,11.7366533 C3.80411151,11.9760046 4.15146897,12.1827114 4.51918197,12.3530239 L4.74221431,12.4508141 C6.68405617,13.2551487 8.89371662,12.9615632 10.5506458,11.7121887 L10.6584738,11.6268293 L10.6052136,11.5828739 C10.5464161,11.5271808 10.4984158,11.4595859 10.4651649,11.3830713 L10.4369768,11.3036939 C10.0045374,9.76575644 8.60353369,8.70191701 7.00595098,8.6983472 C5.40837014,8.69484753 4.00267252,9.75247697 3.56391389,11.286766 Z M7.00002281,1.1000813 C3.74157707,1.1000813 1.10008489,3.74156488 1.10008489,7 C1.10008489,8.3415703 1.55559372,9.62898028 2.37558421,10.6639616 L2.45034945,10.7554146 L2.50007593,10.6143337 C2.92218006,9.46641425 3.77101152,8.52445612 4.86895787,7.98555783 L4.93074777,7.95609756 L4.90614399,7.9364891 C4.22476449,7.36912463 3.80699182,6.54151448 3.75856026,5.65099481 L3.75383337,5.48333333 C3.75383337,4.62299692 4.0956018,3.79789764 4.70395349,3.18954792 C5.31230519,2.58119821 6.13740716,2.23943089 6.99774638,2.23943089 L7.16847864,2.23943089 L7.16802336,2.2577561 L7.29496898,2.26640415 C8.80432817,2.40306636 10.0265378,3.57673883 10.21791,5.091472 L10.2331869,5.23910043 L10.2433662,5.49057203 C10.2410812,6.44344252 9.81516641,7.33953642 9.09201419,7.94256533 L9.06656613,7.9622439 L9.13117484,7.9926474 C10.234898,8.534888 11.0864609,9.48581741 11.5080845,10.655793 L11.5435498,10.761561 L11.6092495,10.6832149 C12.900066,9.0689989 13.2553479,6.88529224 12.5272782,4.93628724 L12.4508547,4.74219886 C11.5376564,2.53755034 9.38632495,1.1000813 7.00002281,1.1000813 Z M6.83748569,3.44604878 L6.73886947,3.45601106 C5.73388926,3.58452872 4.9626289,4.44828396 4.97431408,5.47912795 L4.98516261,5.68095358 C5.0831908,6.63580251 5.84747412,7.3919548 6.79442268,7.47918417 L7.0201797,7.48830485 C8.05605094,7.47593718 8.91256493,6.68267499 9.00855939,5.66555098 L9.02036677,5.45122584 C9.00800597,4.41621858 8.21579968,3.56022075 7.20073631,3.46362308 L6.83748569,3.44604878 Z"></path>
</svg>
